{"glyphs":{"0":{"ha":1025,"x_min":0,"x_max":0,"o":"m 513 1056 b 104 520 240 1056 104 802 b 513 -15 104 238 240 -15 b 909 378 738 -15 869 159 b 880 413 913 396 898 413 b 851 388 866 413 853 402 b 513 44 818 208 717 44 b 163 520 256 44 163 302 b 513 997 163 738 256 997 b 862 550 758 997 854 760 l 746 550 b 717 520 730 550 717 537 b 513 181 717 396 678 181 b 308 520 347 181 308 394 b 513 860 308 647 347 860 b 703 652 627 860 681 757 b 732 629 706 639 718 629 b 760 664 750 629 764 646 b 513 918 731 800 656 918 b 250 520 319 918 250 704 b 513 123 250 337 319 123 b 774 492 696 123 767 315 l 892 492 b 921 520 908 492 921 504 b 513 1056 921 802 785 1056 z "},"1":{"ha":685,"x_min":0,"x_max":0,"o":"m 528 1019 b 499 1049 528 1036 515 1049 b 488 1047 495 1049 492 1049 l 149 895 b 122 852 132 887 122 870 l 122 703 b 143 683 122 691 131 683 b 152 684 146 683 149 683 l 470 827 l 470 58 l 383 58 l 383 658 b 353 688 383 675 369 688 b 324 658 338 688 324 675 l 324 29 b 353 0 324 13 338 0 l 499 0 b 528 29 515 0 528 13 l 528 883 b 507 906 528 896 518 906 b 498 903 503 906 501 905 l 180 760 l 180 845 l 511 993 b 528 1019 522 997 528 1008 z "},"2":{"ha":851,"x_min":0,"x_max":0,"o":"m 699 196 l 485 196 b 456 167 469 196 456 183 b 485 138 456 151 469 138 l 670 138 l 670 58 l 222 58 l 556 407 b 710 731 658 514 710 622 b 381 1056 710 942 540 1056 b 92 924 267 1056 166 1017 b 86 906 88 918 86 913 b 96 885 86 899 90 890 l 204 797 b 222 790 209 792 216 790 b 244 801 231 790 238 794 b 374 860 274 838 316 860 b 501 768 436 860 486 831 b 506 723 504 755 506 741 b 393 532 506 649 444 585 l 122 247 b 114 226 117 241 114 233 b 143 197 114 209 128 197 b 165 206 151 197 158 200 l 446 503 b 565 723 499 560 565 633 b 558 781 565 746 563 765 b 374 918 538 867 469 918 b 219 860 313 918 260 898 l 158 910 b 381 997 213 968 287 997 b 652 731 505 997 652 910 b 513 447 652 640 607 545 l 119 35 b 114 22 116 31 114 26 b 135 0 114 10 122 0 l 699 0 b 728 29 715 0 728 13 l 728 167 b 699 196 728 183 715 196 z "},"3":{"ha":917,"x_min":0,"x_max":0,"o":"m 638 558 b 649 535 638 549 642 540 b 755 319 702 494 755 417 b 431 44 755 153 628 44 b 140 115 313 44 226 67 l 181 189 b 419 123 264 144 342 123 b 667 319 572 123 667 200 b 498 522 667 418 603 492 l 756 867 b 767 903 763 878 767 890 l 767 1011 b 738 1040 767 1027 754 1040 l 176 1040 b 147 1011 160 1040 147 1027 l 147 874 b 176 844 147 858 160 844 l 487 844 l 319 618 b 314 601 316 613 314 606 b 343 572 314 585 327 572 b 367 583 351 572 360 575 l 576 868 b 581 881 580 872 581 877 b 559 903 581 892 572 903 l 205 903 l 205 982 l 709 982 l 709 903 l 419 513 b 414 499 415 509 414 504 b 435 476 414 488 422 478 b 609 319 530 463 609 415 b 419 181 609 219 519 181 b 181 255 337 181 258 211 b 144 244 168 263 151 258 l 76 118 b 85 81 68 105 73 89 b 431 -15 172 26 271 -15 b 813 319 666 -15 813 124 b 684 581 813 425 761 523 b 667 588 679 585 673 588 b 638 558 651 588 638 574 z "},"4":{"ha":941,"x_min":0,"x_max":0,"o":"m 842 375 l 740 375 l 740 535 b 710 564 740 551 726 564 l 565 564 b 535 535 549 564 535 551 l 535 375 l 441 375 b 412 346 425 375 412 362 b 441 317 412 330 425 317 l 565 317 b 594 346 581 317 594 330 l 594 506 l 681 506 l 681 346 b 710 317 681 330 694 317 l 813 317 l 813 238 l 710 238 b 681 208 694 238 681 224 l 681 58 l 594 58 l 594 208 b 565 238 594 224 581 238 l 256 238 l 659 1007 b 639 1040 667 1022 656 1040 l 475 1040 b 437 1017 459 1040 444 1031 l 93 360 b 119 317 83 340 97 317 b 144 333 129 317 140 323 l 484 982 l 580 982 l 177 213 b 197 179 169 197 180 179 l 535 179 l 535 29 b 565 0 535 13 549 0 l 710 0 b 740 29 726 0 740 13 l 740 179 l 842 179 b 872 208 858 179 872 192 l 872 346 b 842 375 872 362 858 375 z "},"5":{"ha":908,"x_min":0,"x_max":0,"o":"m 445 643 b 475 614 445 626 458 614 b 746 340 606 609 746 510 b 428 44 746 137 587 44 b 147 115 328 44 230 69 l 188 188 b 424 123 267 146 349 123 b 658 340 566 123 658 208 b 425 535 658 458 567 535 b 348 526 398 535 372 533 l 383 844 l 723 844 b 752 874 739 844 752 858 l 752 1011 b 723 1040 752 1028 739 1040 l 228 1040 b 198 1013 213 1040 199 1028 l 149 547 b 178 515 147 529 160 515 b 206 540 192 515 204 525 l 253 982 l 694 982 l 694 903 l 358 903 b 328 876 342 903 329 891 l 284 478 b 308 451 283 463 294 451 b 317 454 311 451 314 452 b 425 476 353 470 389 476 b 600 340 529 476 600 428 b 424 181 600 227 519 181 b 189 254 349 181 267 208 b 152 245 176 262 159 258 l 83 119 b 92 80 75 105 79 89 b 428 -15 181 24 297 -15 b 804 340 621 -15 804 105 b 479 672 804 541 641 665 b 445 643 461 673 445 663 z "},"6":{"ha":948,"x_min":0,"x_max":0,"o":"m 613 663 b 603 665 610 665 606 665 b 574 635 586 665 574 651 b 592 609 574 624 581 613 b 786 340 665 581 786 503 b 477 44 786 165 681 44 b 162 340 276 44 162 161 b 212 496 162 392 178 444 l 526 982 l 628 982 l 337 534 b 355 500 327 519 338 500 l 413 500 b 470 497 433 500 451 499 b 640 333 559 487 640 444 b 473 181 640 231 573 181 b 308 333 376 181 308 236 b 315 383 308 351 310 368 b 288 422 321 402 307 422 b 260 401 275 422 264 413 b 249 333 253 381 249 358 b 473 123 249 208 340 123 b 699 333 606 123 699 199 b 422 558 699 493 569 558 l 714 1006 b 696 1040 724 1021 713 1040 l 521 1040 b 480 1017 504 1040 489 1031 l 163 528 b 103 340 124 468 103 406 b 477 -15 103 128 244 -15 b 844 340 710 -15 844 130 b 613 663 844 493 753 608 z "},"7":{"ha":776,"x_min":0,"x_max":0,"o":"m 697 903 b 670 885 685 903 675 896 l 330 58 l 238 58 l 631 1008 b 608 1040 637 1023 625 1040 l 116 1040 b 87 1011 100 1040 87 1027 l 87 874 b 116 844 87 858 100 844 l 389 844 b 418 874 405 844 418 858 b 389 903 418 890 405 903 l 145 903 l 145 982 l 557 982 l 164 33 b 186 0 158 17 169 0 l 340 0 b 380 27 358 0 373 10 l 724 863 b 697 903 732 882 718 903 z "},"8":{"ha":933,"x_min":0,"x_max":0,"o":"m 611 641 b 651 751 637 673 651 708 b 467 918 651 853 579 918 b 282 751 354 918 282 852 b 455 506 282 651 333 579 b 625 308 551 449 625 399 b 467 181 625 213 561 181 b 308 308 372 181 308 224 b 369 424 308 363 335 394 b 379 446 376 430 379 438 b 350 475 379 462 366 475 b 331 467 343 475 336 472 b 250 308 290 433 250 387 b 467 123 250 192 339 123 b 683 308 597 123 683 181 b 491 553 683 438 568 506 b 340 751 407 603 340 653 b 467 860 340 819 387 860 b 593 751 546 860 593 821 b 545 651 593 710 570 678 b 538 633 540 646 538 639 b 552 608 538 623 543 613 b 574 596 560 604 567 600 b 771 306 688 525 771 449 b 467 44 771 140 656 44 b 163 306 278 44 163 152 b 258 517 163 414 210 476 b 269 541 265 524 269 533 b 263 560 269 548 267 554 b 194 752 229 601 194 660 b 467 997 194 924 331 997 b 739 753 602 997 739 922 b 728 684 739 730 735 706 b 756 647 723 666 738 647 b 785 668 769 647 781 655 b 797 753 792 694 797 724 b 467 1056 797 948 642 1056 b 136 752 292 1056 136 951 b 202 545 136 661 166 590 b 104 306 149 492 104 421 b 467 -15 104 133 231 -15 b 829 306 703 -15 829 120 b 611 641 829 478 724 572 z "},"9":{"ha":948,"x_min":0,"x_max":0,"o":"m 338 378 b 349 376 342 376 345 376 b 378 406 365 376 378 389 b 360 432 378 417 372 428 b 166 701 288 461 166 540 b 474 997 166 874 271 997 b 790 701 676 997 790 879 b 740 545 790 652 774 597 l 425 58 l 324 58 l 615 507 b 619 519 618 511 619 515 b 597 541 619 531 610 541 l 539 541 b 312 708 429 541 312 572 b 478 860 312 810 380 860 b 644 708 576 860 644 805 b 637 658 644 690 642 673 b 665 619 631 639 645 619 b 692 640 677 619 688 628 b 702 708 699 660 702 683 b 478 918 702 833 613 918 b 253 708 347 918 253 842 b 530 483 253 547 385 483 l 238 34 b 256 0 228 19 239 0 l 431 0 b 472 23 447 0 463 9 l 788 513 b 848 701 827 573 848 638 b 474 1056 848 912 707 1056 b 108 701 242 1056 108 908 b 338 378 108 549 199 437 z "}," ":{"ha":554,"x_min":0,"x_max":0,"o":""},"!":{"ha":512,"x_min":0,"x_max":0,"o":"m 139 1011 l 139 700 l 161 310 b 190 283 162 294 175 283 b 219 313 207 283 220 297 l 197 702 l 197 982 l 315 982 l 315 702 l 292 313 b 322 283 292 297 305 283 b 351 310 338 283 350 294 l 373 700 l 373 1011 b 344 1040 373 1027 360 1040 l 168 1040 b 139 1011 152 1040 139 1027 z m 256 197 b 141 81 192 197 141 145 b 174 1 141 50 153 22 b 194 -8 179 -5 187 -8 b 224 22 210 -8 224 6 b 215 42 224 29 221 36 b 199 81 206 52 199 66 b 256 138 199 113 225 138 b 313 81 288 138 313 113 b 297 42 313 66 307 52 b 289 22 292 37 289 29 b 317 -8 288 6 301 -8 b 338 1 325 -8 333 -5 b 371 81 358 22 371 50 b 256 197 371 145 319 197 z "},"\"":{"ha":534,"x_min":0,"x_max":0,"o":"m 410 792 l 369 792 l 351 1028 b 322 1056 350 1044 338 1056 b 293 1024 305 1056 292 1041 l 313 761 b 342 734 313 746 326 734 l 437 734 b 467 761 452 734 465 747 l 486 1024 b 457 1056 488 1041 474 1056 b 428 1028 442 1056 428 1044 z m 165 792 l 124 792 l 106 1028 b 77 1056 105 1044 92 1056 b 48 1024 60 1056 47 1041 l 67 761 b 97 734 68 746 81 734 l 192 734 b 222 761 207 734 220 747 l 241 1024 b 212 1056 242 1041 228 1056 b 183 1028 197 1056 183 1044 z "},"#":{"ha":1252,"x_min":0,"x_max":0,"o":"m 1135 622 l 1173 748 b 1148 781 1178 765 1165 781 l 984 781 l 1053 1007 b 1028 1040 1058 1024 1045 1040 l 891 1040 b 851 1011 873 1040 857 1028 l 782 781 l 628 781 l 697 1007 b 672 1040 701 1024 689 1040 l 535 1040 b 496 1011 517 1040 501 1028 l 426 781 l 258 781 b 219 752 240 781 224 769 l 181 626 b 206 593 176 610 188 593 l 369 593 l 317 422 b 342 389 313 406 325 389 l 694 389 b 733 418 712 389 728 401 l 794 619 b 769 651 799 635 786 651 l 558 651 b 519 622 540 651 524 640 l 499 556 b 527 519 493 538 508 519 b 555 540 540 519 551 527 l 572 593 l 725 593 l 681 447 l 386 447 l 438 618 b 413 651 443 635 431 651 l 249 651 l 271 723 l 439 723 b 478 752 457 723 473 735 l 548 982 l 628 982 l 559 756 b 584 723 554 740 567 723 l 794 723 b 834 752 813 723 828 735 l 903 982 l 984 982 l 915 756 b 940 723 910 740 923 723 l 1104 723 l 1083 651 l 914 651 b 874 622 896 651 880 640 l 814 422 b 839 389 809 406 822 389 l 1003 389 l 981 317 l 813 317 b 774 288 795 317 779 306 l 704 58 l 624 58 l 692 284 b 667 317 697 301 685 317 l 458 317 b 418 288 440 317 424 306 l 349 58 l 268 58 l 337 284 b 312 317 342 301 329 317 l 148 317 l 169 389 l 206 389 b 235 418 222 389 235 402 b 206 447 235 434 223 447 l 157 447 b 117 418 139 447 123 435 l 79 292 b 104 259 74 276 87 259 l 268 259 l 199 33 b 224 0 194 17 207 0 l 361 0 b 401 29 379 0 395 12 l 470 259 l 624 259 l 555 33 b 580 0 550 17 563 0 l 717 0 b 756 29 735 0 751 12 l 826 259 l 994 259 b 1033 288 1012 259 1028 271 l 1072 414 b 1047 447 1076 431 1064 447 l 883 447 l 926 593 l 1095 593 b 1135 622 1113 593 1129 605 z "},"$":{"ha":908,"x_min":0,"x_max":0,"o":"m 513 638 b 529 611 513 626 519 616 b 746 292 678 542 746 444 b 514 50 746 146 647 72 b 488 20 499 48 488 35 l 488 -128 l 401 -128 l 401 16 b 374 45 401 31 389 44 b 135 110 291 51 216 71 l 165 188 b 424 122 260 144 347 122 b 658 292 628 122 658 228 b 451 560 658 458 548 508 b 308 743 376 600 308 636 b 465 859 308 823 363 859 b 679 805 538 859 605 840 b 716 820 694 799 710 806 l 766 956 b 751 992 771 970 765 986 b 547 1051 690 1022 632 1042 l 547 1197 b 517 1226 547 1213 533 1226 l 372 1226 b 342 1197 356 1226 342 1213 l 342 1040 b 104 742 204 1006 104 907 b 303 415 104 593 174 482 b 317 411 308 412 313 411 b 347 440 333 411 347 424 b 331 466 347 451 340 461 b 163 742 234 517 163 601 b 376 988 163 910 282 969 b 401 1017 390 990 401 1003 l 401 1167 l 488 1167 l 488 1024 b 516 994 488 1008 500 996 b 702 951 597 990 651 974 l 673 872 b 465 917 599 903 533 917 b 250 743 265 917 250 789 b 422 509 250 607 335 556 b 600 292 515 458 600 426 b 424 181 600 213 535 181 b 159 256 340 181 247 212 b 122 242 145 263 128 256 l 72 106 b 86 69 67 92 72 76 b 342 -11 163 30 244 0 l 342 -157 b 372 -186 342 -173 356 -186 l 517 -186 b 547 -157 533 -186 547 -173 l 547 -3 b 804 292 701 29 804 128 b 553 664 804 476 715 590 b 513 638 534 673 513 658 z "},"%":{"ha":1617,"x_min":0,"x_max":0,"o":"m 1206 565 b 918 276 1038 565 918 452 b 1078 11 918 149 980 54 b 1119 38 1097 3 1119 17 b 1101 65 1119 49 1112 60 b 976 276 1023 99 976 174 b 1206 507 976 416 1067 507 b 1437 276 1347 507 1437 416 b 1235 45 1437 144 1359 57 l 1235 145 b 1207 174 1235 161 1222 174 b 1110 276 1144 174 1110 211 b 1206 377 1110 340 1144 377 b 1303 276 1269 377 1303 340 b 1288 213 1303 253 1299 231 b 1283 197 1285 208 1283 203 b 1313 168 1283 179 1297 168 b 1337 182 1322 168 1331 172 b 1361 276 1353 208 1361 240 b 1206 435 1361 373 1300 435 b 1052 276 1113 435 1052 373 b 1177 117 1052 189 1101 129 l 1177 15 b 1206 -15 1177 -1 1190 -15 b 1495 276 1375 -15 1495 99 b 1206 565 1495 452 1375 565 z m 699 766 b 410 1056 699 942 578 1056 b 122 766 242 1056 122 942 b 281 501 122 639 183 544 b 322 528 301 493 322 507 b 305 555 322 540 315 550 b 180 766 226 589 180 665 b 410 997 180 906 270 997 b 640 766 550 997 640 906 b 439 535 640 635 563 547 l 439 635 b 410 664 439 651 426 664 b 314 766 347 664 314 701 b 410 867 314 830 347 867 b 506 766 473 867 506 830 b 491 703 506 743 502 721 b 487 688 488 699 487 693 b 516 658 487 670 501 658 b 540 672 525 658 535 663 b 565 766 556 698 565 730 b 410 926 565 863 503 926 b 256 766 317 926 256 863 b 381 608 256 679 304 619 l 381 505 b 410 476 381 489 394 476 b 699 766 578 476 699 589 z m 1146 1040 l 997 1040 b 954 1015 978 1040 963 1031 l 454 42 b 480 0 444 23 458 0 b 506 16 491 0 501 6 l 1003 982 l 1089 982 l 605 42 b 632 0 595 23 610 0 b 657 16 642 0 652 6 l 1167 1006 b 1146 1040 1176 1022 1164 1040 z "},"&":{"ha":1058,"x_min":0,"x_max":0,"o":"m 401 422 l 752 22 b 799 0 764 8 781 0 l 988 0 b 1004 34 1006 0 1015 21 l 857 201 b 958 535 906 274 952 407 b 931 565 959 551 947 565 l 785 565 b 755 535 769 565 755 551 b 719 359 754 475 751 410 l 440 683 b 359 793 407 722 359 774 b 452 860 359 831 388 860 b 538 794 512 860 538 832 b 522 760 538 783 533 772 b 515 741 517 754 515 748 b 545 712 515 725 528 712 b 567 722 553 712 561 715 b 597 794 582 740 597 765 b 452 918 597 851 558 918 b 301 793 340 918 301 851 b 395 645 301 757 330 721 l 707 284 b 726 276 713 278 719 276 b 745 288 735 276 741 279 l 769 327 b 813 506 802 383 811 449 l 898 506 b 809 234 887 398 847 292 l 799 218 b 792 199 794 212 792 206 b 801 177 792 191 796 183 l 906 58 l 797 58 l 428 478 b 406 489 423 485 415 489 b 389 484 400 489 394 488 l 370 472 b 250 281 310 435 250 363 b 443 123 250 190 331 123 b 469 123 452 123 460 123 l 532 51 b 433 44 502 46 469 44 b 163 281 276 44 163 144 b 304 531 163 392 217 458 l 329 551 b 339 572 335 556 339 564 b 332 591 339 578 337 585 l 310 615 b 215 793 249 681 215 744 b 454 997 215 934 335 997 b 681 803 569 997 681 928 b 615 653 681 734 644 684 b 608 633 610 647 608 640 b 637 604 608 617 621 604 b 658 613 644 604 652 608 b 740 803 704 663 740 726 b 454 1056 740 954 610 1056 b 157 793 293 1056 157 960 b 267 575 157 714 215 632 b 104 281 182 506 104 424 b 433 -15 104 105 251 -15 b 603 8 501 -15 558 -6 b 620 31 614 12 620 22 b 614 47 620 36 618 42 l 508 167 b 472 181 499 177 485 181 b 443 181 461 181 453 181 b 308 281 374 181 308 215 b 401 422 308 340 357 395 z "},"'":{"ha":289,"x_min":0,"x_max":0,"o":"m 165 792 l 124 792 l 106 1028 b 77 1056 105 1044 92 1056 b 48 1024 60 1056 47 1041 l 67 761 b 97 734 68 746 81 734 l 192 734 b 222 761 207 734 220 747 l 241 1024 b 212 1056 242 1041 228 1056 b 183 1028 197 1056 183 1044 z "},"(":{"ha":647,"x_min":0,"x_max":0,"o":"m 542 1008 l 542 1140 b 509 1169 542 1157 526 1170 b 127 653 342 1151 165 993 b 156 622 126 637 139 622 b 185 647 171 622 183 633 b 483 1106 215 926 347 1073 l 483 1031 b 256 550 367 990 263 826 l 149 550 b 120 521 133 550 120 537 b 510 -128 120 89 322 -108 b 542 -99 526 -129 542 -116 l 542 33 b 518 61 542 47 532 58 b 321 394 431 79 347 194 b 292 420 319 409 307 420 b 263 388 274 420 261 405 b 483 10 290 173 382 45 l 483 -64 b 178 492 332 -28 186 149 l 285 492 b 313 521 300 492 313 505 b 518 980 313 798 415 958 b 542 1008 532 983 542 994 z "},")":{"ha":647,"x_min":0,"x_max":0,"o":"m 104 1008 b 128 980 104 994 114 983 b 333 521 231 958 333 798 b 361 492 333 505 345 492 l 467 492 b 163 -64 460 149 314 -28 l 163 10 b 383 388 264 45 356 173 b 353 420 385 405 372 420 b 325 394 339 420 327 409 b 128 61 299 194 215 79 b 104 33 114 58 104 47 l 104 -99 b 136 -128 104 -116 119 -129 b 526 521 324 -108 526 89 b 497 550 526 537 513 550 l 390 550 b 163 1031 383 826 279 990 l 163 1106 b 460 647 299 1073 430 926 b 490 622 463 633 475 622 b 519 653 507 622 520 637 b 136 1169 481 993 304 1151 b 104 1140 119 1170 104 1157 z "},"*":{"ha":713,"x_min":0,"x_max":0,"o":"m 644 881 l 574 990 b 534 999 565 1004 547 1008 l 450 945 l 450 1026 b 421 1056 450 1042 437 1056 l 291 1056 b 262 1026 275 1056 262 1042 l 262 945 l 178 999 b 138 990 165 1008 147 1004 l 68 881 b 76 841 59 867 63 849 l 182 773 l 76 704 b 68 664 63 696 59 678 l 138 555 b 178 547 147 542 165 538 l 262 601 l 262 519 b 291 490 262 503 275 490 b 320 519 307 490 320 503 l 320 667 b 287 686 320 685 301 695 l 171 611 l 133 672 l 259 753 b 259 792 274 762 274 783 l 133 874 l 171 935 l 287 860 b 320 878 301 850 320 860 l 320 997 l 392 997 l 392 878 b 425 860 392 860 410 850 l 541 935 l 580 874 l 453 792 b 453 753 439 783 439 762 l 580 672 l 541 611 l 425 686 b 392 667 410 695 392 685 l 392 519 b 421 490 392 503 405 490 b 450 519 437 490 450 503 l 450 601 l 534 546 b 574 555 547 538 565 541 l 644 664 b 636 704 653 678 649 696 l 530 773 l 636 841 b 644 881 649 849 653 867 z "},"+":{"ha":890,"x_min":0,"x_max":0,"o":"m 539 615 l 539 832 b 510 861 539 848 526 861 l 380 861 b 351 832 364 861 351 848 l 351 615 l 133 615 b 104 585 117 615 104 601 l 104 456 b 133 426 104 440 117 426 l 351 426 l 351 209 b 380 180 351 193 364 180 b 409 209 396 180 409 193 l 409 456 b 380 485 409 472 396 485 l 163 485 l 163 556 l 380 556 b 409 585 396 556 409 569 l 409 803 l 481 803 l 481 585 b 510 556 481 569 494 556 l 727 556 l 727 485 l 510 485 b 481 456 494 485 481 472 l 481 209 b 510 180 481 193 494 180 b 539 209 526 180 539 193 l 539 426 l 756 426 b 785 456 772 426 785 440 l 785 585 b 756 615 785 601 772 615 z "},",":{"ha":369,"x_min":0,"x_max":0,"o":"m 184 196 b 69 81 121 196 69 144 b 101 1 69 50 81 22 b 122 -8 106 -5 115 -8 b 151 22 138 -8 151 6 b 143 42 151 29 149 36 b 128 81 133 52 128 66 b 185 138 128 113 153 138 b 241 81 216 138 241 113 b 113 -195 241 61 162 -101 b 139 -237 103 -215 117 -237 b 165 -222 150 -237 160 -231 b 299 81 214 -124 299 40 b 184 196 299 147 248 196 z "},"-":{"ha":763,"x_min":0,"x_max":0,"o":"m 133 556 l 600 556 l 600 485 l 133 485 b 104 456 117 485 104 472 b 133 426 104 440 117 426 l 629 426 b 658 456 645 426 658 440 l 658 585 b 629 615 658 601 645 615 l 133 615 b 104 585 117 615 104 601 b 133 556 104 569 117 556 z "},".":{"ha":369,"x_min":0,"x_max":0,"o":"m 185 197 b 69 81 121 197 69 145 b 102 1 69 50 82 22 b 123 -8 108 -5 115 -8 b 152 22 139 -8 152 6 b 144 42 152 29 149 36 b 128 81 134 52 128 66 b 185 138 128 113 153 138 b 241 81 216 138 241 113 b 225 42 241 66 235 52 b 217 22 220 37 217 29 b 246 -8 217 6 230 -8 b 267 1 253 -8 261 -5 b 299 81 287 22 299 50 b 185 197 299 145 248 197 z "},"/":{"ha":855,"x_min":0,"x_max":0,"o":"m 638 1144 l 3 -87 b 29 -130 -6 -107 7 -130 b 55 -114 40 -130 50 -124 l 687 1112 l 773 1112 l 156 -87 b 181 -130 146 -107 159 -130 b 207 -114 192 -130 202 -124 l 852 1138 b 833 1170 860 1153 849 1170 l 680 1170 b 638 1144 663 1170 646 1160 z "},":":{"ha":369,"x_min":0,"x_max":0,"o":"m 185 837 b 69 722 121 837 69 785 b 102 642 69 691 82 663 b 123 633 108 636 115 633 b 152 662 139 633 152 646 b 144 683 152 669 149 677 b 128 722 134 692 128 706 b 185 778 128 753 153 778 b 241 722 216 778 241 753 b 225 683 241 706 235 692 b 217 663 220 677 217 669 b 246 633 217 647 230 633 b 267 642 253 633 261 636 b 299 722 287 663 299 691 b 185 837 299 785 248 837 z m 185 197 b 69 81 121 197 69 145 b 102 1 69 50 82 22 b 123 -8 108 -5 115 -8 b 152 22 139 -8 152 6 b 144 42 152 29 149 36 b 128 81 134 52 128 66 b 185 138 128 113 153 138 b 241 81 216 138 241 113 b 225 42 241 66 235 52 b 217 22 220 37 217 29 b 246 -8 217 6 230 -8 b 267 1 253 -8 261 -5 b 299 81 287 22 299 50 b 185 197 299 145 248 197 z "},";":{"ha":369,"x_min":0,"x_max":0,"o":"m 185 837 b 69 722 121 837 69 785 b 102 642 69 691 82 663 b 123 633 108 636 115 633 b 152 662 139 633 152 646 b 144 683 152 669 149 677 b 128 722 134 692 128 706 b 185 778 128 753 153 778 b 241 722 216 778 241 753 b 225 683 241 706 235 692 b 217 663 220 677 217 669 b 246 633 217 647 230 633 b 267 642 253 633 261 636 b 299 722 287 663 299 691 b 185 837 299 785 248 837 z m 184 196 b 69 81 121 196 69 144 b 101 1 69 50 81 22 b 122 -8 106 -5 115 -8 b 151 22 138 -8 151 6 b 143 42 151 29 149 36 b 128 81 133 52 128 66 b 185 138 128 113 153 138 b 241 81 216 138 241 113 b 113 -195 241 61 162 -101 b 139 -237 103 -215 117 -237 b 165 -222 150 -237 160 -231 b 299 81 214 -124 299 40 b 184 196 299 147 248 196 z "},"<":{"ha":689,"x_min":0,"x_max":0,"o":"m 366 574 l 562 700 b 585 742 576 709 585 725 l 585 899 b 551 917 585 917 566 927 l 127 644 b 104 603 113 635 104 620 l 104 595 b 127 553 104 578 113 562 l 526 297 l 526 211 l 149 454 b 104 430 130 467 104 453 b 117 406 104 420 109 411 l 551 126 b 585 144 566 117 585 127 l 585 302 b 562 343 585 319 576 334 l 164 599 l 526 832 l 526 747 l 334 623 b 321 599 326 617 321 608 b 366 574 321 576 347 562 z "},"=":{"ha":878,"x_min":0,"x_max":0,"o":"m 104 744 b 133 715 104 728 117 715 l 716 715 l 716 643 l 133 643 b 104 614 117 643 104 630 b 133 585 104 598 117 585 l 745 585 b 774 614 761 585 774 598 l 774 744 b 745 773 774 760 761 773 l 133 773 b 104 744 117 773 104 760 z m 133 267 l 745 267 b 774 297 761 267 774 281 b 745 326 774 313 761 326 l 163 326 l 163 397 l 745 397 b 774 426 761 397 774 410 b 745 456 774 442 761 456 l 133 456 b 104 426 117 456 104 442 l 104 297 b 133 267 104 281 117 267 z "},">":{"ha":689,"x_min":0,"x_max":0,"o":"m 323 574 b 368 599 342 562 368 576 b 355 623 368 608 363 617 l 163 747 l 163 832 l 525 599 l 127 343 b 104 302 113 334 104 319 l 104 144 b 138 126 104 127 123 117 l 572 406 b 585 430 580 411 585 420 b 540 454 585 453 559 467 l 163 211 l 163 297 l 562 553 b 585 595 576 562 585 578 l 585 603 b 562 644 585 620 576 635 l 138 917 b 104 899 123 927 104 917 l 104 742 b 127 700 104 725 113 709 z "},"?":{"ha":818,"x_min":0,"x_max":0,"o":"m 380 197 b 265 81 316 197 265 145 b 297 1 265 50 277 22 b 318 -8 303 -5 310 -8 b 347 22 334 -8 347 6 b 339 42 347 29 344 36 b 323 81 329 52 323 66 b 380 138 323 113 349 138 b 436 81 411 138 436 113 b 420 42 436 66 431 52 b 412 22 415 37 413 29 b 441 -8 412 6 425 -8 b 462 1 449 -8 456 -5 b 494 81 482 22 494 50 b 380 197 494 145 443 197 z m 369 1056 b 90 944 276 1056 182 1024 b 80 922 83 938 80 930 b 86 904 80 915 82 909 l 171 795 b 193 784 176 788 185 784 b 211 791 199 784 206 786 b 372 860 272 842 320 860 b 510 752 459 860 510 814 b 408 599 510 697 458 653 b 278 325 328 513 282 461 l 278 312 b 306 283 277 296 290 283 b 335 311 322 283 335 295 l 336 326 b 451 560 340 440 376 480 b 568 752 502 614 568 670 b 372 918 568 860 474 918 b 198 855 311 918 258 899 l 149 917 b 369 997 218 970 292 997 b 656 749 543 997 656 900 b 541 537 656 652 605 601 b 424 323 475 471 429 424 l 423 312 b 452 283 423 295 436 283 b 481 311 468 283 481 295 l 482 323 b 556 469 487 394 515 426 b 714 749 631 546 714 612 b 369 1056 714 922 588 1056 z "},"@":{"ha":1305,"x_min":0,"x_max":0,"o":"m 674 1103 b 104 503 334 1103 104 839 b 664 -62 104 172 335 -62 b 908 -18 738 -62 828 -49 b 926 9 919 -14 926 -3 b 887 36 926 29 906 44 b 665 -4 828 14 746 -4 b 163 503 374 -4 163 198 b 674 1045 163 807 365 1045 b 1142 603 937 1045 1142 874 b 972 182 1142 400 1123 182 l 972 783 b 957 815 972 796 967 808 b 671 924 893 863 799 924 b 284 520 440 924 284 766 b 623 118 284 270 419 118 b 820 152 701 118 772 133 b 841 183 833 157 841 169 l 841 718 b 818 754 841 735 832 746 b 678 799 797 767 739 799 b 415 520 516 799 415 692 b 630 242 415 347 495 242 b 684 247 648 242 667 244 b 709 276 699 249 709 261 b 675 304 709 294 693 307 b 630 301 660 302 645 301 b 474 520 529 301 474 379 b 678 740 474 662 551 740 b 783 707 719 740 758 721 l 783 201 b 623 176 744 188 689 176 b 342 520 423 176 342 340 b 671 865 342 724 462 865 b 914 774 785 865 863 810 l 914 153 b 943 124 914 136 926 124 l 974 124 b 1174 314 1088 124 1148 214 b 1201 606 1192 387 1201 479 b 674 1103 1201 907 967 1103 z "},"A":{"ha":1031,"x_min":0,"x_max":0,"o":"m 586 1040 l 443 1040 b 402 1012 424 1040 408 1029 l 190 428 b 213 397 185 413 196 397 l 667 397 b 689 428 683 397 694 413 l 535 853 b 515 867 531 862 523 867 b 494 853 506 867 498 863 l 392 573 b 420 534 385 554 400 534 b 447 553 432 534 443 542 l 515 738 l 617 455 l 262 455 l 453 982 l 576 982 l 912 58 l 823 58 l 740 289 b 699 317 733 306 717 317 l 180 317 b 139 289 161 317 145 306 l 46 32 b 68 0 40 17 51 0 l 216 0 b 257 28 235 0 251 12 l 298 141 b 270 180 305 160 290 180 b 243 161 258 180 247 172 l 206 58 l 117 58 l 190 259 l 688 259 l 772 28 b 813 0 778 12 794 0 l 961 0 b 983 32 978 0 989 17 l 627 1012 b 586 1040 621 1029 605 1040 z "},"B":{"ha":983,"x_min":0,"x_max":0,"o":"m 769 569 b 834 768 814 624 834 697 b 512 1040 834 907 713 1040 l 168 1040 b 139 1011 152 1040 139 1027 l 139 615 b 168 586 139 599 152 586 l 506 586 b 691 756 622 586 691 647 b 501 903 691 825 641 903 l 314 903 b 285 874 298 903 285 890 l 285 753 b 314 724 285 737 298 724 b 343 753 330 724 343 737 l 343 844 l 501 844 b 633 756 578 844 633 815 b 511 644 633 683 592 644 l 197 644 l 197 982 l 512 982 b 776 768 678 982 776 877 b 700 580 776 672 738 617 b 692 563 694 575 692 569 b 705 542 692 555 697 547 b 831 311 781 499 831 426 b 547 58 831 177 731 58 l 197 58 l 197 449 l 533 449 b 685 319 638 449 685 388 b 549 196 685 253 647 196 l 343 196 l 343 341 b 314 370 343 357 330 370 b 285 341 298 370 285 357 l 285 167 b 314 138 285 151 298 138 l 549 138 b 744 319 683 138 744 225 b 533 508 744 426 663 508 l 168 508 b 139 478 152 508 139 494 l 139 29 b 168 0 139 13 152 0 l 547 0 b 890 311 758 0 890 140 b 769 569 890 426 846 513 z "},"C":{"ha":928,"x_min":0,"x_max":0,"o":"m 797 242 b 759 252 790 256 772 260 b 548 181 696 213 628 181 b 301 413 401 181 325 290 b 272 437 298 427 285 437 b 243 402 253 437 240 420 b 548 123 274 251 372 123 b 760 185 631 123 701 151 l 799 110 b 542 44 717 65 635 44 b 145 511 276 44 145 265 l 145 515 l 263 515 b 291 543 278 515 291 528 b 534 860 295 701 382 860 b 730 794 622 860 669 835 b 767 803 742 785 759 790 l 838 930 b 828 967 844 942 841 959 b 530 1056 744 1026 652 1056 b 106 689 301 1056 156 890 b 134 653 101 671 115 653 b 163 675 147 653 159 662 b 530 997 206 851 331 997 b 773 934 625 997 701 978 l 733 862 b 534 918 676 897 622 918 b 234 574 353 918 249 748 l 116 574 b 87 545 100 574 87 561 l 87 511 b 542 -15 87 219 253 -15 b 853 74 669 -15 767 22 b 864 113 867 82 871 99 z "},"D":{"ha":1019,"x_min":0,"x_max":0,"o":"m 467 1040 l 168 1040 b 139 1011 151 1040 139 1027 b 168 982 139 995 151 982 l 467 982 b 874 521 747 982 874 784 b 457 58 874 240 710 58 l 197 58 l 197 844 l 467 844 b 728 521 633 844 728 730 b 467 196 728 326 625 196 l 343 196 l 343 737 b 314 766 343 753 330 766 b 285 737 297 766 285 753 l 285 167 b 314 138 285 151 297 138 l 467 138 b 786 521 658 138 786 292 b 467 903 786 760 667 903 l 168 903 b 139 874 151 903 139 890 l 139 29 b 168 0 139 13 151 0 l 457 0 b 932 521 742 0 932 208 b 467 1040 932 855 747 1040 z "},"E":{"ha":887,"x_min":0,"x_max":0,"o":"m 343 196 l 343 585 l 699 585 l 699 506 l 460 506 b 431 477 444 506 431 493 b 460 448 431 461 444 448 l 728 448 b 757 477 744 448 757 461 l 757 615 b 728 644 757 631 744 644 l 314 644 b 285 615 298 644 285 631 l 285 167 b 314 138 285 151 298 138 l 724 138 l 724 58 l 197 58 l 197 982 l 715 982 l 715 903 l 314 903 b 285 874 298 903 285 890 l 285 752 b 314 723 285 736 298 723 b 343 752 331 723 343 736 l 343 844 l 744 844 b 773 874 760 844 773 858 l 773 1011 b 744 1040 773 1027 760 1040 l 168 1040 b 139 1011 152 1040 139 1027 l 139 29 b 168 0 139 13 152 0 l 753 0 b 783 29 770 0 783 13 l 783 167 b 753 196 783 183 770 196 z "},"F":{"ha":831,"x_min":0,"x_max":0,"o":"m 715 1040 l 168 1040 b 139 1011 152 1040 139 1028 l 139 615 b 168 585 139 599 152 585 l 596 585 l 596 506 l 168 506 b 139 477 152 506 139 494 l 139 29 b 168 0 139 13 152 0 l 314 0 b 343 29 330 0 343 13 l 343 340 b 314 369 343 357 330 369 b 285 340 298 369 285 357 l 285 58 l 197 58 l 197 448 l 625 448 b 654 477 641 448 654 461 l 654 615 b 625 644 654 631 641 644 l 197 644 l 197 982 l 685 982 l 685 903 l 314 903 b 285 874 298 903 285 890 l 285 752 b 314 723 285 736 298 723 b 343 752 330 723 343 736 l 343 844 l 715 844 b 744 874 731 844 744 858 l 744 1011 b 715 1040 744 1028 731 1040 z "},"G":{"ha":1002,"x_min":0,"x_max":0,"o":"m 898 544 b 869 573 898 560 885 573 l 543 573 b 514 544 527 573 514 560 l 514 406 b 543 377 514 390 527 377 l 840 377 l 840 128 b 544 44 751 72 654 44 b 145 521 271 44 145 274 l 145 531 b 535 997 145 759 283 997 b 779 934 631 997 706 978 l 739 862 b 540 918 681 897 627 918 b 233 531 342 918 233 719 l 233 521 b 542 123 233 320 330 123 b 722 158 609 123 670 136 l 728 160 b 752 198 743 167 752 182 l 752 269 b 723 299 752 285 739 299 b 694 269 707 299 694 285 l 694 209 b 542 181 658 194 604 181 b 291 521 357 181 291 366 l 291 531 b 540 860 291 678 372 860 b 736 794 628 860 676 835 b 773 803 749 785 765 790 l 843 929 b 833 968 850 942 847 959 b 535 1056 749 1026 658 1056 b 87 531 249 1056 87 793 l 87 521 b 544 -15 87 229 247 -15 b 880 84 701 -15 811 39 b 898 118 891 92 898 104 l 898 406 b 869 435 898 422 885 435 l 572 435 l 572 515 l 869 515 b 898 544 885 515 898 528 z "},"H":{"ha":1069,"x_min":0,"x_max":0,"o":"m 901 1040 l 755 1040 b 726 1011 739 1040 726 1027 l 726 644 l 197 644 l 197 982 l 285 982 l 285 753 b 314 724 285 737 298 724 b 343 753 330 724 343 737 l 343 1011 b 314 1040 343 1027 330 1040 l 168 1040 b 139 1011 152 1040 139 1027 l 139 615 b 168 586 139 599 152 586 l 755 586 b 784 615 771 586 784 599 l 784 982 l 872 982 l 872 58 l 784 58 l 784 478 b 755 507 784 494 771 507 l 168 507 b 139 478 152 507 139 494 l 139 29 b 168 0 139 13 152 0 l 314 0 b 343 29 330 0 343 13 l 343 340 b 314 369 343 356 330 369 b 285 340 298 369 285 356 l 285 58 l 197 58 l 197 449 l 726 449 l 726 29 b 755 0 726 13 739 0 l 901 0 b 930 29 917 0 930 13 l 930 1011 b 901 1040 930 1027 917 1040 z "},"I":{"ha":517,"x_min":0,"x_max":0,"o":"m 331 844 b 360 874 347 844 360 858 l 360 1011 b 331 1040 360 1027 347 1040 l 185 1040 b 156 1011 169 1040 156 1027 b 185 982 156 995 169 982 l 302 982 l 302 903 l 185 903 b 156 874 169 903 156 890 l 156 29 b 185 0 156 13 169 0 l 331 0 b 360 29 347 0 360 13 l 360 736 b 331 765 360 752 347 765 b 302 736 315 765 302 752 l 302 58 l 215 58 l 215 844 z "},"J":{"ha":786,"x_min":0,"x_max":0,"o":"m 240 982 l 618 982 b 647 1011 634 982 647 995 b 618 1040 647 1027 634 1040 l 211 1040 b 182 1011 195 1040 182 1027 l 182 874 b 211 844 182 858 195 844 l 589 844 l 589 328 b 357 44 589 178 526 44 b 127 106 263 44 191 63 l 167 178 b 339 123 228 142 286 123 b 501 327 413 123 501 158 l 501 736 b 472 765 501 752 488 765 b 443 736 456 765 443 752 l 443 327 b 339 181 443 226 411 181 b 170 246 281 181 221 210 b 155 251 165 249 160 251 b 132 237 146 251 137 245 l 65 113 b 73 73 57 99 60 82 b 357 -15 142 19 228 -15 b 647 328 550 -15 647 133 l 647 874 b 618 903 647 890 634 903 l 240 903 z "},"K":{"ha":1007,"x_min":0,"x_max":0,"o":"m 944 35 l 508 542 l 907 1006 b 912 1019 910 1010 912 1015 b 891 1040 912 1030 903 1040 l 702 1040 b 656 1019 685 1040 667 1033 l 299 602 b 285 564 290 591 285 578 l 285 58 l 197 58 l 197 982 l 285 982 l 285 788 b 314 759 285 772 298 759 b 343 788 330 759 343 772 l 343 1011 b 314 1040 343 1027 330 1040 l 168 1040 b 139 1011 152 1040 139 1027 l 139 29 b 168 0 139 13 152 0 l 314 0 b 343 29 330 0 343 13 l 343 564 l 701 982 l 810 982 l 448 562 b 440 542 443 556 440 549 b 448 522 440 535 443 528 l 847 58 l 735 58 l 482 355 b 460 365 476 362 468 365 b 431 336 445 365 431 353 b 438 317 431 329 433 322 l 690 22 b 736 0 702 8 719 0 l 928 0 b 949 21 940 0 949 10 b 944 35 949 26 947 31 z "},"L":{"ha":766,"x_min":0,"x_max":0,"o":"m 685 196 l 197 196 l 197 982 l 285 982 l 285 304 b 314 275 285 288 298 275 b 343 304 330 275 343 288 l 343 1011 b 314 1040 343 1027 330 1040 l 168 1040 b 139 1011 152 1040 139 1027 l 139 167 b 168 138 139 151 152 138 l 656 138 l 656 58 l 168 58 b 139 29 152 58 139 45 b 168 0 139 13 152 0 l 685 0 b 714 29 701 0 714 13 l 714 167 b 685 196 714 183 701 196 z "},"M":{"ha":1296,"x_min":0,"x_max":0,"o":"m 1128 1040 l 961 1040 b 921 1017 944 1040 929 1031 l 565 394 l 323 815 b 306 826 319 822 313 826 b 285 805 295 826 285 818 l 285 58 l 197 58 l 197 982 l 328 982 l 541 608 b 566 594 547 599 556 594 b 592 638 588 594 603 618 l 375 1017 b 335 1040 367 1031 351 1040 l 168 1040 b 139 1011 152 1040 139 1027 l 139 29 b 168 0 139 13 152 0 l 314 0 b 343 29 330 0 343 13 l 343 664 l 545 313 b 565 301 550 305 557 301 b 585 313 573 301 581 305 l 968 982 l 1099 982 l 1099 58 l 1011 58 l 1011 805 b 990 826 1011 818 1001 826 b 972 815 983 826 976 822 l 701 344 b 727 301 690 325 705 301 b 752 315 738 301 747 306 l 953 664 l 953 29 b 982 0 953 13 966 0 l 1128 0 b 1157 29 1144 0 1157 13 l 1157 1011 b 1128 1040 1157 1027 1144 1040 z "},"N":{"ha":1107,"x_min":0,"x_max":0,"o":"m 939 1040 l 793 1040 b 764 1011 776 1040 764 1027 l 764 359 l 372 1025 b 347 1040 367 1034 358 1040 b 321 996 324 1040 309 1016 l 783 210 b 801 200 788 203 794 200 b 822 221 812 200 822 208 l 822 982 l 910 982 l 910 58 l 776 58 l 207 1023 b 176 1040 200 1033 189 1040 l 168 1040 b 139 1011 151 1040 139 1027 l 139 29 b 168 0 139 13 151 0 l 314 0 b 343 29 330 0 343 13 l 343 501 b 314 531 343 517 330 531 b 285 502 298 531 285 518 l 285 58 l 197 58 l 197 924 l 728 23 b 769 0 737 8 752 0 l 939 0 b 968 29 955 0 968 13 l 968 1011 b 939 1040 968 1027 955 1040 z "},"O":{"ha":1088,"x_min":0,"x_max":0,"o":"m 699 1029 b 660 1001 681 1036 660 1022 b 680 974 660 990 668 978 b 942 521 860 909 942 714 b 544 44 942 283 819 44 b 145 521 268 44 145 283 b 515 997 145 749 260 980 l 515 888 b 544 860 515 872 528 860 b 797 521 728 860 797 667 b 544 181 797 375 729 181 b 291 521 358 181 291 375 b 415 820 291 625 326 756 b 427 843 422 826 427 834 b 398 873 427 860 413 873 b 381 867 392 873 386 871 b 233 521 280 794 233 654 b 544 123 233 329 330 123 b 855 521 758 123 855 329 b 573 917 855 703 766 899 l 573 1026 b 544 1056 573 1042 560 1056 b 87 521 252 1056 87 813 b 544 -15 87 229 251 -15 b 1001 521 835 -15 1001 229 b 699 1029 1001 755 894 958 z "},"P":{"ha":955,"x_min":0,"x_max":0,"o":"m 499 1040 l 168 1040 b 139 1011 151 1040 139 1027 l 139 29 b 168 0 139 13 151 0 l 314 0 b 343 29 330 0 343 13 l 343 488 l 508 488 b 722 699 644 488 722 565 b 518 903 722 825 644 903 l 314 903 b 285 874 297 903 285 890 l 285 654 b 314 625 285 638 297 625 b 343 654 330 625 343 638 l 343 844 l 518 844 b 664 699 612 844 664 792 b 508 546 664 616 628 546 l 314 546 b 285 517 297 546 285 533 l 285 58 l 197 58 l 197 982 l 499 982 b 810 699 779 982 810 785 b 524 408 810 524 701 408 l 460 408 b 431 379 443 408 431 395 b 460 350 431 363 443 350 l 524 350 b 868 699 742 350 868 501 b 499 1040 868 879 760 1040 z "},"Q":{"ha":1091,"x_min":0,"x_max":0,"o":"m 544 918 b 233 521 340 918 233 724 b 544 123 233 317 340 123 b 653 142 585 123 621 128 l 869 -101 b 891 -111 874 -108 883 -111 b 910 -103 898 -111 905 -108 l 1012 -12 b 1022 9 1018 -7 1022 1 b 1014 29 1022 16 1019 24 l 782 292 b 760 301 776 299 768 301 b 731 272 745 301 731 290 b 738 253 731 265 733 258 l 951 12 l 893 -40 l 683 197 b 661 207 677 203 669 207 b 647 203 656 207 651 206 b 544 181 619 188 587 181 b 291 521 359 181 291 374 b 544 860 291 667 359 860 b 797 521 728 860 797 667 b 790 442 797 495 794 469 b 802 400 787 427 793 410 l 919 267 b 936 260 924 263 930 260 b 956 274 944 260 953 265 b 1001 521 985 348 1001 433 b 544 1056 1001 813 835 1056 b 87 521 252 1056 87 813 b 544 -15 87 229 252 -15 b 611 -9 567 -15 590 -12 b 635 19 626 -7 635 6 b 601 49 635 41 618 51 b 544 44 583 45 564 44 b 145 521 269 44 145 283 b 544 997 145 758 269 997 b 942 521 819 997 942 758 b 921 354 942 463 935 406 l 849 435 b 855 521 853 463 855 492 b 544 918 855 724 749 918 z "},"R":{"ha":975,"x_min":0,"x_max":0,"o":"m 498 1040 l 168 1040 b 139 1011 152 1040 139 1028 l 139 29 b 168 0 139 13 152 0 l 314 0 b 343 29 330 0 343 13 l 343 469 l 672 20 b 712 0 681 8 696 0 l 890 0 b 913 23 903 0 913 11 b 908 36 913 27 912 32 l 557 510 b 725 710 663 526 725 600 b 508 903 725 827 640 903 l 314 903 b 285 874 298 903 285 890 l 285 672 b 314 643 285 656 298 643 b 343 672 330 643 343 656 l 343 844 l 508 844 b 667 710 605 844 667 798 b 501 564 667 633 629 564 l 490 564 b 467 542 476 564 467 553 b 472 528 467 537 468 532 l 819 58 l 717 58 l 360 544 b 320 564 351 557 336 564 l 314 564 b 285 535 298 564 285 551 l 285 58 l 197 58 l 197 982 l 498 982 b 813 710 688 982 813 878 b 710 490 813 619 778 539 b 697 467 701 485 697 476 b 726 437 697 450 710 437 b 743 442 732 437 738 439 b 871 710 825 500 871 596 b 498 1040 871 895 738 1040 z "},"S":{"ha":873,"x_min":0,"x_max":0,"o":"m 494 638 b 512 612 494 627 501 617 b 728 292 661 543 728 442 b 407 44 728 106 569 44 b 117 110 304 44 215 64 l 147 190 b 407 123 242 145 330 123 b 640 292 610 123 640 229 b 433 561 640 458 530 509 b 290 744 358 602 290 637 b 447 860 290 817 344 860 b 662 806 520 860 588 841 b 673 803 665 804 669 803 b 699 822 684 803 695 810 l 749 957 b 734 993 754 971 749 985 b 447 1056 656 1032 585 1056 b 86 743 258 1056 86 952 b 287 415 86 593 158 483 b 300 412 291 413 296 412 b 329 442 318 412 329 427 b 314 467 329 451 324 461 b 144 743 217 517 144 603 b 447 997 144 912 281 997 b 685 952 565 997 623 981 l 656 872 b 447 918 581 903 515 918 b 232 744 293 918 232 833 b 404 510 232 608 317 557 b 582 292 492 463 582 426 b 407 181 582 215 519 181 b 143 256 322 181 230 213 b 131 259 139 258 135 259 b 104 241 119 259 108 253 l 53 106 b 68 69 48 92 55 76 b 407 -15 166 20 272 -15 b 786 292 627 -15 786 90 b 536 665 786 474 699 590 b 494 638 516 674 494 659 z "},"T":{"ha":851,"x_min":0,"x_max":0,"o":"m 769 1040 l 499 1040 b 469 1011 483 1040 469 1027 l 469 58 l 382 58 l 382 1011 b 353 1040 382 1027 369 1040 l 81 1040 b 52 1011 65 1040 52 1027 l 52 874 b 81 844 52 857 65 844 l 207 844 b 236 874 223 844 236 857 b 207 903 236 890 223 903 l 110 903 l 110 982 l 324 982 l 324 29 b 353 0 324 13 337 0 l 499 0 b 528 29 515 0 528 13 l 528 982 l 740 982 l 740 903 l 644 903 b 615 874 628 903 615 890 b 644 844 615 857 628 844 l 769 844 b 799 874 785 844 799 857 l 799 1011 b 769 1040 799 1027 785 1040 z "},"U":{"ha":1069,"x_min":0,"x_max":0,"o":"m 755 1040 b 726 1011 739 1040 726 1027 l 726 403 b 657 216 726 313 703 251 b 646 192 650 210 646 202 b 675 163 646 176 660 163 b 692 169 681 163 687 165 b 784 403 744 209 784 279 l 784 982 l 872 982 l 872 403 b 564 44 872 276 831 59 l 564 153 b 535 181 564 169 551 181 b 343 403 405 181 343 256 l 343 1011 b 314 1040 343 1027 330 1040 l 168 1040 b 139 1011 152 1040 139 1027 l 139 403 b 379 10 139 215 216 68 b 418 38 398 3 418 17 b 399 65 418 49 410 60 b 197 403 233 124 197 281 l 197 982 l 285 982 l 285 403 b 506 124 285 183 414 130 l 506 15 b 535 -15 506 -1 519 -15 b 930 403 805 -15 930 164 l 930 1011 b 901 1040 930 1027 917 1040 z "},"V":{"ha":1001,"x_min":0,"x_max":0,"o":"m 742 1011 l 549 467 b 547 456 547 463 547 460 b 576 428 547 441 559 428 b 603 447 588 428 599 434 l 793 982 l 885 982 l 576 120 l 260 1011 b 219 1040 253 1028 237 1040 l 67 1040 b 45 1008 51 1040 40 1024 l 401 19 b 428 0 405 8 416 0 b 457 29 444 0 457 14 b 456 39 457 33 457 35 l 117 982 l 208 982 l 550 18 b 576 0 553 7 564 0 b 601 18 587 0 597 7 l 956 1009 b 934 1040 962 1024 950 1040 l 783 1040 b 742 1011 765 1040 748 1028 z "},"W":{"ha":1622,"x_min":0,"x_max":0,"o":"m 1364 1012 l 1130 326 l 893 1021 b 865 1040 889 1033 878 1040 b 838 1002 845 1040 831 1020 l 1110 206 b 1130 191 1113 196 1122 191 b 1150 206 1138 191 1147 196 l 1415 982 l 1505 982 l 1189 58 l 1072 58 l 744 1012 b 704 1040 739 1029 723 1040 l 556 1040 b 533 1009 539 1040 528 1024 l 628 728 l 492 326 l 258 1012 b 217 1040 252 1029 235 1040 l 68 1040 b 46 1009 51 1040 40 1024 l 381 28 b 422 0 388 11 403 0 l 561 0 b 601 28 580 0 596 12 l 763 499 b 735 538 769 518 756 538 b 708 518 724 538 713 531 l 550 58 l 433 58 l 117 982 l 206 982 l 472 206 b 492 191 475 196 483 191 b 512 206 500 191 509 196 l 683 708 b 687 728 685 715 687 722 b 683 749 687 735 685 743 l 603 982 l 693 982 l 1020 28 b 1060 0 1026 12 1042 0 l 1200 0 b 1240 28 1219 0 1235 11 l 1576 1009 b 1553 1040 1581 1024 1569 1040 l 1404 1040 b 1364 1012 1386 1040 1369 1029 z "},"X":{"ha":1003,"x_min":0,"x_max":0,"o":"m 756 0 l 929 0 b 947 33 947 0 956 19 l 622 541 l 921 1007 b 924 1019 924 1011 924 1015 b 903 1040 924 1030 915 1040 l 731 1040 b 689 1017 714 1040 698 1032 l 502 727 l 315 1018 b 273 1040 306 1032 290 1040 l 101 1040 b 79 1019 88 1040 79 1030 b 83 1007 79 1015 81 1010 l 308 658 b 332 644 313 649 322 644 b 361 674 348 644 361 658 b 356 690 361 679 360 685 l 168 982 l 268 982 l 482 650 b 502 640 487 643 494 640 b 522 650 510 640 517 643 l 735 982 l 835 982 l 568 565 b 560 541 563 558 560 549 b 568 517 560 533 563 524 l 862 58 l 761 58 l 437 563 b 417 574 432 571 424 574 b 397 563 409 574 401 571 l 56 33 b 74 0 47 19 57 0 l 247 0 b 289 23 264 0 280 8 l 442 260 b 447 276 445 265 447 271 b 417 306 447 292 433 306 b 393 292 408 306 399 301 l 242 58 l 142 58 l 417 487 l 715 23 b 756 0 724 8 740 0 z "},"Y":{"ha":946,"x_min":0,"x_max":0,"o":"m 392 512 l 133 982 l 231 982 l 366 735 b 391 719 372 725 381 719 b 417 763 413 719 428 743 l 278 1016 b 238 1040 270 1031 255 1040 l 72 1040 b 53 1008 56 1040 44 1022 l 371 428 b 392 416 376 420 383 416 b 413 428 399 416 408 420 l 715 982 l 813 982 l 524 455 b 517 425 519 446 517 435 l 517 58 l 429 58 l 429 308 b 400 337 429 324 416 337 b 371 308 384 337 371 324 l 371 29 b 400 0 371 13 384 0 l 546 0 b 575 29 562 0 575 13 l 575 426 l 893 1008 b 874 1040 901 1022 891 1040 l 708 1040 b 667 1016 691 1040 676 1031 z "},"Z":{"ha":936,"x_min":0,"x_max":0,"o":"m 356 196 l 817 869 b 820 881 819 873 820 877 b 799 903 820 892 811 903 l 188 903 l 188 982 l 791 982 b 820 1011 807 982 820 995 b 791 1040 820 1027 807 1040 l 159 1040 b 130 1011 143 1040 130 1027 l 130 874 b 159 844 130 858 143 844 l 729 844 l 269 172 b 287 138 259 157 269 138 l 791 138 l 791 58 l 145 58 l 145 138 l 544 720 b 520 766 557 740 544 766 b 496 753 510 766 501 761 l 97 172 b 87 138 90 161 87 150 l 87 29 b 116 0 87 13 100 0 l 820 0 b 849 29 836 0 849 13 l 849 167 b 820 196 849 183 836 196 z "},"[":{"ha":588,"x_min":0,"x_max":0,"o":"m 333 520 l 333 982 l 455 982 b 484 1011 471 982 484 995 l 484 1141 b 455 1170 484 1157 471 1170 l 168 1170 b 139 1141 152 1170 139 1157 l 139 650 b 168 621 139 634 152 621 b 197 650 184 621 197 634 l 197 1112 l 426 1112 l 426 1040 l 303 1040 b 274 1011 288 1040 274 1027 l 274 549 l 168 549 b 139 520 152 549 139 536 l 139 -101 b 168 -130 139 -117 152 -130 l 455 -130 b 484 -101 471 -130 484 -117 l 484 29 b 455 58 484 45 471 58 l 333 58 l 333 390 b 303 419 333 406 319 419 b 274 390 288 419 274 406 l 274 29 b 303 0 274 13 288 0 l 426 0 l 426 -72 l 197 -72 l 197 491 l 303 491 b 333 520 319 491 333 504 z "},"\\":{"ha":855,"x_min":0,"x_max":0,"o":"m 217 1144 b 175 1170 209 1160 193 1170 l 23 1170 b 3 1138 6 1170 -4 1153 l 648 -114 b 674 -130 653 -124 663 -130 b 699 -87 696 -130 710 -107 l 83 1112 l 169 1112 l 800 -114 b 826 -130 805 -124 815 -130 b 851 -87 848 -130 862 -107 z "},"]":{"ha":588,"x_min":0,"x_max":0,"o":"m 256 520 b 285 491 256 504 269 491 l 391 491 l 391 -72 l 163 -72 l 163 0 l 285 0 b 314 29 301 0 314 13 l 314 390 b 285 419 314 406 301 419 b 256 390 269 419 256 406 l 256 58 l 133 58 b 104 29 117 58 104 45 l 104 -101 b 133 -130 104 -117 117 -130 l 420 -130 b 449 -101 436 -130 449 -117 l 449 520 b 420 549 449 536 436 549 l 314 549 l 314 1011 b 285 1040 314 1027 301 1040 l 163 1040 l 163 1112 l 391 1112 l 391 650 b 420 621 391 634 404 621 b 449 650 436 621 449 634 l 449 1141 b 420 1170 449 1157 436 1170 l 133 1170 b 104 1141 117 1170 104 1157 l 104 1011 b 133 982 104 995 117 982 l 256 982 z "},"^":{"ha":848,"x_min":0,"x_max":0,"o":"m 658 599 l 826 599 b 847 621 838 599 847 610 b 843 634 847 626 846 630 l 538 1044 b 515 1056 533 1051 524 1056 b 491 1009 490 1056 477 1028 l 753 658 l 663 658 l 380 1038 b 345 1056 372 1049 358 1056 l 341 1056 b 306 1038 328 1056 315 1049 l 5 634 b 1 622 2 630 1 626 b 22 599 1 610 10 599 l 190 599 b 228 619 205 599 219 607 l 367 804 b 343 851 381 824 367 851 b 320 839 335 851 326 847 l 185 658 l 95 658 l 343 990 l 619 619 b 658 599 628 607 643 599 z "},"_":{"ha":799,"x_min":0,"x_max":0,"o":"m 0 -128 b 29 -157 0 -144 13 -157 l 740 -157 l 740 -219 l 29 -219 b 0 -249 13 -219 0 -233 b 29 -278 0 -265 13 -278 l 769 -278 b 799 -249 785 -278 799 -265 l 799 -128 b 769 -99 799 -112 785 -99 l 29 -99 b 0 -128 13 -99 0 -112 z "},"`":{"ha":477,"x_min":0,"x_max":0,"o":"m 394 1128 b 415 1149 406 1128 415 1138 b 411 1162 415 1153 414 1158 l 265 1369 b 240 1382 259 1377 250 1382 b 211 1353 224 1382 211 1368 b 217 1336 211 1347 213 1341 l 323 1186 l 252 1186 l 122 1369 b 98 1382 117 1377 108 1382 b 69 1353 81 1382 69 1368 b 74 1336 69 1347 71 1341 l 207 1149 b 247 1128 216 1135 231 1128 z "},"a":{"ha":1031,"x_min":0,"x_max":0,"o":"m 586 1040 l 443 1040 b 402 1012 424 1040 408 1029 l 190 428 b 213 397 185 413 196 397 l 667 397 b 689 428 683 397 694 413 l 535 853 b 515 867 531 862 523 867 b 494 853 506 867 498 863 l 392 573 b 420 534 385 554 400 534 b 447 553 432 534 443 542 l 515 738 l 617 455 l 262 455 l 453 982 l 576 982 l 912 58 l 823 58 l 740 289 b 699 317 733 306 717 317 l 180 317 b 139 289 161 317 145 306 l 46 32 b 68 0 40 17 51 0 l 216 0 b 257 28 235 0 251 12 l 298 141 b 270 180 305 160 290 180 b 243 161 258 180 247 172 l 206 58 l 117 58 l 190 259 l 688 259 l 772 28 b 813 0 778 12 794 0 l 961 0 b 983 32 978 0 989 17 l 627 1012 b 586 1040 621 1029 605 1040 z "},"b":{"ha":983,"x_min":0,"x_max":0,"o":"m 637 631 b 660 653 647 638 652 643 b 691 756 680 681 691 715 b 500 903 691 824 641 903 l 314 903 b 285 874 298 903 285 890 l 285 478 b 314 449 285 462 298 449 l 533 449 b 685 319 637 449 685 388 b 549 196 685 253 646 196 l 343 196 l 343 340 b 314 369 343 356 331 369 b 285 340 298 369 285 356 l 285 167 b 314 138 285 151 298 138 l 549 138 b 743 319 683 138 743 225 b 533 507 743 426 663 507 l 343 507 l 343 844 l 500 844 b 633 756 577 844 633 815 b 510 644 633 680 581 644 l 460 644 b 431 615 444 644 431 631 b 460 586 431 599 444 586 l 513 586 b 831 311 688 586 831 506 b 547 58 831 176 731 58 l 197 58 l 197 982 l 506 982 b 776 768 673 982 776 881 b 767 690 776 738 773 711 b 795 653 763 671 776 653 b 824 674 808 653 820 660 b 834 768 831 700 834 731 b 506 1040 834 908 710 1040 l 168 1040 b 139 1011 152 1040 139 1027 l 139 29 b 168 0 139 13 152 0 l 547 0 b 889 311 758 0 889 139 b 637 631 889 483 792 592 z "},"c":{"ha":928,"x_min":0,"x_max":0,"o":"m 797 242 b 759 252 790 256 772 260 b 548 181 696 213 628 181 b 301 413 401 181 325 290 b 272 437 298 427 285 437 b 243 402 253 437 240 420 b 548 123 274 251 372 123 b 760 185 631 123 701 151 l 799 110 b 542 44 717 65 635 44 b 145 511 276 44 145 265 l 145 515 l 263 515 b 291 543 278 515 291 528 b 534 860 295 701 382 860 b 730 794 622 860 669 835 b 767 803 742 785 759 790 l 838 930 b 828 967 844 942 841 959 b 530 1056 744 1026 652 1056 b 106 689 301 1056 156 890 b 134 653 101 671 115 653 b 163 675 147 653 159 662 b 530 997 206 851 331 997 b 773 934 625 997 701 978 l 733 862 b 534 918 676 897 622 918 b 234 574 353 918 249 748 l 116 574 b 87 545 100 574 87 561 l 87 511 b 542 -15 87 219 253 -15 b 853 74 669 -15 767 22 b 864 113 867 82 871 99 z "},"d":{"ha":1019,"x_min":0,"x_max":0,"o":"m 467 1040 l 168 1040 b 139 1011 151 1040 139 1027 b 168 982 139 995 151 982 l 467 982 b 874 521 747 982 874 784 b 457 58 874 240 710 58 l 197 58 l 197 844 l 467 844 b 728 521 633 844 728 730 b 467 196 728 326 625 196 l 343 196 l 343 737 b 314 766 343 753 330 766 b 285 737 297 766 285 753 l 285 167 b 314 138 285 151 297 138 l 467 138 b 786 521 658 138 786 292 b 467 903 786 760 667 903 l 168 903 b 139 874 151 903 139 890 l 139 29 b 168 0 139 13 151 0 l 457 0 b 932 521 742 0 932 208 b 467 1040 932 855 747 1040 z "},"e":{"ha":887,"x_min":0,"x_max":0,"o":"m 343 196 l 343 585 l 699 585 l 699 506 l 460 506 b 431 477 444 506 431 493 b 460 448 431 461 444 448 l 728 448 b 757 477 744 448 757 461 l 757 615 b 728 644 757 631 744 644 l 314 644 b 285 615 298 644 285 631 l 285 167 b 314 138 285 151 298 138 l 724 138 l 724 58 l 197 58 l 197 982 l 715 982 l 715 903 l 314 903 b 285 874 298 903 285 890 l 285 752 b 314 723 285 736 298 723 b 343 752 331 723 343 736 l 343 844 l 744 844 b 773 874 760 844 773 858 l 773 1011 b 744 1040 773 1027 760 1040 l 168 1040 b 139 1011 152 1040 139 1027 l 139 29 b 168 0 139 13 152 0 l 753 0 b 783 29 770 0 783 13 l 783 167 b 753 196 783 183 770 196 z "},"f":{"ha":831,"x_min":0,"x_max":0,"o":"m 715 1040 l 168 1040 b 139 1011 152 1040 139 1028 l 139 615 b 168 585 139 599 152 585 l 596 585 l 596 506 l 168 506 b 139 477 152 506 139 494 l 139 29 b 168 0 139 13 152 0 l 314 0 b 343 29 330 0 343 13 l 343 340 b 314 369 343 357 330 369 b 285 340 298 369 285 357 l 285 58 l 197 58 l 197 448 l 625 448 b 654 477 641 448 654 461 l 654 615 b 625 644 654 631 641 644 l 197 644 l 197 982 l 685 982 l 685 903 l 314 903 b 285 874 298 903 285 890 l 285 752 b 314 723 285 736 298 723 b 343 752 330 723 343 736 l 343 844 l 715 844 b 744 874 731 844 744 858 l 744 1011 b 715 1040 744 1028 731 1040 z "},"g":{"ha":1002,"x_min":0,"x_max":0,"o":"m 898 544 b 869 573 898 560 885 573 l 543 573 b 514 544 527 573 514 560 l 514 406 b 543 377 514 390 527 377 l 840 377 l 840 128 b 544 44 751 72 654 44 b 145 521 271 44 145 274 l 145 531 b 535 997 145 759 283 997 b 779 934 631 997 706 978 l 739 862 b 540 918 681 897 627 918 b 233 531 342 918 233 719 l 233 521 b 542 123 233 320 330 123 b 722 158 609 123 670 136 l 728 160 b 752 198 743 167 752 182 l 752 269 b 723 299 752 285 739 299 b 694 269 707 299 694 285 l 694 209 b 542 181 658 194 604 181 b 291 521 357 181 291 366 l 291 531 b 540 860 291 678 372 860 b 736 794 628 860 676 835 b 773 803 749 785 765 790 l 843 929 b 833 968 850 942 847 959 b 535 1056 749 1026 658 1056 b 87 531 249 1056 87 793 l 87 521 b 544 -15 87 229 247 -15 b 880 84 701 -15 811 39 b 898 118 891 92 898 104 l 898 406 b 869 435 898 422 885 435 l 572 435 l 572 515 l 869 515 b 898 544 885 515 898 528 z "},"h":{"ha":1069,"x_min":0,"x_max":0,"o":"m 901 1040 l 755 1040 b 726 1011 739 1040 726 1027 l 726 644 l 197 644 l 197 982 l 285 982 l 285 753 b 314 724 285 737 298 724 b 343 753 330 724 343 737 l 343 1011 b 314 1040 343 1027 330 1040 l 168 1040 b 139 1011 152 1040 139 1027 l 139 615 b 168 586 139 599 152 586 l 755 586 b 784 615 771 586 784 599 l 784 982 l 872 982 l 872 58 l 784 58 l 784 478 b 755 507 784 494 771 507 l 168 507 b 139 478 152 507 139 494 l 139 29 b 168 0 139 13 152 0 l 314 0 b 343 29 330 0 343 13 l 343 340 b 314 369 343 356 330 369 b 285 340 298 369 285 356 l 285 58 l 197 58 l 197 449 l 726 449 l 726 29 b 755 0 726 13 739 0 l 901 0 b 930 29 917 0 930 13 l 930 1011 b 901 1040 930 1027 917 1040 z "},"i":{"ha":517,"x_min":0,"x_max":0,"o":"m 331 844 b 360 874 347 844 360 858 l 360 1011 b 331 1040 360 1027 347 1040 l 185 1040 b 156 1011 169 1040 156 1027 b 185 982 156 995 169 982 l 302 982 l 302 903 l 185 903 b 156 874 169 903 156 890 l 156 29 b 185 0 156 13 169 0 l 331 0 b 360 29 347 0 360 13 l 360 736 b 331 765 360 752 347 765 b 302 736 315 765 302 752 l 302 58 l 215 58 l 215 844 z "},"j":{"ha":786,"x_min":0,"x_max":0,"o":"m 240 982 l 618 982 b 647 1011 634 982 647 995 b 618 1040 647 1027 634 1040 l 211 1040 b 182 1011 195 1040 182 1027 l 182 874 b 211 844 182 858 195 844 l 589 844 l 589 328 b 357 44 589 178 526 44 b 127 106 263 44 191 63 l 167 178 b 339 123 228 142 286 123 b 501 327 413 123 501 158 l 501 736 b 472 765 501 752 488 765 b 443 736 456 765 443 752 l 443 327 b 339 181 443 226 411 181 b 170 246 281 181 221 210 b 155 251 165 249 160 251 b 132 237 146 251 137 245 l 65 113 b 73 73 57 99 60 82 b 357 -15 142 19 228 -15 b 647 328 550 -15 647 133 l 647 874 b 618 903 647 890 634 903 l 240 903 z "},"k":{"ha":1007,"x_min":0,"x_max":0,"o":"m 944 35 l 508 542 l 907 1006 b 912 1019 910 1010 912 1015 b 891 1040 912 1030 903 1040 l 702 1040 b 656 1019 685 1040 667 1033 l 299 602 b 285 564 290 591 285 578 l 285 58 l 197 58 l 197 982 l 285 982 l 285 788 b 314 759 285 772 298 759 b 343 788 330 759 343 772 l 343 1011 b 314 1040 343 1027 330 1040 l 168 1040 b 139 1011 152 1040 139 1027 l 139 29 b 168 0 139 13 152 0 l 314 0 b 343 29 330 0 343 13 l 343 564 l 701 982 l 810 982 l 448 562 b 440 542 443 556 440 549 b 448 522 440 535 443 528 l 847 58 l 735 58 l 482 355 b 460 365 476 362 468 365 b 431 336 445 365 431 353 b 438 317 431 329 433 322 l 690 22 b 736 0 702 8 719 0 l 928 0 b 949 21 940 0 949 10 b 944 35 949 26 947 31 z "},"l":{"ha":766,"x_min":0,"x_max":0,"o":"m 685 196 l 197 196 l 197 982 l 285 982 l 285 304 b 314 275 285 288 298 275 b 343 304 330 275 343 288 l 343 1011 b 314 1040 343 1027 330 1040 l 168 1040 b 139 1011 152 1040 139 1027 l 139 167 b 168 138 139 151 152 138 l 656 138 l 656 58 l 168 58 b 139 29 152 58 139 45 b 168 0 139 13 152 0 l 685 0 b 714 29 701 0 714 13 l 714 167 b 685 196 714 183 701 196 z "},"m":{"ha":1296,"x_min":0,"x_max":0,"o":"m 1128 1040 l 961 1040 b 921 1017 944 1040 929 1031 l 565 394 l 323 815 b 306 826 319 822 313 826 b 285 805 295 826 285 818 l 285 58 l 197 58 l 197 982 l 328 982 l 541 608 b 566 594 547 599 556 594 b 592 638 588 594 603 618 l 375 1017 b 335 1040 367 1031 351 1040 l 168 1040 b 139 1011 152 1040 139 1027 l 139 29 b 168 0 139 13 152 0 l 314 0 b 343 29 330 0 343 13 l 343 664 l 545 313 b 565 301 550 305 557 301 b 585 313 573 301 581 305 l 968 982 l 1099 982 l 1099 58 l 1011 58 l 1011 805 b 990 826 1011 818 1001 826 b 972 815 983 826 976 822 l 701 344 b 727 301 690 325 705 301 b 752 315 738 301 747 306 l 953 664 l 953 29 b 982 0 953 13 966 0 l 1128 0 b 1157 29 1144 0 1157 13 l 1157 1011 b 1128 1040 1157 1027 1144 1040 z "},"n":{"ha":1107,"x_min":0,"x_max":0,"o":"m 793 1040 b 764 1011 776 1040 764 1027 l 764 359 l 372 1025 b 347 1040 367 1034 358 1040 b 321 996 324 1040 309 1016 l 783 210 b 801 200 788 203 794 200 b 822 221 812 200 822 208 l 822 982 l 910 982 l 910 58 l 776 58 l 207 1023 b 176 1040 200 1033 189 1040 l 168 1040 b 139 1011 151 1040 139 1027 l 139 29 b 168 0 139 13 151 0 l 314 0 b 343 29 330 0 343 13 l 343 501 b 314 531 343 517 330 531 b 285 502 298 531 285 518 l 285 58 l 197 58 l 197 924 l 728 23 b 769 0 737 8 752 0 l 939 0 b 968 29 955 0 968 13 l 968 1011 b 939 1040 968 1027 955 1040 z "},"o":{"ha":1088,"x_min":0,"x_max":0,"o":"m 699 1029 b 660 1001 681 1036 660 1022 b 680 974 660 990 668 978 b 942 521 860 909 942 714 b 544 44 942 283 819 44 b 145 521 268 44 145 283 b 515 997 145 749 260 980 l 515 888 b 544 860 515 872 528 860 b 797 521 728 860 797 667 b 544 181 797 375 729 181 b 291 521 358 181 291 375 b 415 820 291 625 326 756 b 427 843 422 826 427 834 b 398 873 427 860 413 873 b 381 867 392 873 386 871 b 233 521 280 794 233 654 b 544 123 233 329 330 123 b 855 521 758 123 855 329 b 573 917 855 703 766 899 l 573 1026 b 544 1056 573 1042 560 1056 b 87 521 252 1056 87 813 b 544 -15 87 229 251 -15 b 1001 521 835 -15 1001 229 b 699 1029 1001 755 894 958 z "},"p":{"ha":955,"x_min":0,"x_max":0,"o":"m 499 1040 l 168 1040 b 139 1011 151 1040 139 1027 l 139 29 b 168 0 139 13 151 0 l 314 0 b 343 29 330 0 343 13 l 343 488 l 508 488 b 722 699 644 488 722 565 b 518 903 722 825 644 903 l 314 903 b 285 874 297 903 285 890 l 285 654 b 314 625 285 638 297 625 b 343 654 330 625 343 638 l 343 844 l 518 844 b 664 699 612 844 664 792 b 508 546 664 616 628 546 l 314 546 b 285 517 297 546 285 533 l 285 58 l 197 58 l 197 982 l 499 982 b 810 699 779 982 810 785 b 524 408 810 524 701 408 l 460 408 b 431 379 443 408 431 395 b 460 350 431 363 443 350 l 524 350 b 868 699 742 350 868 501 b 499 1040 868 879 760 1040 z "},"q":{"ha":1091,"x_min":0,"x_max":0,"o":"m 544 918 b 233 521 340 918 233 724 b 544 123 233 317 340 123 b 653 142 585 123 621 128 l 869 -101 b 891 -111 874 -108 883 -111 b 910 -103 898 -111 905 -108 l 1012 -12 b 1022 9 1018 -7 1022 1 b 1014 29 1022 16 1019 24 l 782 292 b 760 301 776 299 768 301 b 731 272 745 301 731 290 b 738 253 731 265 733 258 l 951 12 l 893 -40 l 683 197 b 661 207 677 203 669 207 b 647 203 656 207 651 206 b 544 181 619 188 587 181 b 291 521 359 181 291 374 b 544 860 291 667 359 860 b 797 521 728 860 797 667 b 790 442 797 495 794 469 b 802 400 788 427 792 412 l 919 267 b 936 260 924 263 930 260 b 956 274 944 260 953 265 b 1001 521 985 348 1001 433 b 544 1056 1001 813 835 1056 b 87 521 252 1056 87 813 b 544 -15 87 229 252 -15 b 611 -9 567 -15 590 -12 b 635 19 626 -7 635 6 b 601 49 635 38 619 51 b 544 44 583 45 564 44 b 145 521 269 44 145 283 b 544 997 145 758 269 997 b 942 521 819 997 942 758 b 921 354 942 463 935 406 l 849 435 b 855 521 853 463 855 492 b 544 918 855 724 749 918 z "},"r":{"ha":975,"x_min":0,"x_max":0,"o":"m 498 1040 l 168 1040 b 139 1011 152 1040 139 1028 l 139 29 b 168 0 139 13 152 0 l 314 0 b 343 29 330 0 343 13 l 343 469 l 672 20 b 712 0 681 8 696 0 l 890 0 b 913 23 903 0 913 11 b 908 36 913 27 912 32 l 557 510 b 725 710 663 526 725 600 b 508 903 725 827 640 903 l 314 903 b 285 874 298 903 285 890 l 285 672 b 314 643 285 656 298 643 b 343 672 330 643 343 656 l 343 844 l 508 844 b 667 710 605 844 667 798 b 501 564 667 633 629 564 l 490 564 b 467 542 476 564 467 553 b 472 528 467 537 468 532 l 819 58 l 717 58 l 360 544 b 320 564 351 557 336 564 l 314 564 b 285 535 298 564 285 551 l 285 58 l 197 58 l 197 982 l 498 982 b 813 710 688 982 813 878 b 710 490 813 619 778 539 b 697 467 701 485 697 476 b 726 437 697 450 710 437 b 743 442 732 437 738 439 b 871 710 825 500 871 596 b 498 1040 871 895 738 1040 z "},"s":{"ha":873,"x_min":0,"x_max":0,"o":"m 494 638 b 512 612 494 627 501 617 b 728 292 661 543 728 442 b 407 44 728 106 569 44 b 117 110 304 44 215 64 l 147 190 b 407 123 242 145 330 123 b 640 292 610 123 640 229 b 433 561 640 458 530 509 b 290 744 358 602 290 637 b 447 860 290 817 344 860 b 662 806 520 860 588 841 b 673 803 665 804 669 803 b 699 822 684 803 695 810 l 749 957 b 734 993 754 971 749 985 b 447 1056 656 1032 585 1056 b 86 743 258 1056 86 952 b 287 415 86 593 158 483 b 300 412 291 413 296 412 b 329 442 318 412 329 427 b 314 467 329 451 324 461 b 144 743 217 517 144 603 b 447 997 144 912 281 997 b 685 952 565 997 623 981 l 656 872 b 447 918 581 903 515 918 b 232 744 293 918 232 833 b 404 510 232 608 317 557 b 582 292 492 463 582 426 b 407 181 582 215 519 181 b 143 256 322 181 230 213 b 131 259 139 258 135 259 b 104 241 119 259 108 253 l 53 106 b 68 69 48 92 55 76 b 407 -15 166 20 272 -15 b 786 292 627 -15 786 90 b 536 665 786 474 699 590 b 494 638 516 674 494 659 z "},"t":{"ha":851,"x_min":0,"x_max":0,"o":"m 769 1040 l 499 1040 b 469 1011 483 1040 469 1027 l 469 58 l 382 58 l 382 1011 b 353 1040 382 1027 369 1040 l 81 1040 b 52 1011 65 1040 52 1027 l 52 874 b 81 844 52 857 65 844 l 207 844 b 236 874 223 844 236 857 b 207 903 236 890 223 903 l 110 903 l 110 982 l 324 982 l 324 29 b 353 0 324 13 337 0 l 499 0 b 528 29 515 0 528 13 l 528 982 l 740 982 l 740 903 l 644 903 b 615 874 628 903 615 890 b 644 844 615 857 628 844 l 769 844 b 799 874 785 844 799 857 l 799 1011 b 769 1040 799 1027 785 1040 z "},"u":{"ha":1069,"x_min":0,"x_max":0,"o":"m 901 1040 l 755 1040 b 726 1011 739 1040 726 1027 l 726 403 b 657 216 726 313 703 251 b 646 192 650 210 646 202 b 675 163 646 176 660 163 b 692 169 681 163 687 165 b 784 403 744 209 784 279 l 784 982 l 872 982 l 872 403 b 564 44 872 276 831 59 l 564 153 b 535 181 564 169 551 181 b 343 403 405 181 343 256 l 343 1011 b 314 1040 343 1027 330 1040 l 168 1040 b 139 1011 152 1040 139 1027 l 139 403 b 379 10 139 215 216 68 b 418 38 398 3 418 17 b 399 65 418 49 410 60 b 197 403 233 124 197 281 l 197 982 l 285 982 l 285 403 b 506 124 285 183 414 130 l 506 15 b 535 -15 506 -1 519 -15 b 930 403 805 -15 930 164 l 930 1011 b 901 1040 930 1027 917 1040 z "},"v":{"ha":1003,"x_min":0,"x_max":0,"o":"m 742 1011 l 549 467 b 547 456 547 463 547 460 b 576 428 547 441 559 428 b 603 447 588 428 599 434 l 793 982 l 885 982 l 576 120 l 260 1011 b 219 1040 253 1028 237 1040 l 67 1040 b 45 1008 51 1040 40 1024 l 401 19 b 428 0 405 8 416 0 b 457 29 444 0 457 14 b 456 39 457 33 457 35 l 117 982 l 208 982 l 550 18 b 576 0 553 7 564 0 b 601 18 587 0 597 7 l 956 1009 b 934 1040 962 1024 950 1040 l 783 1040 b 742 1011 765 1040 748 1028 z "},"w":{"ha":1567,"x_min":0,"x_max":0,"o":"m 1306 1012 l 1040 315 l 774 1012 b 734 1040 768 1029 752 1040 l 582 1040 b 560 1008 566 1040 554 1024 l 752 505 l 582 58 l 472 58 l 119 982 l 210 982 l 507 203 b 527 190 510 194 519 190 b 547 203 535 190 544 194 l 658 494 b 660 505 659 498 660 501 b 631 533 660 520 647 533 b 603 515 618 533 608 527 l 527 315 l 261 1012 b 221 1040 255 1029 239 1040 l 69 1040 b 47 1008 53 1040 41 1024 l 422 28 b 462 0 428 10 444 0 l 592 0 b 633 28 610 0 627 10 l 806 482 b 810 505 808 490 810 497 b 806 527 810 512 809 519 l 633 982 l 724 982 l 1020 203 b 1040 190 1024 194 1032 190 b 1060 203 1049 190 1057 194 l 1357 982 l 1448 982 l 1095 58 l 985 58 l 887 315 b 860 334 882 328 871 334 b 833 294 839 334 825 313 l 935 28 b 975 0 941 10 957 0 l 1106 0 b 1146 28 1124 0 1140 10 l 1520 1008 b 1499 1040 1526 1024 1515 1040 l 1347 1040 b 1306 1012 1328 1040 1313 1029 z "},"x":{"ha":1003,"x_min":0,"x_max":0,"o":"m 756 0 l 929 0 b 947 33 947 0 956 19 l 622 541 l 921 1007 b 924 1019 924 1011 924 1015 b 903 1040 924 1030 915 1040 l 731 1040 b 689 1017 714 1040 698 1032 l 502 727 l 315 1018 b 273 1040 306 1032 290 1040 l 101 1040 b 79 1019 88 1040 79 1030 b 83 1007 79 1015 81 1010 l 308 658 b 332 644 313 649 322 644 b 361 674 348 644 361 658 b 356 690 361 679 360 685 l 168 982 l 268 982 l 482 650 b 502 640 487 643 494 640 b 522 650 510 640 517 643 l 735 982 l 835 982 l 568 565 b 560 541 563 558 560 549 b 568 517 560 533 563 524 l 862 58 l 761 58 l 437 563 b 417 574 432 571 424 574 b 397 563 409 574 401 571 l 56 33 b 74 0 47 19 57 0 l 247 0 b 289 23 264 0 280 8 l 442 260 b 447 276 445 265 447 271 b 417 306 447 292 433 306 b 393 292 408 306 399 301 l 242 58 l 142 58 l 417 487 l 715 23 b 756 0 724 8 740 0 z "},"y":{"ha":946,"x_min":0,"x_max":0,"o":"m 392 512 l 133 982 l 231 982 l 366 735 b 391 719 372 725 381 719 b 417 763 413 719 428 743 l 278 1016 b 238 1040 270 1031 255 1040 l 72 1040 b 53 1008 56 1040 44 1022 l 371 428 b 392 416 376 420 383 416 b 413 428 399 416 408 420 l 715 982 l 813 982 l 524 455 b 517 425 519 446 517 435 l 517 58 l 429 58 l 429 308 b 400 337 429 324 416 337 b 371 308 384 337 371 324 l 371 29 b 400 0 371 13 384 0 l 546 0 b 575 29 562 0 575 13 l 575 426 l 893 1008 b 874 1040 901 1022 891 1040 l 708 1040 b 667 1016 691 1040 676 1031 z "},"z":{"ha":936,"x_min":0,"x_max":0,"o":"m 356 196 l 817 869 b 820 881 819 873 820 877 b 799 903 820 892 811 903 l 188 903 l 188 982 l 791 982 b 820 1011 807 982 820 995 b 791 1040 820 1027 807 1040 l 159 1040 b 130 1011 143 1040 130 1027 l 130 874 b 159 844 130 858 143 844 l 729 844 l 269 172 b 287 138 259 157 269 138 l 791 138 l 791 58 l 145 58 l 145 138 l 544 720 b 520 766 557 740 544 766 b 496 753 510 766 501 761 l 97 172 b 87 138 90 161 87 150 l 87 29 b 116 0 87 13 100 0 l 820 0 b 849 29 836 0 849 13 l 849 167 b 820 196 849 183 836 196 z "},"{":{"ha":576,"x_min":0,"x_max":0,"o":"m 370 913 b 445 980 370 952 404 974 b 472 1010 460 983 472 995 l 472 1141 b 440 1169 472 1158 457 1171 b 177 940 300 1159 177 1074 l 177 708 b 135 633 177 673 159 649 b 122 609 126 628 122 619 b 151 580 122 592 136 580 b 166 584 158 580 162 582 b 235 708 206 609 235 651 l 235 940 b 413 1108 235 1033 319 1091 l 413 1033 b 312 913 351 1015 312 972 l 312 686 b 256 568 312 656 297 601 l 250 563 b 235 531 240 556 235 544 l 235 510 b 250 478 235 498 240 486 l 256 474 b 312 355 297 440 312 385 l 312 128 b 413 8 312 69 351 25 l 413 -66 b 235 101 319 -49 235 8 l 235 333 b 166 457 235 390 206 432 b 122 432 147 469 122 456 b 135 408 122 422 126 413 b 177 333 159 392 177 368 l 177 101 b 440 -128 177 -32 300 -117 b 472 -99 457 -129 472 -116 l 472 31 b 445 61 472 46 460 58 b 370 128 404 67 370 89 l 370 355 b 293 519 370 399 349 473 l 293 522 b 370 686 349 568 370 642 z "},"|":{"ha":471,"x_min":0,"x_max":0,"o":"m 303 1368 l 168 1368 b 139 1339 152 1368 139 1355 l 139 -249 b 168 -278 139 -265 152 -278 b 197 -249 184 -278 197 -265 l 197 1310 l 274 1310 l 274 -249 b 303 -278 274 -265 287 -278 b 332 -249 319 -278 332 -265 l 332 1339 b 303 1368 332 1355 319 1368 z "},"}":{"ha":576,"x_min":0,"x_max":0,"o":"m 206 686 b 283 522 206 642 226 568 l 283 519 b 206 355 226 473 206 399 l 206 128 b 130 61 206 89 172 67 b 104 31 115 58 104 46 l 104 -99 b 135 -128 104 -116 118 -129 b 399 101 275 -117 399 -32 l 399 333 b 440 408 399 368 416 392 b 454 432 449 413 454 422 b 409 457 454 456 428 469 b 340 333 369 432 340 390 l 340 101 b 163 -66 340 9 257 -49 l 163 8 b 264 128 224 25 264 69 l 264 355 b 319 474 264 385 278 440 l 326 478 b 341 510 335 486 341 498 l 341 531 b 326 563 341 544 335 556 l 319 568 b 264 686 278 601 264 656 l 264 913 b 163 1033 264 972 224 1015 l 163 1108 b 340 940 257 1091 340 1033 l 340 708 b 409 585 340 651 369 610 b 424 580 414 582 417 580 b 454 609 440 580 454 592 b 440 634 454 619 449 628 b 399 708 416 649 399 673 l 399 940 b 135 1169 399 1074 275 1159 b 104 1141 118 1171 104 1158 l 104 1010 b 130 980 104 995 115 983 b 206 913 172 974 206 952 z "},"~":{"ha":1012,"x_min":0,"x_max":0,"o":"m 807 648 b 795 650 803 649 799 650 b 768 635 784 650 774 645 b 669 558 734 578 713 558 b 525 607 624 558 590 574 l 511 614 b 329 662 444 647 392 662 b 65 478 228 662 137 603 b 61 463 63 473 61 468 b 90 434 61 447 74 434 b 115 449 100 434 110 440 b 329 603 188 572 265 603 b 485 562 381 603 424 592 l 503 553 b 669 499 570 519 610 499 b 806 585 737 499 774 537 l 873 558 b 677 427 831 490 767 427 b 521 469 626 427 583 438 l 490 484 b 338 532 431 513 391 532 b 186 429 285 532 240 515 b 182 414 183 424 182 419 b 211 385 182 397 195 385 b 235 398 221 385 230 390 b 338 474 272 455 294 474 b 495 417 385 474 419 453 b 677 369 567 382 617 369 b 942 560 779 369 872 431 b 929 598 949 574 944 592 z "},"":{"ha":0,"x_min":0,"x_max":0,"o":""},"":{"ha":512,"x_min":0,"x_max":0,"o":"m 139 -190 b 168 -219 139 -206 152 -219 l 344 -219 b 373 -190 360 -219 373 -206 l 373 121 l 351 510 b 322 538 350 526 337 538 b 292 508 305 538 292 524 l 315 119 l 315 -161 l 197 -161 l 197 119 l 219 508 b 190 538 220 524 207 538 b 161 510 174 538 162 526 l 139 121 z m 256 624 b 371 740 319 624 371 676 b 338 819 371 771 358 799 b 317 828 333 826 325 828 b 288 799 301 828 288 815 b 297 778 288 792 291 784 b 313 740 306 769 313 755 b 256 683 313 708 287 683 b 199 740 224 683 199 708 b 215 778 199 755 206 769 b 224 799 221 785 224 792 b 194 828 223 815 210 828 b 174 819 187 828 179 826 b 141 740 153 799 141 771 b 256 624 141 676 192 624 z "},"":{"ha":929,"x_min":0,"x_max":0,"o":"m 580 1158 b 572 1178 580 1165 577 1172 b 559 1211 564 1186 559 1198 b 608 1260 559 1238 581 1260 b 657 1211 635 1260 657 1238 b 644 1178 657 1198 652 1186 b 636 1158 639 1172 636 1165 b 665 1128 636 1142 649 1128 b 715 1211 699 1128 715 1185 b 608 1318 715 1270 667 1318 b 501 1211 549 1318 501 1270 b 551 1128 501 1185 518 1128 b 580 1158 567 1128 580 1142 z m 291 1158 b 283 1178 291 1165 288 1172 b 270 1211 275 1186 270 1198 b 319 1260 270 1238 292 1260 b 368 1211 346 1260 368 1238 b 355 1178 368 1198 363 1186 b 347 1158 350 1172 347 1165 b 376 1128 347 1142 360 1128 b 426 1211 410 1128 426 1185 b 319 1318 426 1270 378 1318 b 212 1211 260 1318 212 1270 b 262 1128 212 1185 228 1128 b 291 1158 278 1128 291 1142 z "},"":{"ha":1278,"x_min":0,"x_max":0,"o":"m 821 353 b 783 363 813 367 796 372 b 638 310 731 330 688 310 b 494 435 555 310 511 368 b 465 457 490 449 478 457 b 438 420 447 457 433 439 b 638 252 463 327 526 252 b 785 296 694 252 744 272 l 814 239 b 634 191 756 206 699 191 b 358 515 467 191 358 319 l 456 515 b 484 543 471 515 484 528 b 484 543 484 543 484 543 b 628 731 490 637 540 731 b 763 681 688 731 715 714 b 799 690 774 672 792 677 l 861 800 b 852 837 868 813 864 828 b 625 908 778 890 708 908 b 323 671 469 908 367 803 b 351 632 317 651 331 632 b 378 652 364 632 375 640 b 625 850 415 764 499 850 b 797 804 692 850 745 836 l 765 749 b 628 789 726 774 688 789 b 428 574 513 789 444 685 l 330 574 b 300 547 314 574 300 563 l 300 514 b 634 133 300 286 434 133 b 868 203 714 133 787 152 b 878 242 881 212 885 228 z m 640 1056 b 104 520 344 1056 104 816 b 640 -15 104 225 344 -15 b 1174 520 935 -15 1174 225 b 640 1056 1174 816 935 1056 z m 640 44 b 163 520 376 44 163 258 b 640 997 163 783 376 997 b 1116 520 902 997 1116 783 b 640 44 1116 258 902 44 z "},"":{"ha":879,"x_min":0,"x_max":0,"o":"m 630 403 l 743 252 l 693 215 l 539 420 l 808 776 b 802 817 817 789 815 807 l 703 890 b 663 884 691 900 672 897 l 403 538 b 426 491 388 518 403 491 b 449 503 435 491 444 495 l 692 826 l 744 788 l 480 439 b 474 420 476 433 474 427 b 480 401 474 413 476 407 l 664 156 b 705 151 674 144 692 141 l 801 223 b 807 264 815 233 816 251 l 676 438 b 624 420 659 460 624 447 b 630 403 624 414 626 408 z m 285 403 l 398 252 l 348 215 l 194 420 l 463 776 b 457 817 472 789 470 807 l 358 890 b 318 884 346 900 327 897 l 58 538 b 81 491 43 518 58 491 b 104 503 90 491 99 495 l 347 826 l 399 788 l 135 439 b 128 420 131 433 128 427 b 135 401 128 413 131 407 l 319 156 b 360 151 328 144 347 141 l 456 223 b 462 264 469 233 471 251 l 331 438 b 278 420 314 460 278 447 b 285 403 278 414 281 408 z "},"":{"ha":750,"x_min":0,"x_max":0,"o":""},"":{"ha":767,"x_min":0,"x_max":0,"o":"m 509 837 b 390 938 509 893 473 938 l 309 938 b 280 909 293 938 280 925 l 280 649 b 309 619 280 633 293 619 l 313 619 b 342 649 329 619 342 633 l 342 732 l 376 732 l 440 633 b 465 619 445 624 454 619 l 468 619 b 492 665 492 619 506 645 l 443 738 b 509 837 486 752 509 790 z m 396 789 l 342 789 l 342 881 l 399 881 b 447 837 428 881 447 864 b 396 789 447 813 433 789 z m 384 1056 b 104 776 229 1056 104 931 b 384 497 104 622 229 497 b 663 776 538 497 663 622 b 384 1056 663 931 538 1056 z m 384 555 b 163 776 262 555 163 654 b 384 997 163 898 262 997 b 605 776 506 997 605 898 b 384 555 605 654 506 555 z "},"":{"ha":477,"x_min":0,"x_max":0,"o":"m 83 1128 l 230 1128 b 270 1149 246 1128 261 1135 l 402 1336 b 407 1353 406 1342 407 1347 b 378 1382 407 1368 396 1382 b 355 1370 369 1382 360 1378 l 225 1186 l 154 1186 l 260 1336 b 266 1353 264 1342 266 1347 b 236 1382 266 1368 253 1382 b 213 1369 227 1382 218 1378 l 66 1162 b 62 1149 63 1158 62 1153 b 83 1128 62 1138 71 1128 z "},"":{"ha":879,"x_min":0,"x_max":0,"o":"m 250 324 b 256 342 254 329 256 335 b 203 359 256 369 220 382 l 73 185 b 78 144 63 172 65 154 l 175 72 b 216 78 188 63 206 65 l 400 323 b 406 342 404 328 406 335 b 399 360 406 349 404 355 l 136 709 l 188 747 l 430 424 b 453 413 436 417 444 413 b 476 459 477 413 491 440 l 217 806 b 176 812 207 818 189 822 l 78 738 b 72 697 65 728 63 710 l 341 342 l 187 136 l 137 174 z m 595 324 b 601 342 599 329 601 335 b 549 359 601 369 565 382 l 418 185 b 424 144 408 172 410 154 l 520 72 b 561 78 533 63 551 65 l 745 323 b 751 342 749 328 751 335 b 744 360 751 349 749 355 l 481 709 l 533 747 l 775 424 b 799 413 781 417 790 413 b 822 459 822 413 836 440 l 562 806 b 522 812 552 818 534 822 l 423 738 b 417 697 410 728 408 710 l 686 342 l 532 136 l 482 174 z "},"":{"ha":1029,"x_min":0,"x_max":0,"o":"m 622 1024 b 673 1141 653 1051 673 1095 b 515 1299 673 1228 602 1299 b 356 1141 427 1299 356 1228 b 407 1024 356 1095 376 1053 l 190 428 b 213 397 185 413 196 397 l 667 397 b 689 428 683 397 694 413 l 535 852 b 515 867 531 862 523 867 b 494 852 506 867 498 862 l 392 573 b 420 534 385 554 400 534 b 447 553 432 534 443 542 l 515 738 l 617 455 l 262 455 l 469 1024 b 471 1034 470 1028 471 1031 b 458 1058 471 1044 466 1053 b 415 1141 432 1076 415 1106 b 515 1241 415 1196 460 1241 b 615 1141 570 1241 615 1196 b 572 1058 615 1106 598 1076 b 558 1034 563 1053 558 1044 b 560 1024 558 1031 559 1027 l 912 58 l 824 58 l 740 289 b 699 317 733 306 717 317 l 181 317 b 140 289 162 317 146 306 l 46 32 b 68 0 40 16 51 0 l 217 0 b 258 28 235 0 251 11 l 299 141 b 271 180 306 160 291 180 b 244 161 259 180 248 172 l 206 58 l 117 58 l 191 259 l 688 259 l 772 28 b 813 0 778 11 794 0 l 961 0 b 983 32 978 0 989 16 z "},"":{"ha":1393,"x_min":0,"x_max":0,"o":"m 874 196 l 874 340 b 845 369 874 356 861 369 b 816 340 829 369 816 356 l 816 167 b 845 138 816 151 829 138 l 1231 138 l 1231 58 l 728 58 l 728 340 b 699 369 728 356 715 369 l 368 369 b 328 342 351 369 335 359 l 214 58 l 122 58 l 495 982 l 1221 982 l 1221 903 l 845 903 b 816 874 829 903 816 890 l 816 615 b 845 586 816 599 829 586 l 1205 586 l 1205 507 l 456 507 l 592 844 l 670 844 l 670 615 b 699 586 670 599 683 586 b 728 615 715 586 728 599 l 728 874 b 699 903 728 890 715 903 l 582 903 b 542 876 565 903 549 892 l 383 481 b 405 449 377 465 388 449 l 1234 449 b 1263 478 1250 449 1263 462 l 1263 615 b 1234 644 1263 631 1250 644 l 874 644 l 874 844 l 1250 844 b 1279 874 1266 844 1279 858 l 1279 1011 b 1250 1040 1279 1027 1266 1040 l 485 1040 b 445 1013 468 1040 452 1030 l 49 33 b 70 0 42 17 53 0 l 224 0 b 264 27 241 0 257 10 l 378 311 l 670 311 l 670 29 b 699 0 670 13 683 0 l 1260 0 b 1289 29 1276 0 1289 13 l 1289 167 b 1260 196 1289 183 1276 196 z "},"":{"ha":928,"x_min":0,"x_max":0,"o":"m 864 113 l 797 242 b 759 252 790 256 772 260 b 548 181 696 213 628 181 b 300 414 401 181 326 290 b 272 437 297 427 286 437 b 243 402 253 437 240 420 b 548 123 274 251 372 123 b 760 185 631 123 701 151 l 799 110 b 586 46 731 73 664 53 b 565 15 571 44 561 30 b 578 -94 576 -20 582 -58 b 413 -240 569 -183 503 -240 b 327 -235 373 -240 347 -238 l 337 -178 b 406 -184 356 -181 377 -184 b 520 -78 472 -184 520 -144 b 498 25 520 -40 509 -7 b 453 53 490 48 472 49 b 145 511 236 103 145 303 l 145 516 l 263 516 b 291 544 278 516 291 528 b 534 860 296 703 383 860 b 730 794 622 860 669 835 b 767 803 742 785 759 790 l 838 930 b 829 967 844 943 841 959 b 530 1056 744 1026 652 1056 b 106 690 302 1056 156 890 b 134 653 101 671 115 653 b 163 675 148 653 160 663 b 530 997 206 851 331 997 b 773 934 625 997 701 978 l 733 862 b 534 918 676 897 622 918 b 234 574 353 918 249 748 l 116 574 b 87 547 101 574 87 563 l 87 511 b 447 -5 87 253 215 42 b 462 -76 456 -32 463 -57 b 406 -126 462 -108 446 -126 b 319 -115 367 -126 343 -121 b 285 -138 303 -112 288 -122 l 265 -254 b 288 -287 262 -269 272 -285 b 413 -299 312 -293 346 -299 b 637 -101 531 -299 624 -221 b 631 -8 640 -72 638 -40 b 853 74 717 5 788 35 b 864 113 865 83 871 99 z "},"":{"ha":1088,"x_min":0,"x_max":0,"o":"m 1036 1000 l 931 1088 b 913 1094 925 1092 919 1094 b 889 1084 903 1094 894 1091 l 799 976 b 699 1028 768 998 735 1015 b 660 1001 681 1035 660 1022 b 680 974 660 989 668 978 b 785 913 719 960 755 939 b 803 906 790 908 797 906 b 824 916 811 906 819 909 l 915 1025 l 976 974 l 874 853 b 865 829 869 846 866 838 b 871 810 865 823 867 816 b 942 520 919 726 942 622 b 544 44 942 283 819 44 b 301 127 443 44 363 75 b 284 133 297 131 290 133 b 263 124 276 133 268 130 l 172 15 l 111 66 l 213 188 b 222 211 219 194 222 201 b 217 230 222 218 220 224 b 145 520 168 314 145 417 b 515 997 145 749 260 979 l 515 888 b 544 860 515 872 528 860 b 797 520 728 860 797 666 b 544 181 797 374 728 181 b 291 520 358 181 291 374 b 415 819 291 625 326 755 b 427 842 422 824 427 833 b 398 872 427 860 413 872 b 381 866 392 872 385 870 b 233 520 280 793 233 653 b 544 123 233 328 330 123 b 855 520 757 123 855 328 b 573 917 855 703 766 899 l 573 1026 b 544 1056 573 1042 560 1056 b 87 520 252 1056 87 812 b 159 214 87 407 112 301 l 48 81 b 41 62 43 76 41 69 b 51 40 41 54 44 46 l 156 -49 b 175 -55 162 -53 168 -55 b 197 -45 183 -55 192 -51 l 288 63 b 544 -15 356 14 443 -15 b 1001 520 835 -15 1001 228 b 928 826 1001 633 976 739 l 1040 958 b 1047 978 1044 964 1047 971 b 1036 1000 1047 985 1043 994 z "},"":{"ha":928,"x_min":0,"x_max":0,"o":"m 472 903 l 343 903 l 343 1011 b 314 1040 343 1027 330 1040 l 168 1040 b 139 1011 152 1040 139 1027 l 139 331 b 168 301 139 315 152 301 l 481 301 b 695 535 613 301 695 391 b 491 766 695 673 613 766 l 314 766 b 285 737 298 766 285 753 l 285 468 b 314 439 285 452 298 439 b 343 468 330 439 343 452 l 343 708 l 491 708 b 637 535 587 708 637 633 b 481 360 637 449 601 360 l 197 360 l 197 982 l 285 982 l 285 874 b 314 845 285 858 298 845 l 472 845 b 711 751 577 845 658 813 b 783 535 757 697 783 621 b 497 222 783 379 694 222 l 314 222 b 285 193 298 222 285 209 l 285 58 l 197 58 l 197 193 b 168 222 197 209 184 222 b 139 193 152 222 139 209 l 139 29 b 168 0 139 13 152 0 l 314 0 b 343 29 330 0 343 13 l 343 164 l 497 164 b 841 535 720 164 841 336 b 472 903 841 718 737 903 z "},"":{"ha":1001,"x_min":0,"x_max":0,"o":"m 744 554 b 756 531 744 545 749 536 b 856 330 821 485 856 415 b 783 138 856 256 830 188 b 576 58 733 86 661 58 l 515 58 l 515 138 l 576 138 b 768 331 702 138 768 235 b 606 508 768 408 717 487 l 826 831 b 837 864 833 840 837 852 l 837 1011 b 808 1040 837 1027 824 1040 l 168 1040 b 139 1011 152 1040 139 1027 l 139 29 b 168 0 139 13 152 0 l 314 0 b 343 29 330 0 343 13 l 343 844 l 592 844 l 489 692 b 483 676 485 687 483 681 b 513 647 483 660 495 647 b 537 659 522 647 531 651 l 680 869 b 683 881 682 873 683 877 b 662 903 683 892 674 903 l 314 903 b 285 874 298 903 285 890 l 285 58 l 197 58 l 197 982 l 778 982 l 778 864 l 521 488 b 538 457 512 475 522 457 b 710 331 645 457 710 405 b 576 196 710 272 674 196 l 486 196 b 457 167 470 196 457 183 l 457 29 b 486 0 457 13 470 0 l 576 0 b 914 330 789 0 914 151 b 790 578 914 438 867 522 b 773 583 785 582 779 583 b 744 554 757 583 744 570 z "},"":{"ha":1029,"x_min":0,"x_max":0,"o":"m 1022 -138 b 988 -116 1019 -122 1003 -112 b 902 -126 964 -122 940 -126 b 845 -75 860 -126 845 -106 b 863 0 845 -55 852 -28 l 961 0 b 983 32 978 0 989 17 l 627 1012 b 586 1040 621 1029 604 1040 l 442 1040 b 402 1012 424 1040 408 1029 l 190 428 b 212 397 185 413 196 397 l 667 397 b 689 428 683 397 694 413 l 535 853 b 515 867 531 862 523 867 b 494 853 506 867 498 862 l 392 573 b 419 534 385 555 399 534 b 447 553 432 534 443 542 l 515 738 l 617 455 l 262 455 l 453 982 l 576 982 l 912 58 l 845 58 b 810 24 822 58 816 42 b 787 -76 794 -16 787 -46 b 902 -184 787 -144 834 -184 b 970 -179 930 -184 951 -182 l 981 -235 b 895 -240 960 -238 934 -240 b 727 -75 796 -240 727 -173 b 746 28 727 -44 733 -10 b 783 122 746 29 763 74 b 783 167 789 136 789 153 l 740 289 b 699 317 733 306 717 317 l 179 317 b 139 289 161 317 145 306 l 45 32 b 67 0 40 17 51 0 l 216 0 b 257 28 234 0 251 11 l 298 141 b 270 180 305 160 290 180 b 243 161 258 180 247 172 l 206 58 l 117 58 l 190 259 l 688 259 l 729 145 b 703 81 717 114 704 83 b 669 -74 681 24 669 -27 b 895 -299 669 -205 763 -299 b 1020 -288 962 -299 996 -293 b 1043 -254 1035 -285 1046 -269 z "},"":{"ha":1074,"x_min":0,"x_max":0,"o":"m 522 1040 l 223 1040 b 194 1011 207 1040 194 1027 b 223 982 194 995 207 982 l 522 982 b 928 521 802 982 928 783 b 512 58 928 240 765 58 l 252 58 l 252 478 b 223 508 252 494 239 508 l 110 508 l 110 581 l 223 581 b 252 610 239 581 252 594 l 252 844 l 522 844 b 783 521 687 844 783 730 b 521 196 783 326 680 196 l 398 196 l 398 449 l 523 449 b 552 478 539 449 552 463 l 552 610 b 523 639 552 626 539 639 l 398 639 l 398 736 b 369 765 398 752 385 765 b 340 736 353 765 340 752 l 340 610 b 369 581 340 594 353 581 l 494 581 l 494 508 l 369 508 b 340 478 353 508 340 494 l 340 167 b 369 138 340 151 353 138 l 521 138 b 841 521 713 138 841 292 b 522 903 841 760 722 903 l 223 903 b 194 874 207 903 194 890 l 194 639 l 81 639 b 52 610 65 639 52 626 l 52 478 b 81 449 52 463 65 449 l 194 449 l 194 29 b 223 0 194 13 207 0 l 512 0 b 987 521 796 0 987 208 b 522 1040 987 855 801 1040 z "},"":{"ha":886,"x_min":0,"x_max":0,"o":"m 782 29 l 782 167 b 753 196 782 183 769 196 l 343 196 l 343 586 l 698 586 l 698 507 l 460 507 b 431 478 444 507 431 494 b 460 449 431 462 444 449 l 727 449 b 756 478 743 449 756 462 l 756 615 b 727 644 756 632 743 644 l 314 644 b 285 615 298 644 285 632 l 285 167 b 314 138 285 151 298 138 l 724 138 l 724 58 l 579 58 b 546 36 565 58 551 49 l 540 21 b 519 -75 528 -14 519 -46 b 634 -184 519 -143 566 -184 b 703 -178 662 -184 684 -182 l 713 -236 b 627 -240 693 -238 667 -240 b 460 -74 528 -240 460 -173 b 477 24 460 -45 466 -12 b 456 58 483 40 476 58 l 197 58 l 197 982 l 714 982 l 714 903 l 314 903 b 285 874 298 903 285 890 l 285 753 b 314 724 285 737 298 724 b 343 753 330 724 343 737 l 343 844 l 743 844 b 772 874 759 844 772 858 l 772 1011 b 743 1040 772 1028 759 1040 l 168 1040 b 139 1011 152 1040 139 1028 l 139 29 b 168 0 139 13 152 0 l 410 0 b 402 -74 405 -26 402 -50 b 627 -299 402 -204 495 -299 b 752 -287 694 -299 728 -294 b 775 -253 768 -285 778 -269 l 755 -138 b 720 -115 752 -122 736 -112 b 634 -126 696 -121 672 -126 b 578 -75 592 -126 578 -105 b 594 0 578 -55 585 -28 l 753 0 b 782 29 769 0 782 13 z "},"":{"ha":803,"x_min":0,"x_max":0,"o":"m 722 196 l 234 196 l 234 494 b 203 517 234 510 219 522 l 110 489 l 110 559 l 203 588 b 234 629 222 594 234 610 l 234 982 l 322 982 l 322 656 b 352 633 322 640 338 628 l 481 673 l 481 603 l 352 563 b 322 522 334 558 322 541 l 322 303 b 351 274 322 288 335 274 b 380 303 367 274 380 288 l 380 510 l 509 551 b 540 592 527 556 540 573 l 540 719 b 509 742 540 735 524 747 l 380 703 l 380 1011 b 351 1040 380 1028 367 1040 l 205 1040 b 176 1011 189 1040 176 1028 l 176 640 l 83 612 b 52 570 65 606 52 590 l 52 442 b 83 419 52 426 67 415 l 176 448 l 176 167 b 205 138 176 151 189 138 l 693 138 l 693 58 l 205 58 b 176 29 189 58 176 46 b 205 0 176 13 189 0 l 722 0 b 751 29 739 0 751 13 l 751 167 b 722 196 751 183 739 196 z "},"":{"ha":1478,"x_min":0,"x_max":0,"o":"m 1344 196 l 965 196 l 965 449 l 1319 449 b 1348 478 1335 449 1348 462 l 1348 615 b 1319 644 1348 631 1335 644 l 810 644 b 544 918 774 879 634 918 b 233 521 329 918 233 712 b 544 123 233 329 330 123 b 818 478 740 123 818 304 b 789 507 818 494 805 507 b 760 479 773 507 761 499 b 544 181 757 341 710 181 b 291 521 357 181 291 374 b 544 860 291 667 358 860 b 756 613 692 860 741 738 b 786 586 758 598 771 586 l 1290 586 l 1290 507 l 935 507 b 906 478 919 507 906 494 l 906 167 b 935 138 906 151 919 138 l 1315 138 l 1315 58 l 819 58 l 819 126 b 799 146 819 138 809 146 b 785 140 794 146 789 144 b 544 44 724 75 642 44 b 145 521 268 44 145 283 b 544 997 145 758 268 997 b 785 901 642 997 724 966 b 799 895 789 897 794 895 b 819 915 809 895 819 903 l 819 982 l 1306 982 l 1306 903 l 935 903 b 906 874 919 903 906 890 l 906 752 b 935 723 906 736 919 723 b 965 752 951 723 965 736 l 965 844 l 1335 844 b 1364 874 1351 844 1364 858 l 1364 1011 b 1335 1040 1364 1027 1351 1040 l 790 1040 b 760 1011 774 1040 760 1027 l 760 997 b 544 1056 702 1034 630 1056 b 87 521 251 1056 87 813 b 544 -15 87 229 251 -15 b 760 44 630 -15 702 7 l 760 29 b 790 0 760 13 774 0 l 1344 0 b 1374 29 1360 0 1374 13 l 1374 167 b 1344 196 1374 183 1360 196 z "},"":{"ha":999,"x_min":0,"x_max":0,"o":"m 558 1144 b 594 1127 567 1133 580 1127 l 753 1127 b 773 1147 765 1127 773 1137 b 769 1159 773 1151 772 1156 l 601 1371 b 578 1382 595 1378 587 1382 b 555 1335 553 1382 540 1354 l 673 1185 l 600 1185 l 458 1365 b 423 1382 449 1376 436 1382 l 418 1382 b 382 1365 404 1382 391 1376 l 220 1159 b 215 1147 217 1155 215 1151 b 235 1127 215 1137 224 1127 l 394 1127 b 430 1144 408 1127 421 1133 l 444 1162 b 421 1209 458 1181 444 1209 b 398 1198 413 1209 403 1206 l 388 1185 l 315 1185 l 420 1319 z "},"":{"ha":988,"x_min":0,"x_max":0,"o":"m 420 1190 l 315 1324 l 388 1324 l 398 1311 b 421 1300 403 1303 413 1300 b 444 1347 444 1300 458 1328 l 430 1365 b 394 1382 421 1376 408 1382 l 235 1382 b 215 1363 224 1382 215 1372 b 220 1350 215 1358 217 1354 l 382 1144 b 418 1127 391 1133 404 1127 l 423 1127 b 458 1144 436 1127 449 1133 l 600 1324 l 673 1324 l 555 1174 b 578 1127 540 1155 553 1127 b 601 1138 587 1127 595 1131 l 769 1350 b 773 1363 772 1353 773 1358 b 753 1382 773 1372 765 1382 l 594 1382 b 558 1365 580 1382 567 1376 z "},"":{"ha":638,"x_min":0,"x_max":0,"o":"m 291 1158 b 283 1178 291 1165 288 1172 b 270 1211 275 1186 270 1198 b 319 1260 270 1238 292 1260 b 368 1211 346 1260 368 1238 b 355 1178 368 1198 363 1186 b 347 1158 350 1172 347 1165 b 376 1128 347 1142 360 1128 b 398 1138 384 1128 392 1131 b 426 1211 415 1157 426 1183 b 319 1318 426 1270 378 1318 b 212 1211 260 1318 213 1270 b 240 1138 212 1183 222 1158 b 262 1128 246 1131 253 1128 b 291 1158 278 1128 291 1142 z "},"":{"ha":974,"x_min":0,"x_max":0,"o":"m 258 1229 b 399 1276 297 1259 346 1276 b 480 1259 419 1276 449 1269 b 572 1236 510 1249 539 1236 b 664 1265 605 1236 638 1247 l 718 1232 b 572 1181 679 1199 627 1181 b 479 1201 535 1181 509 1188 b 399 1220 454 1210 428 1220 b 312 1195 367 1220 338 1211 b 290 1178 311 1195 303 1190 b 281 1157 283 1173 281 1165 b 309 1128 281 1141 293 1128 b 328 1135 317 1128 324 1130 b 399 1162 347 1151 372 1162 b 485 1136 425 1162 453 1147 b 572 1122 511 1126 542 1122 b 792 1224 656 1122 738 1157 b 797 1239 795 1228 797 1234 b 785 1260 797 1247 792 1256 l 681 1322 b 662 1327 675 1326 668 1327 b 639 1319 653 1327 645 1324 b 572 1294 621 1304 597 1294 b 499 1315 547 1294 525 1306 b 399 1334 467 1325 431 1334 b 184 1238 316 1334 236 1301 b 177 1219 179 1232 177 1226 b 206 1190 177 1203 190 1190 b 229 1201 215 1190 224 1194 b 258 1229 244 1220 256 1228 z "},"":{"ha":999,"x_min":0,"x_max":0,"o":"m 246 1128 l 392 1128 b 432 1149 408 1128 422 1135 l 565 1336 b 571 1353 569 1341 571 1347 b 541 1382 571 1368 558 1382 b 517 1369 531 1382 523 1377 l 387 1186 l 317 1186 l 423 1336 b 428 1353 427 1341 428 1347 b 399 1382 428 1368 416 1382 b 375 1369 390 1382 381 1377 l 228 1162 b 224 1149 225 1158 224 1153 b 246 1128 224 1138 233 1128 z m 543 1128 l 690 1128 b 730 1149 706 1128 721 1135 l 863 1336 b 868 1353 866 1341 868 1347 b 839 1382 868 1368 856 1382 b 815 1369 829 1382 820 1377 l 685 1186 l 614 1186 l 720 1336 b 726 1353 724 1341 726 1347 b 697 1382 726 1368 713 1382 b 672 1369 687 1382 678 1377 l 526 1162 b 522 1149 523 1158 522 1153 b 543 1128 522 1138 531 1128 z "},"":{"ha":887,"x_min":0,"x_max":0,"o":"m 343 196 l 343 585 l 699 585 l 699 506 l 460 506 b 431 477 444 506 431 493 b 460 448 431 461 444 448 l 728 448 b 757 477 744 448 757 461 l 757 615 b 728 644 757 631 744 644 l 314 644 b 285 615 298 644 285 631 l 285 167 b 314 138 285 151 298 138 l 724 138 l 724 58 l 197 58 l 197 982 l 715 982 l 715 903 l 314 903 b 285 874 298 903 285 890 l 285 752 b 314 723 285 736 298 723 b 343 752 330 723 343 736 l 343 844 l 744 844 b 773 874 760 844 773 858 l 773 1011 b 744 1040 773 1027 760 1040 l 168 1040 b 139 1011 152 1040 139 1027 l 139 29 b 168 0 139 13 152 0 l 753 0 b 783 29 769 0 783 13 l 783 167 b 753 196 783 183 769 196 z m 262 1128 b 291 1158 278 1128 291 1142 b 283 1178 291 1165 288 1172 b 270 1211 275 1187 270 1198 b 319 1260 270 1238 292 1260 b 368 1211 346 1260 368 1238 b 355 1178 368 1198 363 1186 b 347 1158 350 1172 347 1165 b 376 1128 347 1142 360 1128 b 398 1138 384 1128 392 1131 b 426 1211 415 1157 426 1183 b 319 1318 426 1270 378 1318 b 212 1212 260 1318 212 1270 b 240 1138 212 1183 222 1158 b 262 1128 246 1131 253 1128 z m 553 1128 b 582 1158 569 1128 582 1142 b 574 1178 582 1165 579 1172 b 561 1211 566 1187 561 1198 b 610 1260 561 1238 583 1260 b 659 1211 637 1260 659 1238 b 646 1178 659 1198 654 1186 b 638 1158 641 1172 638 1165 b 667 1128 638 1142 651 1128 b 689 1138 675 1128 683 1131 b 717 1211 706 1157 717 1183 b 610 1318 717 1270 669 1318 b 503 1212 551 1318 503 1270 b 531 1138 503 1183 513 1158 b 553 1128 537 1131 544 1128 z "},"":{"ha":935,"x_min":0,"x_max":0,"o":"m 115 507 b 88 478 99 507 87 494 b 543 -15 98 206 240 -15 b 860 79 684 -15 785 32 b 870 118 874 88 878 105 l 801 245 b 764 255 794 258 777 263 b 534 181 696 215 622 181 b 315 349 417 181 346 254 b 287 369 310 361 299 369 b 258 331 267 369 252 350 b 534 123 301 201 401 123 b 765 188 624 123 700 153 l 806 115 b 543 44 739 76 656 44 b 148 449 292 44 167 215 l 602 449 b 631 478 618 449 631 462 l 631 615 b 602 644 631 631 618 644 l 155 644 b 533 997 193 849 313 997 b 772 933 635 997 703 974 l 732 861 b 524 918 681 890 615 918 b 288 767 415 918 338 860 b 313 724 277 747 292 724 b 339 739 324 724 334 730 b 524 860 379 813 434 860 b 730 794 617 860 682 825 b 766 803 742 785 759 790 l 837 930 b 827 968 844 943 840 960 b 533 1056 740 1024 658 1056 b 92 616 276 1056 125 874 b 118 586 90 600 102 586 l 573 586 l 573 507 z "},"":{"ha":517,"x_min":0,"x_max":0,"o":"m 331 844 b 360 874 347 844 360 858 l 360 1011 b 331 1040 360 1027 347 1040 l 185 1040 b 156 1011 169 1040 156 1027 b 185 982 156 995 169 982 l 302 982 l 302 903 l 185 903 b 156 874 169 903 156 890 l 156 29 b 185 0 156 13 169 0 l 331 0 b 360 29 347 0 360 13 l 360 736 b 331 765 360 752 347 765 b 302 736 315 765 302 752 l 302 58 l 215 58 l 215 844 z "},"":{"ha":958,"x_min":0,"x_max":0,"o":"m 261 1187 b 269 1188 264 1187 267 1188 l 375 1220 b 476 1185 403 1198 438 1185 b 576 1220 513 1185 548 1198 l 642 1200 b 476 1130 601 1156 542 1130 b 376 1151 440 1130 406 1138 b 334 1126 357 1160 334 1147 b 351 1099 334 1115 340 1104 b 476 1072 390 1081 432 1072 b 717 1206 572 1072 666 1117 b 721 1219 720 1210 721 1215 b 703 1242 721 1230 714 1239 l 587 1278 b 574 1280 583 1279 578 1280 b 542 1268 562 1280 551 1276 b 476 1243 525 1253 501 1243 b 408 1268 450 1243 426 1253 b 378 1280 400 1276 389 1280 b 364 1278 373 1280 369 1279 l 252 1244 b 232 1216 240 1240 232 1228 b 261 1187 232 1201 245 1187 z m 887 1040 l 730 1040 b 690 1015 713 1040 697 1030 l 528 652 b 556 611 520 633 534 611 b 582 628 566 611 577 617 l 740 982 l 833 982 l 555 369 l 268 1015 b 228 1040 261 1030 246 1040 l 72 1040 b 50 1007 54 1040 43 1022 l 371 297 b 264 181 353 256 315 181 b 186 197 235 181 208 189 b 148 178 170 202 153 194 l 110 47 b 127 11 106 32 113 16 b 273 -15 165 -3 205 -15 b 500 124 388 -15 454 48 b 475 168 511 143 497 168 b 451 155 465 168 456 164 b 273 44 406 84 358 44 b 174 57 229 44 197 49 l 196 133 b 264 123 216 127 238 123 b 424 272 353 123 401 223 l 426 275 b 426 315 432 288 432 302 l 125 982 l 219 982 l 533 274 b 553 260 538 265 546 260 b 575 274 563 260 571 265 l 909 1007 b 887 1040 916 1022 904 1040 z "},"":{"ha":1029,"x_min":0,"x_max":0,"o":"m 586 1040 l 443 1040 b 402 1012 424 1040 408 1029 l 190 428 b 213 397 185 413 196 397 l 667 397 b 689 428 683 397 694 413 l 535 853 b 515 867 531 862 523 867 b 494 853 506 867 498 863 l 392 573 b 420 534 385 554 400 534 b 447 553 432 534 443 542 l 515 738 l 617 455 l 262 455 l 453 982 l 576 982 l 912 58 l 823 58 l 740 289 b 699 317 733 306 717 317 l 180 317 b 139 289 161 317 145 306 l 46 32 b 68 0 40 17 51 0 l 216 0 b 257 28 235 0 251 12 l 298 141 b 270 180 305 160 290 180 b 243 161 258 180 247 172 l 206 58 l 117 58 l 190 259 l 688 259 l 772 28 b 813 0 778 12 794 0 l 961 0 b 983 32 978 0 989 17 l 627 1012 b 586 1040 621 1029 605 1040 z "},"":{"ha":969,"x_min":0,"x_max":0,"o":"m 524 644 l 197 644 l 197 982 l 749 982 l 749 903 l 314 903 b 285 874 298 903 285 890 l 285 752 b 314 723 285 736 298 723 b 343 752 330 723 343 736 l 343 844 l 778 844 b 808 874 794 844 808 858 l 808 1011 b 778 1040 808 1027 794 1040 l 168 1040 b 139 1011 152 1040 139 1027 l 139 615 b 168 586 139 599 152 586 l 524 586 b 824 322 709 586 824 480 b 531 58 824 162 709 58 l 197 58 l 197 449 l 532 449 b 678 322 617 449 678 402 b 531 196 678 227 599 196 l 343 196 l 343 341 b 314 370 343 357 330 370 b 285 341 298 370 285 357 l 285 167 b 314 138 285 151 298 138 l 531 138 b 736 322 653 138 736 212 b 532 507 736 431 652 507 l 168 507 b 139 478 152 507 139 494 l 139 29 b 168 0 139 13 152 0 l 531 0 b 882 322 758 0 882 145 b 524 644 882 501 752 644 z "},"":{"ha":983,"x_min":0,"x_max":0,"o":"m 769 569 b 834 768 814 624 834 697 b 512 1040 834 907 713 1040 l 168 1040 b 139 1011 152 1040 139 1027 l 139 615 b 168 586 139 599 152 586 l 506 586 b 691 756 622 586 691 647 b 501 903 691 825 641 903 l 314 903 b 285 874 298 903 285 890 l 285 753 b 314 724 285 737 298 724 b 343 753 330 724 343 737 l 343 844 l 501 844 b 633 756 578 844 633 815 b 511 644 633 683 592 644 l 197 644 l 197 982 l 512 982 b 776 768 678 982 776 877 b 700 580 776 672 738 617 b 692 563 694 575 692 569 b 705 542 692 555 697 547 b 831 311 781 499 831 426 b 547 58 831 177 731 58 l 197 58 l 197 449 l 533 449 b 685 319 638 449 685 388 b 549 196 685 253 647 196 l 343 196 l 343 341 b 314 370 343 357 330 370 b 285 341 298 370 285 357 l 285 167 b 314 138 285 151 298 138 l 549 138 b 744 319 683 138 744 225 b 533 508 744 426 663 508 l 168 508 b 139 478 152 508 139 494 l 139 29 b 168 0 139 13 152 0 l 547 0 b 890 311 758 0 890 140 b 769 569 890 426 846 513 z "},"":{"ha":765,"x_min":0,"x_max":0,"o":"m 683 1040 l 314 1040 b 285 1011 298 1040 285 1027 l 285 58 l 197 58 l 197 874 b 168 903 197 890 184 903 b 139 874 152 903 139 890 l 139 29 b 168 0 139 13 152 0 l 314 0 b 343 29 330 0 343 13 l 343 982 l 654 982 l 654 903 l 460 903 b 431 874 444 903 431 890 b 460 844 431 857 444 844 l 683 844 b 713 874 699 844 713 857 l 713 1011 b 683 1040 713 1027 699 1040 z "},"":{"ha":1139,"x_min":0,"x_max":0,"o":"m 1076 -215 l 1076 167 b 1047 196 1076 183 1063 196 l 373 196 b 467 603 407 258 467 390 l 467 737 b 438 766 467 753 454 766 b 409 737 422 766 409 753 l 409 603 b 321 222 409 397 349 270 l 292 172 b 289 160 290 168 289 164 b 311 138 289 149 298 138 l 1018 138 l 1018 -186 l 931 -186 l 931 29 b 901 58 931 45 917 58 l 220 58 b 191 29 204 58 191 45 l 191 -186 l 103 -186 l 103 138 l 141 138 b 175 154 154 138 167 144 l 179 160 b 322 611 239 236 322 365 l 322 844 l 749 844 l 749 304 b 778 275 749 288 762 275 l 924 275 b 953 304 940 275 953 288 l 953 1011 b 924 1040 953 1027 940 1040 l 438 1040 b 409 1011 422 1040 409 1027 b 438 982 409 995 422 982 l 894 982 l 894 333 l 807 333 l 807 874 b 778 903 807 890 794 903 l 292 903 b 263 874 276 903 263 890 l 263 611 b 133 196 263 379 188 265 l 74 196 b 45 167 58 196 45 183 l 45 -215 b 74 -244 45 -231 58 -244 l 220 -244 b 249 -215 236 -244 249 -231 l 249 0 l 872 0 l 872 -215 b 901 -244 872 -231 885 -244 l 1047 -244 b 1076 -215 1063 -244 1076 -231 z "},"":{"ha":887,"x_min":0,"x_max":0,"o":"m 343 196 l 343 585 l 699 585 l 699 506 l 460 506 b 431 477 444 506 431 493 b 460 448 431 461 444 448 l 728 448 b 757 477 744 448 757 461 l 757 615 b 728 644 757 631 744 644 l 314 644 b 285 615 298 644 285 631 l 285 167 b 314 138 285 151 298 138 l 724 138 l 724 58 l 197 58 l 197 982 l 715 982 l 715 903 l 314 903 b 285 874 298 903 285 890 l 285 752 b 314 723 285 736 298 723 b 343 752 331 723 343 736 l 343 844 l 744 844 b 773 874 760 844 773 858 l 773 1011 b 744 1040 773 1027 760 1040 l 168 1040 b 139 1011 152 1040 139 1027 l 139 29 b 168 0 139 13 152 0 l 753 0 b 783 29 770 0 783 13 l 783 167 b 753 196 783 183 770 196 z "},"":{"ha":1483,"x_min":0,"x_max":0,"o":"m 969 542 l 1381 1006 b 1386 1019 1385 1010 1386 1015 b 1365 1040 1386 1031 1378 1040 l 1176 1040 b 1128 1019 1158 1040 1140 1033 l 276 58 l 163 58 l 575 522 b 583 542 580 528 583 535 b 575 563 583 549 580 557 l 202 982 l 310 982 l 626 626 b 647 617 632 619 640 617 b 667 626 654 617 661 619 l 685 646 b 698 681 694 656 698 668 l 698 982 l 785 982 l 785 838 b 815 808 785 821 799 808 b 844 838 831 808 844 821 l 844 1011 b 815 1040 844 1027 831 1040 l 669 1040 b 640 1011 653 1040 640 1027 l 640 699 l 356 1019 b 308 1040 344 1033 326 1040 l 119 1040 b 98 1019 106 1040 98 1030 b 103 1006 98 1015 99 1010 l 515 542 l 65 35 b 59 21 60 31 59 26 b 80 0 59 10 67 0 l 275 0 b 322 22 293 0 310 8 l 1174 982 l 1282 982 l 909 563 b 901 542 904 557 901 549 b 909 522 901 535 904 528 l 1320 58 l 1208 58 l 855 457 b 835 466 849 463 842 466 b 815 457 828 466 820 463 l 799 439 b 785 403 790 429 785 417 l 785 58 l 698 58 l 698 249 b 669 277 698 265 685 277 b 640 249 653 277 640 265 l 640 29 b 669 0 640 13 653 0 l 815 0 b 844 29 831 0 844 13 l 844 381 l 1163 22 b 1210 0 1174 8 1192 0 l 1404 0 b 1425 21 1417 0 1425 10 b 1419 35 1425 26 1423 31 z "},"":{"ha":926,"x_min":0,"x_max":0,"o":"m 757 492 b 720 508 747 502 734 508 l 387 508 l 387 587 l 687 587 b 722 601 700 587 713 592 b 784 757 758 638 784 684 b 424 1056 784 916 651 1056 b 115 964 297 1056 205 1029 b 108 925 102 955 99 938 l 181 808 b 217 800 189 796 206 792 b 399 860 265 833 328 860 b 582 752 537 860 579 806 b 611 724 582 736 595 724 b 640 753 627 724 640 737 b 597 856 639 792 624 828 b 399 918 555 897 489 918 b 213 866 324 918 260 893 l 172 932 b 424 997 244 978 317 997 b 726 757 603 997 726 896 b 683 645 726 706 710 673 l 358 645 b 328 616 342 645 328 632 l 328 478 b 358 449 328 463 342 449 l 717 449 b 774 303 752 412 774 360 b 706 142 774 241 750 185 b 426 44 644 78 544 44 b 128 120 288 44 199 78 l 165 192 b 413 123 231 156 315 123 b 687 317 583 123 687 190 b 656 370 687 340 685 370 b 627 337 638 370 624 354 b 628 317 628 331 628 324 b 608 247 628 289 622 266 b 413 181 570 194 482 181 b 163 259 315 181 228 222 b 128 248 151 266 135 261 l 64 123 b 74 85 57 110 61 94 b 426 -15 153 33 257 -15 b 832 303 676 -15 832 126 b 757 492 832 375 806 442 z "},"":{"ha":1094,"x_min":0,"x_max":0,"o":"m 926 1040 l 920 1040 b 890 1023 908 1040 897 1033 l 318 58 l 197 58 l 197 982 l 285 982 l 285 233 b 324 222 285 212 313 204 l 782 996 b 757 1040 794 1015 780 1040 b 732 1026 747 1040 738 1035 l 343 370 l 343 1011 b 314 1040 343 1027 330 1040 l 168 1040 b 139 1011 152 1040 139 1027 l 139 29 b 168 0 139 13 152 0 l 325 0 b 365 23 342 0 356 9 l 897 920 l 897 58 l 809 58 l 809 511 b 779 540 809 527 796 540 b 751 511 763 540 751 527 l 751 29 b 780 0 751 13 764 0 l 926 0 b 955 29 942 0 955 13 l 955 1011 b 926 1040 955 1027 942 1040 z "},"":{"ha":1094,"x_min":0,"x_max":0,"o":"m 333 1188 b 341 1189 335 1188 338 1188 l 447 1221 b 547 1185 474 1199 510 1185 b 647 1221 584 1185 619 1199 l 713 1201 b 547 1131 672 1156 613 1131 b 447 1152 511 1131 477 1138 b 406 1126 428 1161 406 1148 b 422 1099 406 1115 411 1105 b 547 1072 461 1081 503 1072 b 789 1206 644 1072 738 1118 b 792 1220 792 1210 792 1215 b 774 1243 792 1231 785 1240 l 658 1278 b 645 1281 654 1280 649 1281 b 614 1269 634 1281 623 1276 b 547 1244 597 1253 573 1244 b 481 1269 522 1244 497 1253 b 449 1281 472 1276 460 1281 b 435 1278 444 1281 440 1280 l 324 1245 b 303 1217 311 1241 303 1229 b 333 1188 303 1201 317 1188 z m 926 1040 l 920 1040 b 890 1023 908 1040 897 1033 l 318 58 l 197 58 l 197 982 l 285 982 l 285 233 b 324 222 285 212 313 204 l 782 996 b 757 1040 794 1015 780 1040 b 732 1026 747 1040 738 1035 l 343 370 l 343 1011 b 314 1040 343 1027 330 1040 l 168 1040 b 139 1011 152 1040 139 1027 l 139 29 b 168 0 139 13 152 0 l 325 0 b 365 23 342 0 356 9 l 897 920 l 897 58 l 809 58 l 809 511 b 779 540 809 527 796 540 b 751 511 763 540 751 527 l 751 29 b 780 0 751 13 764 0 l 926 0 b 955 29 942 0 955 13 l 955 1011 b 926 1040 955 1027 942 1040 z "},"":{"ha":1007,"x_min":0,"x_max":0,"o":"m 944 35 l 508 542 l 907 1006 b 912 1019 910 1010 912 1015 b 891 1040 912 1030 903 1040 l 702 1040 b 656 1019 685 1040 667 1033 l 299 602 b 285 564 290 591 285 578 l 285 58 l 197 58 l 197 982 l 285 982 l 285 788 b 314 759 285 772 298 759 b 343 788 330 759 343 772 l 343 1011 b 314 1040 343 1027 330 1040 l 168 1040 b 139 1011 152 1040 139 1027 l 139 29 b 168 0 139 13 152 0 l 314 0 b 343 29 330 0 343 13 l 343 564 l 701 982 l 810 982 l 448 562 b 440 542 443 556 440 549 b 448 522 440 535 443 528 l 847 58 l 735 58 l 482 355 b 460 365 476 362 468 365 b 431 336 445 365 431 353 b 438 317 431 329 433 322 l 690 22 b 736 0 702 8 719 0 l 928 0 b 949 21 940 0 949 10 b 944 35 949 26 947 31 z "},"":{"ha":1067,"x_min":0,"x_max":0,"o":"m 899 1040 l 384 1040 b 355 1011 368 1040 355 1027 l 355 417 b 103 56 355 209 264 81 l 103 142 b 267 436 194 165 267 222 l 267 874 b 238 903 267 890 254 903 b 209 874 222 903 209 890 l 209 436 b 70 194 209 233 142 208 b 45 165 56 191 45 179 l 45 24 b 74 -5 45 8 58 -5 b 120 0 83 -5 106 -2 b 413 417 294 31 413 171 l 413 982 l 870 982 l 870 58 l 783 58 l 783 874 b 753 903 783 890 769 903 l 530 903 b 501 874 514 903 501 890 b 530 844 501 858 514 844 l 724 844 l 724 29 b 753 0 724 13 738 0 l 899 0 b 928 29 915 0 928 13 l 928 1011 b 899 1040 928 1027 915 1040 z "},"":{"ha":1296,"x_min":0,"x_max":0,"o":"m 1128 1040 l 961 1040 b 921 1017 944 1040 929 1031 l 565 394 l 323 815 b 306 826 319 822 313 826 b 285 805 295 826 285 818 l 285 58 l 197 58 l 197 982 l 328 982 l 541 608 b 566 594 547 599 556 594 b 592 638 588 594 603 618 l 375 1017 b 335 1040 367 1031 351 1040 l 168 1040 b 139 1011 152 1040 139 1027 l 139 29 b 168 0 139 13 152 0 l 314 0 b 343 29 330 0 343 13 l 343 664 l 545 313 b 565 301 550 305 557 301 b 585 313 573 301 581 305 l 968 982 l 1099 982 l 1099 58 l 1011 58 l 1011 805 b 990 826 1011 818 1001 826 b 972 815 983 826 976 822 l 701 344 b 727 301 690 325 705 301 b 752 315 738 301 747 306 l 953 664 l 953 29 b 982 0 953 13 966 0 l 1128 0 b 1157 29 1144 0 1157 13 l 1157 1011 b 1128 1040 1157 1027 1144 1040 z "},"":{"ha":1069,"x_min":0,"x_max":0,"o":"m 901 1040 l 755 1040 b 726 1011 739 1040 726 1027 l 726 644 l 197 644 l 197 982 l 285 982 l 285 753 b 314 724 285 737 298 724 b 343 753 330 724 343 737 l 343 1011 b 314 1040 343 1027 330 1040 l 168 1040 b 139 1011 152 1040 139 1027 l 139 615 b 168 586 139 599 152 586 l 755 586 b 784 615 771 586 784 599 l 784 982 l 872 982 l 872 58 l 784 58 l 784 478 b 755 507 784 494 771 507 l 168 507 b 139 478 152 507 139 494 l 139 29 b 168 0 139 13 152 0 l 314 0 b 343 29 330 0 343 13 l 343 340 b 314 369 343 356 330 369 b 285 340 298 369 285 356 l 285 58 l 197 58 l 197 449 l 726 449 l 726 29 b 755 0 726 13 739 0 l 901 0 b 930 29 917 0 930 13 l 930 1011 b 901 1040 930 1027 917 1040 z "},"":{"ha":1088,"x_min":0,"x_max":0,"o":"m 699 1029 b 660 1001 681 1036 660 1022 b 680 974 660 990 668 978 b 942 521 860 909 942 714 b 544 44 942 283 819 44 b 145 521 268 44 145 283 b 515 997 145 749 260 980 l 515 888 b 544 860 515 872 528 860 b 797 521 728 860 797 667 b 544 181 797 375 729 181 b 291 521 358 181 291 375 b 415 820 291 625 326 756 b 427 843 422 826 427 834 b 398 873 427 860 413 873 b 381 867 392 873 386 871 b 233 521 280 794 233 654 b 544 123 233 329 330 123 b 855 521 758 123 855 329 b 573 917 855 703 766 899 l 573 1026 b 544 1056 573 1042 560 1056 b 87 521 252 1056 87 813 b 544 -15 87 229 251 -15 b 1001 521 835 -15 1001 229 b 699 1029 1001 755 894 958 z "},"":{"ha":1069,"x_min":0,"x_max":0,"o":"m 901 1040 l 314 1040 b 285 1011 298 1040 285 1027 b 314 982 285 995 298 982 l 872 982 l 872 58 l 784 58 l 784 874 b 755 903 784 890 771 903 l 168 903 b 139 874 152 903 139 890 l 139 29 b 168 0 139 13 152 0 l 314 0 b 343 29 330 0 343 13 l 343 736 b 314 765 343 752 330 765 b 285 736 298 765 285 752 l 285 58 l 197 58 l 197 844 l 726 844 l 726 29 b 755 0 726 13 739 0 l 901 0 b 930 29 917 0 930 13 l 930 1011 b 901 1040 930 1027 917 1040 z "},"":{"ha":955,"x_min":0,"x_max":0,"o":"m 499 1040 l 168 1040 b 139 1011 151 1040 139 1027 l 139 29 b 168 0 139 13 151 0 l 314 0 b 343 29 330 0 343 13 l 343 488 l 508 488 b 722 699 644 488 722 565 b 518 903 722 825 644 903 l 314 903 b 285 874 297 903 285 890 l 285 654 b 314 625 285 638 297 625 b 343 654 330 625 343 638 l 343 844 l 518 844 b 664 699 612 844 664 792 b 508 546 664 616 628 546 l 314 546 b 285 517 297 546 285 533 l 285 58 l 197 58 l 197 982 l 499 982 b 810 699 779 982 810 785 b 524 408 810 524 701 408 l 460 408 b 431 379 443 408 431 395 b 460 350 431 363 443 350 l 524 350 b 868 699 742 350 868 501 b 499 1040 868 879 760 1040 z "},"":{"ha":928,"x_min":0,"x_max":0,"o":"m 797 242 b 759 252 790 256 772 260 b 548 181 696 213 628 181 b 301 413 401 181 325 290 b 272 437 298 427 285 437 b 243 402 253 437 240 420 b 548 123 274 251 372 123 b 760 185 631 123 701 151 l 799 110 b 542 44 717 65 635 44 b 145 511 276 44 145 265 l 145 515 l 263 515 b 291 543 278 515 291 528 b 534 860 295 701 382 860 b 730 794 622 860 669 835 b 767 803 742 785 759 790 l 838 930 b 828 967 844 942 841 959 b 530 1056 744 1026 652 1056 b 106 689 301 1056 156 890 b 134 653 101 671 115 653 b 163 675 147 653 159 662 b 530 997 206 851 331 997 b 773 934 625 997 701 978 l 733 862 b 534 918 676 897 622 918 b 234 574 353 918 249 748 l 116 574 b 87 545 100 574 87 561 l 87 511 b 542 -15 87 219 253 -15 b 853 74 669 -15 767 22 b 864 113 867 82 871 99 z "},"":{"ha":851,"x_min":0,"x_max":0,"o":"m 769 1040 l 499 1040 b 469 1011 483 1040 469 1027 l 469 58 l 382 58 l 382 1011 b 353 1040 382 1027 369 1040 l 81 1040 b 52 1011 65 1040 52 1027 l 52 874 b 81 844 52 857 65 844 l 207 844 b 236 874 223 844 236 857 b 207 903 236 890 223 903 l 110 903 l 110 982 l 324 982 l 324 29 b 353 0 324 13 337 0 l 499 0 b 528 29 515 0 528 13 l 528 982 l 740 982 l 740 903 l 644 903 b 615 874 628 903 615 890 b 644 844 615 857 628 844 l 769 844 b 799 874 785 844 799 857 l 799 1011 b 769 1040 799 1027 785 1040 z "},"":{"ha":958,"x_min":0,"x_max":0,"o":"m 887 1040 l 730 1040 b 690 1015 713 1040 697 1030 l 528 652 b 556 611 520 633 534 611 b 582 628 566 611 577 617 l 740 982 l 833 982 l 555 369 l 268 1015 b 228 1040 261 1030 246 1040 l 72 1040 b 50 1007 54 1040 43 1022 l 371 297 b 264 181 353 256 315 181 b 186 197 235 181 208 189 b 148 178 170 202 153 194 l 110 47 b 127 11 106 32 113 17 b 273 -15 165 -3 205 -15 b 500 124 388 -15 454 48 b 475 168 511 143 497 168 b 451 155 465 168 456 164 b 273 44 406 84 358 44 b 174 57 229 44 197 49 l 196 133 b 264 123 216 127 238 123 b 424 272 353 123 401 223 l 426 275 b 426 315 432 288 432 302 l 125 982 l 219 982 l 533 274 b 553 260 538 265 546 260 b 575 274 563 260 571 265 l 909 1007 b 887 1040 916 1022 904 1040 z "},"":{"ha":1311,"x_min":0,"x_max":0,"o":"m 872 930 b 845 903 858 930 845 918 l 845 757 b 867 728 845 744 854 732 b 1020 530 961 699 1020 645 b 726 306 1020 372 909 326 b 699 276 710 303 699 291 l 699 58 l 612 58 l 612 515 l 728 515 b 758 544 744 515 758 528 l 758 1011 b 728 1040 758 1027 744 1040 l 583 1040 b 553 1011 567 1040 553 1027 l 553 808 b 233 530 455 796 233 767 b 408 283 233 381 319 315 l 408 197 b 145 530 282 233 145 322 b 443 872 145 759 310 842 b 466 900 456 874 466 886 b 431 928 466 919 449 933 b 87 530 239 886 87 764 b 408 136 87 314 219 185 b 440 129 417 134 432 129 b 466 156 454 129 466 141 l 466 303 b 444 332 466 317 457 328 b 291 530 356 359 291 410 b 585 753 291 677 388 734 b 612 783 600 755 612 767 l 612 982 l 699 982 l 699 574 l 583 574 b 553 544 567 574 553 560 l 553 29 b 583 0 553 13 567 0 l 728 0 b 758 29 744 0 758 13 l 758 251 b 1078 530 870 267 1078 297 b 903 777 1078 680 992 746 l 903 863 b 1166 530 1029 826 1166 739 b 868 188 1166 301 1001 218 b 845 160 855 185 845 173 b 881 131 845 141 863 127 b 1224 530 1082 176 1224 306 b 912 921 1224 751 1089 872 b 872 930 901 924 880 930 z "},"":{"ha":1003,"x_min":0,"x_max":0,"o":"m 756 0 l 929 0 b 947 33 947 0 956 19 l 622 541 l 921 1007 b 924 1019 924 1011 924 1015 b 903 1040 924 1030 915 1040 l 731 1040 b 689 1017 714 1040 698 1032 l 502 727 l 315 1018 b 273 1040 306 1032 290 1040 l 101 1040 b 79 1019 88 1040 79 1030 b 83 1007 79 1015 81 1010 l 308 658 b 332 644 313 649 322 644 b 361 674 348 644 361 658 b 356 690 361 679 360 685 l 168 982 l 268 982 l 482 650 b 502 640 487 643 494 640 b 522 650 510 640 517 643 l 735 982 l 835 982 l 568 565 b 560 541 563 558 560 549 b 568 517 560 533 563 524 l 862 58 l 761 58 l 437 563 b 417 574 432 571 424 574 b 397 563 409 574 401 571 l 56 33 b 74 0 47 19 57 0 l 247 0 b 289 23 264 0 280 8 l 442 260 b 447 276 445 265 447 271 b 417 306 447 292 433 306 b 393 292 408 306 399 301 l 242 58 l 142 58 l 417 487 l 715 23 b 756 0 724 8 740 0 z "},"":{"ha":1099,"x_min":0,"x_max":0,"o":"m 1008 196 b 978 167 991 196 978 183 l 978 -187 l 891 -187 l 891 29 b 862 58 891 46 878 58 l 197 58 l 197 982 l 285 982 l 285 167 b 313 138 285 151 297 138 l 862 138 b 891 167 878 138 891 151 l 891 1011 b 862 1040 891 1028 878 1040 l 715 1040 b 687 1011 699 1040 687 1028 l 687 303 b 716 274 687 288 699 274 b 745 303 732 274 745 288 l 745 982 l 833 982 l 833 196 l 343 196 l 343 1011 b 314 1040 343 1028 330 1040 l 167 1040 b 139 1011 151 1040 139 1028 l 139 29 b 167 0 139 13 151 0 l 833 0 l 833 -216 b 861 -245 833 -232 845 -245 l 1008 -245 b 1037 -216 1024 -245 1037 -232 l 1037 167 b 1008 196 1037 183 1024 196 z "},"":{"ha":1013,"x_min":0,"x_max":0,"o":"m 484 494 b 851 545 633 494 770 525 b 874 574 864 549 874 560 l 874 1011 b 844 1040 874 1027 860 1040 l 699 1040 b 669 1011 683 1040 669 1027 l 669 681 b 699 652 669 665 683 652 b 728 681 715 652 728 665 l 728 982 l 815 982 l 815 597 b 484 552 731 577 621 552 b 326 701 372 552 326 624 l 326 1011 b 297 1040 326 1027 313 1040 l 151 1040 b 122 1011 135 1040 122 1027 l 122 708 b 484 356 122 469 298 356 b 815 396 647 356 744 383 l 815 58 l 728 58 l 728 265 b 699 294 728 281 715 294 b 669 265 683 294 669 281 l 669 29 b 699 0 669 13 683 0 l 844 0 b 874 29 860 0 874 13 l 874 439 b 851 463 874 453 864 463 b 819 457 843 463 829 459 b 484 415 740 439 627 415 b 180 708 337 415 180 497 l 180 982 l 267 982 l 267 701 b 484 494 267 598 335 494 z "},"":{"ha":1500,"x_min":0,"x_max":0,"o":"m 1332 1040 l 1186 1040 b 1157 1011 1170 1040 1157 1027 l 1157 196 l 706 196 l 706 982 l 794 982 l 794 304 b 823 275 794 288 807 275 b 852 304 839 275 852 288 l 852 1011 b 823 1040 852 1027 839 1040 l 677 1040 b 648 1011 661 1040 648 1027 l 648 167 b 677 138 648 151 661 138 l 1186 138 b 1215 167 1202 138 1215 151 l 1215 982 l 1303 982 l 1303 58 l 197 58 l 197 982 l 285 982 l 285 167 b 314 138 285 151 298 138 l 531 138 b 560 167 547 138 560 151 b 531 196 560 183 547 196 l 343 196 l 343 1011 b 314 1040 343 1027 330 1040 l 168 1040 b 139 1011 152 1040 139 1027 l 139 29 b 168 0 139 13 152 0 l 1332 0 b 1361 29 1348 0 1361 13 l 1361 1011 b 1332 1040 1361 1027 1348 1040 z "},"":{"ha":1569,"x_min":0,"x_max":0,"o":"m 1478 196 b 1449 167 1462 196 1449 183 l 1449 -186 l 1361 -186 l 1361 29 b 1332 58 1361 45 1348 58 l 197 58 l 197 982 l 285 982 l 285 167 b 314 138 285 151 298 138 l 677 138 b 706 167 693 138 706 151 l 706 982 l 794 982 l 794 167 b 823 138 794 151 807 138 l 1332 138 b 1361 167 1348 138 1361 151 l 1361 1011 b 1332 1040 1361 1027 1348 1040 l 1186 1040 b 1157 1011 1170 1040 1157 1027 l 1157 304 b 1186 275 1157 288 1170 275 b 1215 304 1202 275 1215 288 l 1215 982 l 1303 982 l 1303 196 l 852 196 l 852 1011 b 823 1040 852 1027 839 1040 l 677 1040 b 648 1011 661 1040 648 1027 l 648 196 l 343 196 l 343 1011 b 314 1040 343 1027 330 1040 l 168 1040 b 139 1011 152 1040 139 1027 l 139 29 b 168 0 139 13 152 0 l 1303 0 l 1303 -215 b 1332 -244 1303 -231 1316 -244 l 1478 -244 b 1507 -215 1494 -244 1507 -231 l 1507 167 b 1478 196 1507 183 1494 196 z "},"":{"ha":1042,"x_min":0,"x_max":0,"o":"m 582 656 l 317 656 l 317 874 b 288 903 317 890 303 903 l 93 903 l 93 982 l 404 982 l 404 764 b 433 735 404 748 417 735 b 463 764 449 735 463 748 l 463 1011 b 433 1040 463 1027 449 1040 l 64 1040 b 35 1011 48 1040 35 1027 l 35 874 b 64 844 35 858 48 844 l 258 844 l 258 626 b 288 597 258 610 272 597 l 582 597 b 897 329 780 597 897 497 b 824 140 897 251 872 186 b 576 58 768 87 683 58 l 317 58 l 317 460 l 576 460 b 751 329 697 460 751 412 b 586 196 751 236 683 196 l 463 196 l 463 352 b 433 381 463 368 449 381 b 404 352 417 381 404 368 l 404 167 b 433 138 404 151 417 138 l 586 138 b 810 329 724 138 810 211 b 576 518 810 386 788 518 l 288 518 b 258 489 272 518 258 505 l 258 29 b 288 0 258 13 272 0 l 576 0 b 956 329 837 0 956 150 b 582 656 956 531 810 656 z "},"":{"ha":1268,"x_min":0,"x_max":0,"o":"m 476 656 l 314 656 b 285 626 298 656 285 642 l 285 167 b 314 138 285 151 298 138 l 481 138 b 691 329 615 138 691 208 b 471 518 691 415 653 518 l 460 518 b 431 489 444 518 431 505 b 460 460 431 473 444 460 l 471 460 b 633 329 592 460 633 412 b 481 196 633 236 577 196 l 343 196 l 343 597 l 476 597 b 703 525 573 597 651 572 b 778 329 753 479 778 413 b 710 140 778 275 767 198 b 471 58 657 86 577 58 l 197 58 l 197 982 l 285 982 l 285 764 b 314 735 285 748 298 735 b 343 764 330 735 343 748 l 343 1011 b 314 1040 343 1027 330 1040 l 168 1040 b 139 1011 152 1040 139 1027 l 139 29 b 168 0 139 13 152 0 l 471 0 b 837 329 731 0 837 155 b 476 656 837 531 704 656 z m 1100 1040 l 954 1040 b 925 1011 938 1040 925 1027 l 925 764 b 954 735 925 748 938 735 b 983 764 970 735 983 748 l 983 982 l 1071 982 l 1071 58 l 983 58 l 983 626 b 954 656 983 642 970 656 b 925 626 938 656 925 642 l 925 29 b 954 0 925 13 938 0 l 1100 0 b 1129 29 1116 0 1129 13 l 1129 1011 b 1100 1040 1129 1027 1116 1040 z "},"":{"ha":951,"x_min":0,"x_max":0,"o":"m 490 656 l 460 656 b 431 626 444 656 431 642 b 460 597 431 610 444 597 l 490 597 b 806 329 688 597 806 497 b 731 140 806 251 780 186 b 485 58 676 86 591 58 l 197 58 l 197 982 l 285 982 l 285 489 b 314 460 285 473 298 460 l 485 460 b 660 329 605 460 660 412 b 494 196 660 236 590 196 l 343 196 l 343 352 b 314 381 343 368 330 381 b 285 352 298 381 285 368 l 285 167 b 314 138 285 151 298 138 l 494 138 b 718 329 632 138 718 211 b 484 518 718 386 695 518 l 343 518 l 343 1011 b 314 1040 343 1027 330 1040 l 168 1040 b 139 1011 152 1040 139 1027 l 139 29 b 168 0 139 13 152 0 l 485 0 b 864 329 745 0 864 150 b 490 656 864 531 718 656 z "},"":{"ha":924,"x_min":0,"x_max":0,"o":"m 365 507 l 365 586 l 807 586 b 833 615 823 586 835 599 b 399 1056 808 858 657 1056 b 108 967 274 1056 194 1024 b 99 930 95 959 91 943 l 169 803 b 206 794 176 790 193 785 b 409 860 253 825 315 860 b 592 740 492 860 554 813 b 618 724 597 730 607 724 b 644 766 640 724 653 747 b 409 918 596 861 511 918 b 203 861 319 918 253 890 l 163 933 b 399 997 233 975 298 997 b 771 644 622 997 740 833 l 335 644 b 306 615 319 644 306 631 l 306 478 b 335 449 306 462 319 449 l 776 449 b 390 44 756 220 640 44 b 130 115 278 44 197 75 l 170 188 b 399 123 236 151 310 123 b 667 332 530 123 626 200 b 639 369 672 351 658 369 b 611 349 626 369 615 361 b 399 181 581 254 515 181 b 172 255 312 181 240 214 b 135 245 158 263 142 258 l 65 118 b 75 79 58 105 62 88 b 390 -15 150 32 249 -15 b 837 478 685 -15 825 206 b 809 507 838 494 825 507 z "},"":{"ha":1419,"x_min":0,"x_max":0,"o":"m 875 1056 b 448 644 621 1056 481 872 l 343 644 l 343 1011 b 314 1040 343 1027 330 1040 l 168 1040 b 139 1011 152 1040 139 1027 l 139 29 b 168 0 139 13 152 0 l 314 0 b 343 29 330 0 343 13 l 343 449 l 587 449 b 875 123 607 246 713 123 b 1186 521 1067 123 1186 279 b 875 918 1186 762 1067 918 b 590 619 721 918 616 806 b 619 586 588 601 601 586 b 647 611 633 586 645 597 b 875 860 665 735 727 860 b 1128 521 1063 860 1128 686 b 875 181 1128 356 1063 181 b 643 479 707 181 651 341 b 613 507 642 494 629 507 l 314 507 b 285 478 298 507 285 494 l 285 58 l 197 58 l 197 982 l 285 982 l 285 615 b 314 586 285 599 298 586 l 472 586 b 502 613 488 586 500 597 l 506 636 b 875 997 535 838 653 997 b 1274 521 1158 997 1274 766 b 875 44 1274 265 1151 44 b 516 348 647 44 553 205 b 488 370 513 361 501 370 b 460 333 469 370 455 352 b 875 -15 513 131 646 -15 b 1332 521 1167 -15 1332 210 b 875 1056 1332 830 1167 1056 z "},"":{"ha":975,"x_min":0,"x_max":0,"o":"m 807 1040 l 479 1040 b 104 710 228 1040 104 890 b 334 397 104 553 189 433 l 67 36 b 62 22 63 32 62 27 b 85 0 62 11 72 0 l 263 0 b 302 20 278 0 293 8 l 678 531 b 690 566 686 541 690 553 l 690 874 b 661 903 690 890 677 903 l 467 903 b 250 710 335 903 250 827 b 473 506 250 582 333 506 b 502 535 489 506 502 519 b 473 564 502 551 489 564 b 308 710 347 564 308 633 b 467 844 308 797 370 844 l 632 844 l 632 566 l 258 58 l 156 58 l 410 402 b 415 416 414 406 415 411 b 397 439 415 426 408 437 b 284 478 352 450 315 462 b 163 710 203 524 163 610 b 479 982 163 874 278 982 l 778 982 l 778 58 l 690 58 l 690 321 b 661 350 690 338 677 350 b 632 321 645 350 632 338 l 632 29 b 661 0 632 13 645 0 l 807 0 b 836 29 823 0 836 13 l 836 1011 b 807 1040 836 1027 826 1040 z "},"":{"ha":1029,"x_min":0,"x_max":0,"o":"m 586 1040 l 443 1040 b 402 1012 424 1040 408 1029 l 190 428 b 213 397 185 413 196 397 l 667 397 b 689 428 683 397 694 413 l 535 853 b 515 867 531 862 523 867 b 494 853 506 867 498 863 l 392 573 b 420 534 385 554 400 534 b 447 553 432 534 443 542 l 515 738 l 617 455 l 262 455 l 453 982 l 576 982 l 912 58 l 823 58 l 740 289 b 699 317 733 306 717 317 l 180 317 b 139 289 161 317 145 306 l 46 32 b 68 0 40 17 51 0 l 216 0 b 257 28 235 0 251 12 l 298 141 b 270 180 305 160 290 180 b 243 161 258 180 247 172 l 206 58 l 117 58 l 190 259 l 688 259 l 772 28 b 813 0 778 12 794 0 l 961 0 b 983 32 978 0 989 17 l 627 1012 b 586 1040 621 1029 605 1040 z "},"":{"ha":969,"x_min":0,"x_max":0,"o":"m 524 644 l 197 644 l 197 982 l 749 982 l 749 903 l 314 903 b 285 874 298 903 285 890 l 285 752 b 314 723 285 736 298 723 b 343 752 330 723 343 736 l 343 844 l 778 844 b 808 874 794 844 808 858 l 808 1011 b 778 1040 808 1027 794 1040 l 168 1040 b 139 1011 152 1040 139 1027 l 139 615 b 168 586 139 599 152 586 l 524 586 b 824 322 709 586 824 480 b 531 58 824 162 709 58 l 197 58 l 197 449 l 532 449 b 678 322 617 449 678 402 b 531 196 678 227 599 196 l 343 196 l 343 341 b 314 370 343 357 330 370 b 285 341 298 370 285 357 l 285 167 b 314 138 285 151 298 138 l 531 138 b 736 322 653 138 736 212 b 532 507 736 431 652 507 l 168 507 b 139 478 152 507 139 494 l 139 29 b 168 0 139 13 152 0 l 531 0 b 882 322 758 0 882 145 b 524 644 882 501 752 644 z "},"":{"ha":983,"x_min":0,"x_max":0,"o":"m 637 631 b 660 653 647 638 652 643 b 691 756 680 681 691 715 b 500 903 691 824 641 903 l 314 903 b 285 874 298 903 285 890 l 285 478 b 314 449 285 462 298 449 l 533 449 b 685 319 637 449 685 388 b 549 196 685 253 646 196 l 343 196 l 343 340 b 314 369 343 356 331 369 b 285 340 298 369 285 356 l 285 167 b 314 138 285 151 298 138 l 549 138 b 743 319 683 138 743 225 b 533 507 743 426 663 507 l 343 507 l 343 844 l 500 844 b 633 756 577 844 633 815 b 510 644 633 680 581 644 l 460 644 b 431 615 444 644 431 631 b 460 586 431 599 444 586 l 513 586 b 831 311 688 586 831 506 b 547 58 831 176 731 58 l 197 58 l 197 982 l 506 982 b 776 768 673 982 776 881 b 767 690 776 738 773 711 b 795 653 763 671 776 653 b 824 674 808 653 820 660 b 834 768 831 700 834 731 b 506 1040 834 908 710 1040 l 168 1040 b 139 1011 152 1040 139 1027 l 139 29 b 168 0 139 13 152 0 l 547 0 b 889 311 758 0 889 139 b 637 631 889 483 792 592 z "},"":{"ha":765,"x_min":0,"x_max":0,"o":"m 683 1040 l 314 1040 b 285 1011 298 1040 285 1027 l 285 58 l 197 58 l 197 874 b 168 903 197 890 184 903 b 139 874 152 903 139 890 l 139 29 b 168 0 139 13 152 0 l 314 0 b 343 29 330 0 343 13 l 343 982 l 654 982 l 654 903 l 460 903 b 431 874 444 903 431 890 b 460 844 431 857 444 844 l 683 844 b 713 874 699 844 713 857 l 713 1011 b 683 1040 713 1027 699 1040 z "},"":{"ha":1139,"x_min":0,"x_max":0,"o":"m 1076 -215 l 1076 167 b 1047 196 1076 183 1063 196 l 373 196 b 467 603 407 258 467 390 l 467 737 b 438 766 467 753 454 766 b 409 737 422 766 409 753 l 409 603 b 321 222 409 397 349 270 l 292 172 b 289 160 290 168 289 164 b 311 138 289 149 298 138 l 1018 138 l 1018 -186 l 931 -186 l 931 29 b 901 58 931 45 917 58 l 220 58 b 191 29 204 58 191 45 l 191 -186 l 103 -186 l 103 138 l 141 138 b 175 154 154 138 167 144 l 179 160 b 322 611 239 236 322 365 l 322 844 l 749 844 l 749 304 b 778 275 749 288 762 275 l 924 275 b 953 304 940 275 953 288 l 953 1011 b 924 1040 953 1027 940 1040 l 438 1040 b 409 1011 422 1040 409 1027 b 438 982 409 995 422 982 l 894 982 l 894 333 l 807 333 l 807 874 b 778 903 807 890 794 903 l 292 903 b 263 874 276 903 263 890 l 263 611 b 133 196 263 379 188 265 l 74 196 b 45 167 58 196 45 183 l 45 -215 b 74 -244 45 -231 58 -244 l 220 -244 b 249 -215 236 -244 249 -231 l 249 0 l 872 0 l 872 -215 b 901 -244 872 -231 885 -244 l 1047 -244 b 1076 -215 1063 -244 1076 -231 z "},"":{"ha":887,"x_min":0,"x_max":0,"o":"m 343 196 l 343 585 l 699 585 l 699 506 l 460 506 b 431 477 444 506 431 493 b 460 448 431 461 444 448 l 728 448 b 757 477 744 448 757 461 l 757 615 b 728 644 757 631 744 644 l 314 644 b 285 615 298 644 285 631 l 285 167 b 314 138 285 151 298 138 l 724 138 l 724 58 l 197 58 l 197 982 l 715 982 l 715 903 l 314 903 b 285 874 298 903 285 890 l 285 752 b 314 723 285 736 298 723 b 343 752 331 723 343 736 l 343 844 l 744 844 b 773 874 760 844 773 858 l 773 1011 b 744 1040 773 1027 760 1040 l 168 1040 b 139 1011 152 1040 139 1027 l 139 29 b 168 0 139 13 152 0 l 753 0 b 783 29 770 0 783 13 l 783 167 b 753 196 783 183 770 196 z "},"":{"ha":1483,"x_min":0,"x_max":0,"o":"m 969 542 l 1381 1006 b 1386 1019 1385 1010 1386 1015 b 1365 1040 1386 1031 1378 1040 l 1176 1040 b 1128 1019 1158 1040 1140 1033 l 276 58 l 163 58 l 575 522 b 583 542 580 528 583 535 b 575 563 583 549 580 557 l 202 982 l 310 982 l 626 626 b 647 617 632 619 640 617 b 667 626 654 617 661 619 l 685 646 b 698 681 694 656 698 668 l 698 982 l 785 982 l 785 838 b 815 808 785 821 799 808 b 844 838 831 808 844 821 l 844 1011 b 815 1040 844 1027 831 1040 l 669 1040 b 640 1011 653 1040 640 1027 l 640 699 l 356 1019 b 308 1040 344 1033 326 1040 l 119 1040 b 98 1019 106 1040 98 1030 b 103 1006 98 1015 99 1010 l 515 542 l 65 35 b 59 21 60 31 59 26 b 80 0 59 10 67 0 l 275 0 b 322 22 293 0 310 8 l 1174 982 l 1282 982 l 909 563 b 901 542 904 557 901 549 b 909 522 901 535 904 528 l 1320 58 l 1208 58 l 855 457 b 835 466 849 463 842 466 b 815 457 828 466 820 463 l 799 439 b 785 403 790 429 785 417 l 785 58 l 698 58 l 698 249 b 669 277 698 265 685 277 b 640 249 653 277 640 265 l 640 29 b 669 0 640 13 653 0 l 815 0 b 844 29 831 0 844 13 l 844 381 l 1163 22 b 1210 0 1174 8 1192 0 l 1404 0 b 1425 21 1417 0 1425 10 b 1419 35 1425 26 1423 31 z "},"":{"ha":926,"x_min":0,"x_max":0,"o":"m 757 492 b 720 508 747 502 734 508 l 387 508 l 387 587 l 687 587 b 722 601 700 587 713 592 b 784 757 758 638 784 684 b 424 1056 784 916 651 1056 b 115 964 297 1056 205 1029 b 108 925 102 955 99 938 l 181 808 b 217 800 189 796 206 792 b 399 860 265 833 328 860 b 582 752 537 860 579 806 b 611 724 582 736 595 724 b 640 753 627 724 640 737 b 597 856 639 792 624 828 b 399 918 555 897 489 918 b 213 866 324 918 260 893 l 172 932 b 424 997 244 978 317 997 b 726 757 603 997 726 896 b 683 645 726 706 710 673 l 358 645 b 328 616 342 645 328 632 l 328 478 b 358 449 328 463 342 449 l 717 449 b 774 303 752 412 774 360 b 706 142 774 241 750 185 b 426 44 644 78 544 44 b 128 120 288 44 199 78 l 165 192 b 413 123 231 156 315 123 b 687 317 583 123 687 190 b 656 370 687 340 685 370 b 627 337 638 370 624 354 b 628 317 628 331 628 324 b 608 247 628 289 622 266 b 413 181 570 194 482 181 b 163 259 315 181 228 222 b 128 248 151 266 135 261 l 64 123 b 74 85 57 110 61 94 b 426 -15 153 33 257 -15 b 832 303 676 -15 832 126 b 757 492 832 375 806 442 z "},"":{"ha":1094,"x_min":0,"x_max":0,"o":"m 926 1040 l 920 1040 b 890 1023 908 1040 897 1033 l 318 58 l 197 58 l 197 982 l 285 982 l 285 233 b 324 222 285 212 313 204 l 782 996 b 757 1040 794 1015 780 1040 b 732 1026 747 1040 738 1035 l 343 370 l 343 1011 b 314 1040 343 1027 330 1040 l 168 1040 b 139 1011 152 1040 139 1027 l 139 29 b 168 0 139 13 152 0 l 325 0 b 365 23 342 0 356 9 l 897 920 l 897 58 l 809 58 l 809 511 b 781 540 809 527 797 540 b 751 511 764 541 751 528 l 751 29 b 780 0 751 13 764 0 l 926 0 b 955 29 942 0 955 13 l 955 1011 b 926 1040 955 1027 942 1040 z "},"":{"ha":1094,"x_min":0,"x_max":0,"o":"m 333 1188 b 341 1189 335 1188 338 1188 l 447 1221 b 547 1185 474 1199 510 1185 b 647 1221 584 1185 619 1199 l 713 1201 b 547 1131 672 1156 613 1131 b 447 1152 511 1131 477 1138 b 406 1126 428 1161 406 1148 b 422 1099 406 1115 411 1105 b 547 1072 461 1081 503 1072 b 789 1206 644 1072 738 1118 b 792 1220 792 1210 792 1215 b 774 1243 792 1231 785 1240 l 658 1278 b 645 1281 654 1280 649 1281 b 614 1269 634 1281 623 1276 b 547 1244 597 1253 573 1244 b 481 1269 522 1244 497 1253 b 449 1281 472 1276 460 1281 b 435 1278 444 1281 440 1280 l 324 1245 b 303 1217 311 1241 303 1229 b 333 1188 303 1201 317 1188 z m 926 1040 l 920 1040 b 890 1023 908 1040 897 1033 l 318 58 l 197 58 l 197 982 l 285 982 l 285 233 b 324 222 285 212 313 204 l 782 996 b 757 1040 794 1015 780 1040 b 732 1026 747 1040 738 1035 l 343 370 l 343 1011 b 314 1040 343 1027 330 1040 l 168 1040 b 139 1011 152 1040 139 1027 l 139 29 b 168 0 139 13 152 0 l 325 0 b 365 23 342 0 356 9 l 897 920 l 897 58 l 809 58 l 809 511 b 781 540 809 527 797 540 b 751 511 764 541 751 528 l 751 29 b 780 0 751 13 764 0 l 926 0 b 955 29 942 0 955 13 l 955 1011 b 926 1040 955 1027 942 1040 z "},"":{"ha":1007,"x_min":0,"x_max":0,"o":"m 944 35 l 508 542 l 907 1006 b 912 1019 910 1010 912 1015 b 891 1040 912 1030 903 1040 l 702 1040 b 656 1019 685 1040 667 1033 l 299 602 b 285 564 290 591 285 578 l 285 58 l 197 58 l 197 982 l 285 982 l 285 788 b 314 759 285 772 298 759 b 343 788 330 759 343 772 l 343 1011 b 314 1040 343 1027 330 1040 l 168 1040 b 139 1011 152 1040 139 1027 l 139 29 b 168 0 139 13 152 0 l 314 0 b 343 29 330 0 343 13 l 343 564 l 701 982 l 810 982 l 448 562 b 440 542 443 556 440 549 b 448 522 440 535 443 528 l 847 58 l 735 58 l 482 355 b 460 365 476 362 468 365 b 431 336 445 365 431 353 b 438 317 431 329 433 322 l 690 22 b 736 0 702 8 719 0 l 928 0 b 949 21 940 0 949 10 b 944 35 949 26 947 31 z "},"":{"ha":1067,"x_min":0,"x_max":0,"o":"m 899 1040 l 384 1040 b 355 1011 368 1040 355 1027 l 355 417 b 103 56 355 209 264 81 l 103 142 b 267 436 194 165 267 222 l 267 874 b 238 903 267 890 254 903 b 209 874 222 903 209 890 l 209 436 b 70 194 209 233 142 208 b 45 165 56 191 45 179 l 45 24 b 74 -5 45 8 58 -5 b 120 0 83 -5 106 -2 b 413 417 294 31 413 171 l 413 982 l 870 982 l 870 58 l 783 58 l 783 874 b 753 903 783 890 769 903 l 530 903 b 501 874 514 903 501 890 b 530 844 501 858 514 844 l 724 844 l 724 29 b 753 0 724 13 738 0 l 899 0 b 928 29 915 0 928 13 l 928 1011 b 899 1040 928 1027 915 1040 z "},"":{"ha":1296,"x_min":0,"x_max":0,"o":"m 1128 1040 l 961 1040 b 921 1017 944 1040 929 1031 l 565 394 l 323 815 b 306 826 319 822 313 826 b 285 805 295 826 285 818 l 285 58 l 197 58 l 197 982 l 328 982 l 541 608 b 566 594 547 599 556 594 b 592 638 588 594 603 618 l 375 1017 b 335 1040 367 1031 351 1040 l 168 1040 b 139 1011 152 1040 139 1027 l 139 29 b 168 0 139 13 152 0 l 314 0 b 343 29 330 0 343 13 l 343 664 l 545 313 b 565 301 550 305 557 301 b 585 313 573 301 581 305 l 968 982 l 1099 982 l 1099 58 l 1011 58 l 1011 805 b 990 826 1011 818 1001 826 b 972 815 983 826 976 822 l 701 344 b 727 301 690 325 705 301 b 752 315 738 301 747 306 l 953 664 l 953 29 b 982 0 953 13 966 0 l 1128 0 b 1157 29 1144 0 1157 13 l 1157 1011 b 1128 1040 1157 1027 1144 1040 z "},"":{"ha":1069,"x_min":0,"x_max":0,"o":"m 901 1040 l 755 1040 b 726 1011 739 1040 726 1027 l 726 644 l 197 644 l 197 982 l 285 982 l 285 753 b 314 724 285 737 298 724 b 343 753 330 724 343 737 l 343 1011 b 314 1040 343 1027 330 1040 l 168 1040 b 139 1011 152 1040 139 1027 l 139 615 b 168 586 139 599 152 586 l 755 586 b 784 615 771 586 784 599 l 784 982 l 872 982 l 872 58 l 784 58 l 784 478 b 755 507 784 494 771 507 l 168 507 b 139 478 152 507 139 494 l 139 29 b 168 0 139 13 152 0 l 314 0 b 343 29 330 0 343 13 l 343 340 b 314 369 343 356 330 369 b 285 340 298 369 285 356 l 285 58 l 197 58 l 197 449 l 726 449 l 726 29 b 755 0 726 13 739 0 l 901 0 b 930 29 917 0 930 13 l 930 1011 b 901 1040 930 1027 917 1040 z "},"":{"ha":1088,"x_min":0,"x_max":0,"o":"m 699 1029 b 660 1001 681 1036 660 1022 b 680 974 660 990 668 978 b 942 521 860 909 942 714 b 544 44 942 283 819 44 b 145 521 268 44 145 283 b 515 997 145 749 260 980 l 515 888 b 544 860 515 872 528 860 b 797 521 728 860 797 667 b 544 181 797 375 729 181 b 291 521 358 181 291 375 b 415 820 291 625 326 756 b 427 843 422 826 427 834 b 398 873 427 860 413 873 b 381 867 392 873 386 871 b 233 521 280 794 233 654 b 544 123 233 329 330 123 b 855 521 758 123 855 329 b 573 917 855 703 766 899 l 573 1026 b 544 1056 573 1042 560 1056 b 87 521 252 1056 87 813 b 544 -15 87 229 251 -15 b 1001 521 835 -15 1001 229 b 699 1029 1001 755 894 958 z "},"":{"ha":1069,"x_min":0,"x_max":0,"o":"m 901 1040 l 314 1040 b 285 1011 298 1040 285 1027 b 314 982 285 995 298 982 l 872 982 l 872 58 l 784 58 l 784 874 b 755 903 784 890 771 903 l 168 903 b 139 874 152 903 139 890 l 139 29 b 168 0 139 13 152 0 l 314 0 b 343 29 330 0 343 13 l 343 736 b 314 765 343 752 330 765 b 285 736 298 765 285 752 l 285 58 l 197 58 l 197 844 l 726 844 l 726 29 b 755 0 726 13 739 0 l 901 0 b 930 29 917 0 930 13 l 930 1011 b 901 1040 930 1027 917 1040 z "},"":{"ha":955,"x_min":0,"x_max":0,"o":"m 499 1040 l 168 1040 b 139 1011 151 1040 139 1027 l 139 29 b 168 0 139 13 151 0 l 314 0 b 343 29 330 0 343 13 l 343 488 l 508 488 b 722 699 644 488 722 565 b 518 903 722 825 644 903 l 314 903 b 285 874 297 903 285 890 l 285 654 b 314 625 285 638 297 625 b 343 654 330 625 343 638 l 343 844 l 518 844 b 664 699 612 844 664 792 b 508 546 664 616 628 546 l 314 546 b 285 517 297 546 285 533 l 285 58 l 197 58 l 197 982 l 499 982 b 810 699 779 982 810 785 b 524 408 810 524 701 408 l 460 408 b 431 379 443 408 431 395 b 460 350 431 363 443 350 l 524 350 b 868 699 742 350 868 501 b 499 1040 868 879 760 1040 z "},"":{"ha":928,"x_min":0,"x_max":0,"o":"m 797 242 b 759 252 790 256 772 260 b 548 181 696 213 628 181 b 301 413 401 181 325 290 b 272 437 298 427 285 437 b 243 402 253 437 240 420 b 548 123 274 251 372 123 b 760 185 631 123 701 151 l 799 110 b 542 44 717 65 635 44 b 145 511 276 44 145 265 l 145 515 l 263 515 b 291 543 278 515 291 528 b 534 860 295 701 382 860 b 730 794 622 860 669 835 b 767 803 742 785 759 790 l 838 930 b 828 967 844 942 841 959 b 530 1056 744 1026 652 1056 b 106 689 301 1056 156 890 b 134 653 101 671 115 653 b 163 675 147 653 159 662 b 530 997 206 851 331 997 b 773 934 625 997 701 978 l 733 862 b 534 918 676 897 622 918 b 234 574 353 918 249 748 l 116 574 b 87 545 100 574 87 561 l 87 511 b 542 -15 87 219 253 -15 b 853 74 669 -15 767 22 b 864 113 867 82 871 99 z "},"":{"ha":851,"x_min":0,"x_max":0,"o":"m 769 1040 l 499 1040 b 469 1011 483 1040 469 1027 l 469 58 l 382 58 l 382 1011 b 353 1040 382 1027 369 1040 l 81 1040 b 52 1011 65 1040 52 1027 l 52 874 b 81 844 52 857 65 844 l 207 844 b 236 874 223 844 236 857 b 207 903 236 890 223 903 l 110 903 l 110 982 l 324 982 l 324 29 b 353 0 324 13 337 0 l 499 0 b 528 29 515 0 528 13 l 528 982 l 740 982 l 740 903 l 644 903 b 615 874 628 903 615 890 b 644 844 615 857 628 844 l 769 844 b 799 874 785 844 799 857 l 799 1011 b 769 1040 799 1027 785 1040 z "},"":{"ha":958,"x_min":0,"x_max":0,"o":"m 887 1040 l 730 1040 b 690 1015 713 1040 697 1030 l 528 652 b 556 611 520 633 534 611 b 582 628 566 611 577 617 l 740 982 l 833 982 l 555 369 l 268 1015 b 228 1040 261 1030 246 1040 l 72 1040 b 50 1007 54 1040 43 1022 l 371 297 b 264 181 353 256 315 181 b 186 197 235 181 208 189 b 148 178 170 202 153 194 l 110 47 b 127 11 106 32 113 17 b 273 -15 165 -3 205 -15 b 500 124 388 -15 454 48 b 475 168 511 143 497 168 b 451 155 465 168 456 164 b 273 44 406 84 358 44 b 174 57 229 44 197 49 l 196 133 b 264 123 216 127 238 123 b 424 272 353 123 401 223 l 426 275 b 426 315 432 288 432 302 l 125 982 l 219 982 l 533 274 b 553 260 538 265 546 260 b 575 274 563 260 571 265 l 909 1007 b 887 1040 916 1022 904 1040 z "},"":{"ha":1311,"x_min":0,"x_max":0,"o":"m 872 930 b 845 903 858 930 845 918 l 845 757 b 867 728 845 744 854 732 b 1020 530 961 699 1020 645 b 726 306 1020 372 909 326 b 699 276 710 303 699 291 l 699 58 l 612 58 l 612 515 l 728 515 b 758 544 744 515 758 528 l 758 1011 b 728 1040 758 1027 744 1040 l 583 1040 b 553 1011 567 1040 553 1027 l 553 808 b 233 530 455 796 233 767 b 408 283 233 381 319 315 l 408 197 b 145 530 282 233 145 322 b 443 872 145 759 310 842 b 466 900 456 874 466 886 b 431 928 466 919 449 933 b 87 530 239 886 87 764 b 408 136 87 314 219 185 b 440 129 417 134 432 129 b 466 156 454 129 466 141 l 466 303 b 444 332 466 317 457 328 b 291 530 356 359 291 410 b 585 753 291 677 388 734 b 612 783 600 755 612 767 l 612 982 l 699 982 l 699 574 l 583 574 b 553 544 567 574 553 560 l 553 29 b 583 0 553 13 567 0 l 728 0 b 758 29 744 0 758 13 l 758 251 b 1078 530 870 267 1078 297 b 903 777 1078 680 992 746 l 903 863 b 1166 530 1029 826 1166 739 b 868 188 1166 301 1001 218 b 845 160 855 185 845 173 b 881 131 845 141 863 127 b 1224 530 1082 176 1224 306 b 912 921 1224 751 1089 872 b 872 930 901 924 880 930 z "},"":{"ha":1003,"x_min":0,"x_max":0,"o":"m 756 0 l 929 0 b 947 33 947 0 956 19 l 622 541 l 921 1007 b 924 1019 924 1011 924 1015 b 903 1040 924 1030 915 1040 l 731 1040 b 689 1017 714 1040 698 1032 l 502 727 l 315 1018 b 273 1040 306 1032 290 1040 l 101 1040 b 79 1019 88 1040 79 1030 b 83 1007 79 1015 81 1010 l 308 658 b 332 644 313 649 322 644 b 361 674 348 644 361 658 b 356 690 361 679 360 685 l 168 982 l 268 982 l 482 650 b 502 640 487 643 494 640 b 522 650 510 640 517 643 l 735 982 l 835 982 l 568 565 b 560 541 563 558 560 549 b 568 517 560 533 563 524 l 862 58 l 761 58 l 437 563 b 417 574 432 571 424 574 b 397 563 409 574 401 571 l 56 33 b 74 0 47 19 57 0 l 247 0 b 289 23 264 0 280 8 l 442 260 b 447 276 445 265 447 271 b 417 306 447 292 433 306 b 393 292 408 306 399 301 l 242 58 l 142 58 l 417 487 l 715 23 b 756 0 724 8 740 0 z "},"":{"ha":1099,"x_min":0,"x_max":0,"o":"m 1008 196 b 978 167 991 196 978 183 l 978 -187 l 891 -187 l 891 29 b 862 58 891 46 878 58 l 197 58 l 197 982 l 285 982 l 285 167 b 313 138 285 151 297 138 l 862 138 b 891 167 878 138 891 151 l 891 1011 b 862 1040 891 1028 878 1040 l 715 1040 b 687 1011 699 1040 687 1028 l 687 303 b 716 274 687 288 699 274 b 745 303 732 274 745 288 l 745 982 l 833 982 l 833 196 l 343 196 l 343 1011 b 314 1040 343 1028 330 1040 l 167 1040 b 139 1011 151 1040 139 1028 l 139 29 b 167 0 139 13 151 0 l 833 0 l 833 -216 b 861 -245 833 -232 845 -245 l 1008 -245 b 1037 -216 1024 -245 1037 -232 l 1037 167 b 1008 196 1037 183 1024 196 z "},"":{"ha":1013,"x_min":0,"x_max":0,"o":"m 484 494 b 851 545 633 494 770 525 b 874 574 864 549 874 560 l 874 1011 b 844 1040 874 1027 860 1040 l 699 1040 b 669 1011 683 1040 669 1027 l 669 681 b 699 652 669 665 683 652 b 728 681 715 652 728 665 l 728 982 l 815 982 l 815 597 b 484 552 731 577 621 552 b 326 701 372 552 326 624 l 326 1011 b 297 1040 326 1027 313 1040 l 151 1040 b 122 1011 135 1040 122 1027 l 122 708 b 484 356 122 469 298 356 b 815 396 647 356 744 383 l 815 58 l 728 58 l 728 265 b 699 294 728 281 715 294 b 669 265 683 294 669 281 l 669 29 b 699 0 669 13 683 0 l 844 0 b 874 29 860 0 874 13 l 874 439 b 851 463 874 453 864 463 b 819 457 843 463 829 459 b 484 415 740 439 627 415 b 180 708 337 415 180 497 l 180 982 l 267 982 l 267 701 b 484 494 267 598 335 494 z "},"":{"ha":1500,"x_min":0,"x_max":0,"o":"m 1332 1040 l 1186 1040 b 1157 1011 1170 1040 1157 1027 l 1157 196 l 706 196 l 706 982 l 794 982 l 794 304 b 823 275 794 288 807 275 b 852 304 839 275 852 288 l 852 1011 b 823 1040 852 1027 839 1040 l 677 1040 b 648 1011 661 1040 648 1027 l 648 167 b 677 138 648 151 661 138 l 1186 138 b 1215 167 1202 138 1215 151 l 1215 982 l 1303 982 l 1303 58 l 197 58 l 197 982 l 285 982 l 285 167 b 314 138 285 151 298 138 l 531 138 b 560 167 547 138 560 151 b 531 196 560 183 547 196 l 343 196 l 343 1011 b 314 1040 343 1027 330 1040 l 168 1040 b 139 1011 152 1040 139 1027 l 139 29 b 168 0 139 13 152 0 l 1332 0 b 1361 29 1348 0 1361 13 l 1361 1011 b 1332 1040 1361 1027 1348 1040 z "},"":{"ha":1569,"x_min":0,"x_max":0,"o":"m 1478 196 b 1449 167 1462 196 1449 183 l 1449 -186 l 1361 -186 l 1361 29 b 1332 58 1361 45 1348 58 l 197 58 l 197 982 l 285 982 l 285 167 b 314 138 285 151 298 138 l 677 138 b 706 167 693 138 706 151 l 706 982 l 794 982 l 794 167 b 823 138 794 151 807 138 l 1332 138 b 1361 167 1348 138 1361 151 l 1361 1011 b 1332 1040 1361 1027 1348 1040 l 1186 1040 b 1157 1011 1170 1040 1157 1027 l 1157 304 b 1186 275 1157 288 1170 275 b 1215 304 1202 275 1215 288 l 1215 982 l 1303 982 l 1303 196 l 852 196 l 852 1011 b 823 1040 852 1027 839 1040 l 677 1040 b 648 1011 661 1040 648 1027 l 648 196 l 343 196 l 343 1011 b 314 1040 343 1027 330 1040 l 168 1040 b 139 1011 152 1040 139 1027 l 139 29 b 168 0 139 13 152 0 l 1303 0 l 1303 -215 b 1332 -244 1303 -231 1316 -244 l 1478 -244 b 1507 -215 1494 -244 1507 -231 l 1507 167 b 1478 196 1507 183 1494 196 z "},"":{"ha":1042,"x_min":0,"x_max":0,"o":"m 582 656 l 317 656 l 317 874 b 288 903 317 890 303 903 l 93 903 l 93 982 l 404 982 l 404 764 b 433 735 404 748 417 735 b 463 764 449 735 463 748 l 463 1011 b 433 1040 463 1027 449 1040 l 64 1040 b 35 1011 48 1040 35 1027 l 35 874 b 64 844 35 858 48 844 l 258 844 l 258 626 b 288 597 258 610 272 597 l 582 597 b 897 329 780 597 897 497 b 824 140 897 251 872 186 b 576 58 768 87 683 58 l 317 58 l 317 460 l 576 460 b 751 329 697 460 751 412 b 586 196 751 236 683 196 l 463 196 l 463 352 b 433 381 463 368 449 381 b 404 352 417 381 404 368 l 404 167 b 433 138 404 151 417 138 l 586 138 b 810 329 724 138 810 211 b 576 518 810 386 788 518 l 288 518 b 258 489 272 518 258 505 l 258 29 b 288 0 258 13 272 0 l 576 0 b 956 329 837 0 956 150 b 582 656 956 531 810 656 z "},"":{"ha":1268,"x_min":0,"x_max":0,"o":"m 476 656 l 314 656 b 285 626 298 656 285 642 l 285 167 b 314 138 285 151 298 138 l 481 138 b 691 329 615 138 691 208 b 471 518 691 415 653 518 l 460 518 b 431 489 444 518 431 505 b 460 460 431 473 444 460 l 471 460 b 633 329 592 460 633 412 b 481 196 633 236 577 196 l 343 196 l 343 597 l 476 597 b 703 525 573 597 651 572 b 778 329 753 479 778 413 b 710 140 778 275 767 198 b 471 58 657 86 577 58 l 197 58 l 197 982 l 285 982 l 285 764 b 314 735 285 748 298 735 b 343 764 330 735 343 748 l 343 1011 b 314 1040 343 1027 330 1040 l 168 1040 b 139 1011 152 1040 139 1027 l 139 29 b 168 0 139 13 152 0 l 471 0 b 837 329 731 0 837 155 b 476 656 837 531 704 656 z m 1100 1040 l 954 1040 b 925 1011 938 1040 925 1027 l 925 764 b 954 735 925 748 938 735 b 983 764 970 735 983 748 l 983 982 l 1071 982 l 1071 58 l 983 58 l 983 626 b 954 656 983 642 970 656 b 925 626 938 656 925 642 l 925 29 b 954 0 925 13 938 0 l 1100 0 b 1129 29 1116 0 1129 13 l 1129 1011 b 1100 1040 1129 1027 1116 1040 z "},"":{"ha":951,"x_min":0,"x_max":0,"o":"m 490 656 l 460 656 b 431 626 444 656 431 642 b 460 597 431 610 444 597 l 490 597 b 806 329 688 597 806 497 b 732 140 806 251 780 186 b 485 58 676 86 591 58 l 197 58 l 197 982 l 285 982 l 285 489 b 314 460 285 473 298 460 l 485 460 b 660 329 605 460 660 412 b 494 196 660 236 590 196 l 343 196 l 343 352 b 314 381 343 368 330 381 b 285 352 298 381 285 368 l 285 167 b 314 138 285 151 298 138 l 494 138 b 718 329 632 138 718 211 b 484 518 718 386 695 518 l 343 518 l 343 1011 b 314 1040 343 1027 330 1040 l 168 1040 b 139 1011 152 1040 139 1027 l 139 29 b 168 0 139 13 152 0 l 485 0 b 864 329 745 0 864 150 b 490 656 864 531 718 656 z "},"":{"ha":924,"x_min":0,"x_max":0,"o":"m 365 507 l 365 586 l 807 586 b 833 615 823 586 835 599 b 399 1056 808 858 657 1056 b 108 967 274 1056 194 1024 b 99 930 95 959 91 943 l 169 803 b 206 794 176 790 193 785 b 409 860 253 825 315 860 b 592 740 492 860 554 813 b 618 724 597 730 607 724 b 644 766 640 724 653 747 b 409 918 596 861 511 918 b 203 861 319 918 253 890 l 163 933 b 399 997 233 975 298 997 b 771 644 622 997 740 833 l 335 644 b 306 615 319 644 306 631 l 306 478 b 335 449 306 462 319 449 l 776 449 b 390 44 756 220 640 44 b 130 115 278 44 197 75 l 170 188 b 399 123 236 151 310 123 b 667 332 530 123 626 200 b 639 369 672 351 658 369 b 611 349 626 369 615 361 b 399 181 581 254 515 181 b 172 255 312 181 240 214 b 135 245 158 263 142 258 l 65 118 b 75 79 58 105 62 88 b 390 -15 150 32 249 -15 b 837 478 685 -15 825 206 b 809 507 838 494 825 507 z "},"":{"ha":1419,"x_min":0,"x_max":0,"o":"m 875 1056 b 448 644 621 1056 481 872 l 343 644 l 343 1011 b 314 1040 343 1027 330 1040 l 168 1040 b 139 1011 152 1040 139 1027 l 139 29 b 168 0 139 13 152 0 l 314 0 b 343 29 330 0 343 13 l 343 449 l 587 449 b 875 123 607 246 713 123 b 1186 521 1067 123 1186 279 b 875 918 1186 762 1067 918 b 590 619 721 918 616 806 b 619 586 588 601 601 586 b 647 611 633 586 645 597 b 875 860 665 735 727 860 b 1128 521 1063 860 1128 686 b 875 181 1128 356 1063 181 b 643 479 707 181 651 341 b 613 507 642 494 629 507 l 314 507 b 285 478 298 507 285 494 l 285 58 l 197 58 l 197 982 l 285 982 l 285 615 b 314 586 285 599 298 586 l 472 586 b 502 613 488 586 500 597 l 506 636 b 875 997 535 838 653 997 b 1274 521 1158 997 1274 766 b 875 44 1274 265 1151 44 b 516 348 647 44 553 205 b 488 370 513 361 501 370 b 460 333 469 370 455 352 b 875 -15 513 131 646 -15 b 1332 521 1167 -15 1332 210 b 875 1056 1332 830 1167 1056 z "},"":{"ha":975,"x_min":0,"x_max":0,"o":"m 807 1040 l 479 1040 b 104 710 228 1040 104 890 b 334 397 104 553 189 433 l 67 36 b 62 22 63 32 62 27 b 85 0 62 11 72 0 l 263 0 b 302 20 278 0 293 8 l 678 531 b 690 566 686 541 690 553 l 690 874 b 661 903 690 890 677 903 l 467 903 b 250 710 335 903 250 827 b 473 506 250 582 333 506 b 502 535 489 506 502 519 b 473 564 502 551 489 564 b 308 710 347 564 308 633 b 467 844 308 797 370 844 l 632 844 l 632 566 l 258 58 l 156 58 l 410 402 b 415 416 414 406 415 411 b 397 439 415 426 408 437 b 284 478 352 450 315 462 b 163 710 203 524 163 610 b 479 982 163 874 278 982 l 778 982 l 778 58 l 690 58 l 690 321 b 661 350 690 338 677 350 b 632 321 645 350 632 338 l 632 29 b 661 0 632 13 645 0 l 807 0 b 836 29 823 0 836 13 l 836 1011 b 807 1040 836 1027 826 1040 z "},"":{"ha":887,"x_min":0,"x_max":0,"o":"m 343 196 l 343 585 l 699 585 l 699 506 l 460 506 b 431 477 444 506 431 493 b 460 448 431 461 444 448 l 728 448 b 757 477 744 448 757 461 l 757 615 b 728 644 757 631 744 644 l 314 644 b 285 615 298 644 285 631 l 285 167 b 314 138 285 151 298 138 l 724 138 l 724 58 l 197 58 l 197 982 l 715 982 l 715 903 l 314 903 b 285 874 298 903 285 890 l 285 752 b 314 723 285 736 298 723 b 343 752 330 723 343 736 l 343 844 l 744 844 b 773 874 760 844 773 858 l 773 1011 b 744 1040 773 1027 760 1040 l 168 1040 b 139 1011 152 1040 139 1027 l 139 29 b 168 0 139 13 152 0 l 753 0 b 783 29 769 0 783 13 l 783 167 b 753 196 783 183 769 196 z m 262 1128 b 291 1158 278 1128 291 1142 b 283 1178 291 1165 288 1172 b 270 1211 275 1187 270 1198 b 319 1260 270 1238 292 1260 b 368 1211 346 1260 368 1238 b 355 1178 368 1198 363 1186 b 347 1158 350 1172 347 1165 b 376 1128 347 1142 360 1128 b 398 1138 384 1128 392 1131 b 426 1211 415 1157 426 1183 b 319 1318 426 1270 378 1318 b 212 1212 260 1318 212 1270 b 240 1138 212 1183 222 1158 b 262 1128 246 1131 253 1128 z m 553 1128 b 582 1158 569 1128 582 1142 b 574 1178 582 1165 579 1172 b 561 1211 566 1187 561 1198 b 610 1260 561 1238 583 1260 b 659 1211 637 1260 659 1238 b 646 1178 659 1198 654 1186 b 638 1158 641 1172 638 1165 b 667 1128 638 1142 651 1128 b 689 1138 675 1128 683 1131 b 717 1211 706 1157 717 1183 b 610 1318 717 1270 669 1318 b 503 1212 551 1318 503 1270 b 531 1138 503 1183 513 1158 b 553 1128 537 1131 544 1128 z "},"":{"ha":517,"x_min":0,"x_max":0,"o":"m 331 844 b 360 874 347 844 360 858 l 360 1011 b 331 1040 360 1027 347 1040 l 185 1040 b 156 1011 169 1040 156 1027 b 185 982 156 995 169 982 l 302 982 l 302 903 l 185 903 b 156 874 169 903 156 890 l 156 29 b 185 0 156 13 169 0 l 331 0 b 360 29 347 0 360 13 l 360 736 b 331 765 360 752 347 765 b 302 736 315 765 302 752 l 302 58 l 215 58 l 215 844 z "},"":{"ha":958,"x_min":0,"x_max":0,"o":"m 261 1187 b 269 1188 264 1187 267 1188 l 375 1220 b 476 1185 403 1198 438 1185 b 576 1220 513 1185 548 1198 l 642 1200 b 476 1130 601 1156 542 1130 b 376 1151 440 1130 406 1138 b 334 1126 357 1160 334 1147 b 351 1099 334 1115 340 1104 b 476 1072 390 1081 432 1072 b 717 1206 572 1072 666 1117 b 721 1219 720 1210 721 1215 b 703 1242 721 1230 714 1239 l 587 1278 b 574 1280 583 1279 578 1280 b 542 1268 562 1280 551 1276 b 476 1243 525 1253 501 1243 b 408 1268 450 1243 426 1253 b 378 1280 400 1276 389 1280 b 364 1278 373 1280 369 1279 l 252 1244 b 232 1216 240 1240 232 1228 b 261 1187 232 1201 245 1187 z m 887 1040 l 730 1040 b 690 1015 713 1040 697 1030 l 528 652 b 556 611 520 633 534 611 b 582 628 566 611 577 617 l 740 982 l 833 982 l 555 369 l 268 1015 b 228 1040 261 1030 246 1040 l 72 1040 b 50 1007 54 1040 43 1022 l 371 297 b 264 181 353 256 315 181 b 186 197 235 181 208 189 b 148 178 170 202 153 194 l 110 47 b 127 11 106 32 113 16 b 273 -15 165 -3 205 -15 b 500 124 388 -15 454 48 b 475 168 511 143 497 168 b 451 155 465 168 456 164 b 273 44 406 84 358 44 b 174 57 229 44 197 49 l 196 133 b 264 123 216 127 238 123 b 424 272 353 123 401 223 l 426 275 b 426 315 432 288 432 302 l 125 982 l 219 982 l 533 274 b 553 260 538 265 546 260 b 575 274 563 260 571 265 l 909 1007 b 887 1040 916 1022 904 1040 z "},"":{"ha":765,"x_min":0,"x_max":0,"o":"m 683 1199 l 546 1199 b 517 1169 530 1199 517 1185 l 517 1040 l 314 1040 b 285 1011 298 1040 285 1027 l 285 58 l 197 58 l 197 874 b 168 903 197 890 184 903 b 139 874 152 903 139 890 l 139 29 b 168 0 139 13 152 0 l 314 0 b 343 29 330 0 343 13 l 343 982 l 546 982 b 575 1011 562 982 575 994 l 575 1140 l 654 1140 l 654 903 l 460 903 b 431 874 444 903 431 890 b 460 844 431 857 444 844 l 683 844 b 713 874 699 844 713 857 l 713 1169 b 683 1199 713 1185 699 1199 z "},"":{"ha":765,"x_min":0,"x_max":0,"o":"m 683 1199 l 546 1199 b 517 1169 530 1199 517 1185 l 517 1040 l 314 1040 b 285 1011 298 1040 285 1027 l 285 58 l 197 58 l 197 874 b 168 903 197 890 184 903 b 139 874 152 903 139 890 l 139 29 b 168 0 139 13 152 0 l 314 0 b 343 29 330 0 343 13 l 343 982 l 546 982 b 575 1011 562 982 575 994 l 575 1140 l 654 1140 l 654 903 l 460 903 b 431 874 444 903 431 890 b 460 844 431 857 444 844 l 683 844 b 713 874 699 844 713 857 l 713 1169 b 683 1199 713 1185 699 1199 z "},"":{"ha":867,"x_min":0,"x_max":0,"o":"m 104 581 b 133 551 104 565 117 551 l 705 551 l 705 489 l 133 489 b 104 460 117 489 104 476 b 133 431 104 444 117 431 l 734 431 b 763 460 750 431 763 444 l 763 581 b 734 610 763 597 750 610 l 133 610 b 104 581 117 610 104 597 z "},"":{"ha":1561,"x_min":0,"x_max":0,"o":"m 104 581 b 133 551 104 565 117 551 l 1399 551 l 1399 489 l 133 489 b 104 460 117 489 104 476 b 133 431 104 444 117 431 l 1428 431 b 1457 460 1444 431 1457 444 l 1457 581 b 1428 610 1457 597 1444 610 l 133 610 b 104 581 117 610 104 597 z "},"":{"ha":353,"x_min":0,"x_max":0,"o":"m 176 730 b 284 839 236 730 284 778 b 257 908 284 863 274 890 b 235 919 251 915 244 919 b 206 889 217 919 206 904 b 213 869 206 883 208 876 b 226 837 222 861 226 848 b 176 788 226 808 201 788 b 128 838 149 788 128 810 b 203 1014 128 851 165 933 b 178 1056 213 1033 199 1056 b 151 1039 167 1056 156 1049 b 69 838 110 954 69 867 b 176 730 69 778 117 730 z "},"":{"ha":353,"x_min":0,"x_max":0,"o":"m 178 1056 b 69 947 118 1056 69 1008 b 97 877 69 923 80 896 b 118 867 103 870 110 867 b 148 897 136 867 148 881 b 140 916 148 903 145 910 b 128 949 133 924 128 938 b 178 997 128 978 152 997 b 226 948 204 997 226 975 b 150 772 226 935 189 853 b 176 730 141 752 155 730 b 203 747 188 730 198 736 b 284 948 243 831 284 919 b 178 1056 284 1007 237 1056 z "},"":{"ha":353,"x_min":0,"x_max":0,"o":"m 178 181 b 69 72 118 181 69 133 b 97 2 69 49 80 21 b 118 -8 103 -4 110 -8 b 148 22 136 -8 148 7 b 140 41 148 28 145 35 b 128 74 133 50 128 63 b 178 122 128 103 152 122 b 226 74 204 122 226 100 b 150 -103 226 60 189 -22 b 176 -145 141 -122 155 -145 b 203 -128 188 -145 198 -138 b 284 74 243 -44 284 44 b 178 181 284 133 237 181 z "},"":{"ha":635,"x_min":0,"x_max":0,"o":"m 176 730 b 284 839 236 730 284 778 b 257 908 284 863 274 890 b 235 919 251 915 244 919 b 206 889 217 919 206 904 b 213 869 206 883 208 876 b 226 837 222 861 226 848 b 176 788 226 808 201 788 b 128 838 149 788 128 810 b 203 1014 128 851 165 933 b 178 1056 213 1033 199 1056 b 151 1039 167 1056 156 1049 b 69 838 110 954 69 867 b 176 730 69 778 117 730 z m 458 730 b 565 839 517 730 565 778 b 538 908 565 863 555 890 b 517 919 532 915 525 919 b 488 889 499 919 488 904 b 495 869 488 883 490 876 b 507 837 503 861 507 848 b 458 788 507 808 483 788 b 409 838 431 788 409 810 b 485 1014 409 851 446 933 b 459 1056 494 1033 480 1056 b 432 1039 448 1056 437 1049 b 351 838 392 954 351 867 b 458 730 351 778 399 730 z "},"":{"ha":635,"x_min":0,"x_max":0,"o":"m 459 1056 b 351 947 399 1056 351 1008 b 378 877 351 923 361 896 b 399 867 384 870 391 867 b 429 897 417 867 429 881 b 422 916 429 903 426 910 b 409 949 414 924 409 938 b 459 997 409 978 433 997 b 507 948 485 997 507 975 b 431 772 507 935 470 853 b 458 730 422 752 436 730 b 484 747 469 730 479 736 b 565 948 524 831 565 919 b 459 1056 565 1007 518 1056 z m 178 1056 b 69 947 118 1056 69 1008 b 97 877 69 923 80 896 b 118 867 103 870 110 867 b 148 897 136 867 148 881 b 140 916 148 903 145 910 b 128 949 133 924 128 938 b 178 997 128 978 152 997 b 226 948 204 997 226 975 b 150 772 226 935 189 853 b 176 730 141 752 155 730 b 203 747 188 730 198 736 b 284 948 243 831 284 919 b 178 1056 284 1007 237 1056 z "},"":{"ha":635,"x_min":0,"x_max":0,"o":"m 459 181 b 351 72 399 181 351 133 b 378 2 351 49 361 21 b 399 -8 384 -4 391 -8 b 429 22 417 -8 429 7 b 422 41 429 28 426 35 b 409 74 414 50 409 63 b 459 122 409 103 433 122 b 507 74 485 122 507 100 b 431 -103 507 60 470 -22 b 458 -145 422 -122 436 -145 b 484 -128 469 -145 479 -138 b 565 74 524 -44 565 44 b 459 181 565 133 518 181 z m 178 181 b 69 72 118 181 69 133 b 97 2 69 49 80 21 b 118 -8 103 -4 110 -8 b 148 22 136 -8 148 7 b 140 41 148 28 145 35 b 128 74 133 50 128 63 b 178 122 128 103 152 122 b 226 74 204 122 226 100 b 150 -103 226 60 189 -22 b 176 -145 141 -122 155 -145 b 203 -128 188 -145 198 -138 b 284 74 243 -44 284 44 b 178 181 284 133 237 181 z "},"":{"ha":958,"x_min":0,"x_max":0,"o":"m 843 217 b 807 231 838 231 821 237 b 601 181 746 203 680 181 b 400 299 507 181 436 233 l 547 299 b 585 324 563 299 578 309 l 639 445 b 617 478 647 461 635 478 l 110 478 l 110 537 l 653 537 b 692 561 670 537 685 547 l 746 683 b 724 716 753 699 742 716 l 388 716 b 590 860 427 800 496 860 b 777 813 676 860 719 843 b 790 810 781 811 785 810 b 815 827 801 810 810 817 l 875 958 b 861 995 881 972 875 988 b 585 1056 772 1039 701 1056 b 169 716 368 1056 225 903 l 81 716 b 52 687 65 716 52 703 b 81 658 52 671 65 658 l 190 658 b 220 681 204 658 217 667 b 585 997 265 854 389 997 b 810 955 678 997 738 987 l 775 879 b 590 918 724 903 674 918 b 314 689 449 918 356 816 b 336 658 309 674 320 658 l 671 658 l 643 595 l 81 595 b 52 566 65 595 52 582 l 52 449 b 81 420 52 433 65 420 l 564 420 l 536 358 l 344 358 b 322 326 328 358 316 341 b 601 123 368 208 464 123 b 801 165 677 123 742 141 l 831 88 b 596 44 764 61 698 44 b 226 335 406 44 278 161 b 196 358 222 349 210 358 l 81 358 b 52 328 65 358 52 344 b 81 299 52 313 65 299 l 176 299 b 596 -15 238 114 385 -15 b 881 46 719 -15 797 9 b 896 83 895 52 902 68 z "},"":{"ha":1032,"x_min":0,"x_max":0,"o":"m 567 467 l 516 467 b 487 438 500 467 487 453 b 516 408 487 422 500 408 l 567 408 b 910 728 786 408 910 533 b 541 1040 910 905 803 1040 l 224 1040 b 195 1011 208 1040 195 1027 l 195 604 l 116 604 b 87 575 100 604 87 591 l 87 438 b 116 408 87 422 100 408 l 195 408 l 195 330 l 116 330 b 87 301 100 330 87 317 l 87 175 b 116 146 87 159 100 146 l 195 146 l 195 29 b 224 0 195 13 208 0 l 370 0 b 399 29 386 0 399 13 l 399 146 l 742 146 b 772 175 758 146 772 159 l 772 301 b 742 330 772 317 758 330 l 399 330 l 399 546 l 551 546 b 765 728 604 546 765 546 b 560 903 765 844 696 903 l 370 903 b 341 874 354 903 341 890 l 341 713 b 370 683 341 697 354 683 b 399 713 386 683 399 697 l 399 844 l 560 844 b 706 728 651 844 706 821 b 551 604 706 645 671 604 l 370 604 b 341 575 354 604 341 591 l 341 301 b 370 272 341 285 354 272 l 713 272 l 713 204 l 370 204 b 341 175 354 204 341 191 l 341 58 l 253 58 l 253 175 b 224 204 253 191 240 204 l 145 204 l 145 272 l 224 272 b 253 301 240 272 253 285 l 253 438 b 224 467 253 453 240 467 l 145 467 l 145 546 l 224 546 b 253 575 240 546 253 559 l 253 982 l 541 982 b 852 728 747 982 852 894 b 567 467 852 563 751 467 z "},"":{"ha":1810,"x_min":0,"x_max":0,"o":"m 939 1040 l 793 1040 b 764 1011 776 1040 764 1027 l 764 359 l 372 1025 b 347 1040 367 1034 358 1040 b 321 996 324 1040 309 1016 l 783 210 b 801 200 788 203 794 200 b 822 221 812 200 822 208 l 822 982 l 910 982 l 910 58 l 776 58 l 207 1023 b 176 1040 200 1033 189 1040 l 168 1040 b 139 1011 151 1040 139 1027 l 139 29 b 168 0 139 13 151 0 l 314 0 b 343 29 330 0 343 13 l 343 501 b 314 531 343 517 330 531 b 285 502 298 531 285 518 l 285 58 l 197 58 l 197 924 l 728 23 b 769 0 737 8 752 0 l 939 0 b 968 29 955 0 968 13 l 968 1011 b 939 1040 968 1027 955 1040 z m 1394 977 b 1106 688 1226 977 1106 864 b 1265 423 1106 560 1167 466 b 1306 449 1285 415 1306 428 b 1289 476 1306 461 1299 472 b 1164 688 1210 510 1164 586 b 1394 919 1164 828 1254 919 b 1624 688 1534 919 1624 828 b 1423 457 1624 556 1547 469 l 1423 557 b 1394 585 1423 573 1410 585 b 1298 688 1331 585 1298 623 b 1394 789 1298 751 1331 789 b 1490 688 1457 789 1490 751 b 1475 624 1490 665 1485 642 b 1471 609 1472 620 1471 615 l 1471 609 b 1499 580 1471 591 1485 580 b 1524 594 1509 580 1518 584 b 1549 688 1540 619 1549 651 b 1394 847 1549 785 1488 847 b 1240 688 1301 847 1240 785 b 1365 529 1240 601 1288 541 l 1365 426 b 1393 397 1365 410 1377 397 l 1394 397 b 1683 688 1563 397 1683 510 b 1394 977 1683 864 1563 977 z m 1146 232 l 1613 232 l 1613 160 l 1146 160 b 1117 131 1130 160 1117 147 b 1146 101 1117 115 1130 101 l 1642 101 b 1671 131 1658 101 1671 115 l 1671 261 b 1642 290 1671 277 1658 290 l 1146 290 b 1117 261 1130 290 1117 277 b 1146 232 1117 245 1130 232 z "},"":{"ha":751,"x_min":0,"x_max":0,"o":"m 99 982 l 147 982 l 147 741 b 176 712 147 725 160 712 l 183 712 b 212 741 199 712 212 725 l 212 982 l 260 982 b 290 1011 276 982 290 995 b 260 1040 290 1027 276 1040 l 99 1040 b 69 1011 83 1040 69 1027 b 99 982 69 995 83 982 z m 571 1019 l 487 872 l 403 1019 b 367 1040 396 1032 382 1040 l 355 1040 b 326 1011 339 1040 326 1027 l 326 741 b 355 712 326 725 339 712 l 361 712 b 390 741 377 712 390 725 l 390 926 l 456 809 b 487 791 463 798 474 791 b 518 809 500 791 512 798 l 583 926 l 583 741 b 613 712 583 725 597 712 l 618 712 b 647 741 634 712 647 725 l 647 1011 b 618 1040 647 1027 634 1040 l 607 1040 b 571 1019 592 1040 578 1032 z "},"":{"ha":1029,"x_min":0,"x_max":0,"o":"m 585 1040 l 442 1040 b 401 1012 424 1040 408 1029 l 190 428 b 212 397 184 413 195 397 l 666 397 b 688 428 683 397 694 413 l 534 853 b 514 867 531 862 522 867 b 494 853 506 867 497 863 l 392 573 b 419 534 385 554 399 534 b 447 553 431 534 442 542 l 514 738 l 617 455 l 261 455 l 453 982 l 575 982 l 911 58 l 822 58 l 739 289 b 698 317 733 306 717 317 l 179 317 b 138 289 160 317 144 306 l 45 32 b 67 0 40 17 51 0 l 215 0 b 256 28 234 0 250 12 l 297 141 b 269 180 304 160 290 180 b 242 161 258 180 247 172 l 205 58 l 117 58 l 190 259 l 688 259 l 771 28 b 812 0 777 12 793 0 l 960 0 b 983 32 977 0 988 17 l 626 1012 b 585 1040 620 1029 604 1040 z m 574 1144 b 609 1127 582 1133 595 1127 l 768 1127 b 788 1147 780 1127 788 1137 b 784 1159 788 1151 787 1156 l 616 1371 b 593 1382 610 1378 602 1382 b 570 1335 569 1382 555 1354 l 688 1185 l 615 1185 l 474 1365 b 438 1382 465 1376 451 1382 l 433 1382 b 397 1365 419 1382 406 1376 l 235 1159 b 231 1147 233 1155 231 1151 b 251 1127 231 1137 239 1127 l 409 1127 b 445 1144 423 1127 436 1133 l 459 1162 b 436 1209 474 1181 460 1209 b 413 1198 428 1209 419 1206 l 403 1185 l 331 1185 l 435 1319 z "},"":{"ha":517,"x_min":0,"x_max":0,"o":"m 331 844 b 360 874 347 844 360 858 l 360 1011 b 331 1040 360 1027 347 1040 l 185 1040 b 156 1011 169 1040 156 1027 b 185 982 156 995 169 982 l 302 982 l 302 903 l 185 903 b 156 874 169 903 156 890 l 156 29 b 185 0 156 13 169 0 l 331 0 b 360 29 347 0 360 13 l 360 736 b 331 765 360 752 347 765 b 302 736 315 765 302 752 l 302 58 l 215 58 l 215 844 z m 317 1144 b 353 1127 326 1133 339 1127 l 512 1127 b 532 1147 524 1127 532 1137 b 528 1159 532 1151 531 1156 l 360 1371 b 337 1382 354 1378 346 1382 b 314 1335 313 1382 299 1354 l 432 1185 l 359 1185 l 217 1365 b 182 1382 208 1376 195 1382 l 177 1382 b 141 1365 163 1382 150 1376 l -21 1159 b -26 1147 -24 1155 -26 1151 b -6 1127 -26 1137 -17 1127 l 153 1127 b 189 1144 167 1127 180 1133 l 203 1162 b 180 1209 217 1181 203 1209 b 157 1198 172 1209 163 1206 l 147 1185 l 74 1185 l 179 1319 z "},"":{"ha":1088,"x_min":0,"x_max":0,"o":"m 699 1029 b 660 1001 681 1036 660 1022 b 680 974 660 990 668 978 b 942 521 860 909 942 714 b 544 44 942 283 819 44 b 145 521 268 44 145 283 b 515 997 145 749 260 980 l 515 888 b 544 860 515 872 528 860 b 797 521 728 860 797 667 b 544 181 797 375 729 181 b 291 521 358 181 291 375 b 415 820 291 625 326 756 b 427 843 422 826 427 834 b 398 873 427 860 413 873 b 381 867 392 873 386 871 b 233 521 280 794 233 654 b 544 123 233 329 330 123 b 855 521 758 123 855 329 b 573 917 855 703 766 899 l 573 1026 b 544 1056 573 1042 560 1056 b 87 521 252 1056 87 813 b 544 -15 87 229 251 -15 b 1001 521 835 -15 1001 229 b 699 1029 1001 755 894 958 z m 602 1144 b 638 1127 610 1133 624 1127 l 797 1127 b 817 1147 808 1127 817 1137 b 813 1159 817 1151 815 1156 l 644 1371 b 622 1382 639 1378 631 1382 b 599 1335 597 1382 583 1354 l 717 1185 l 644 1185 l 502 1365 b 467 1382 493 1376 480 1382 l 462 1382 b 426 1365 448 1382 435 1376 l 264 1159 b 259 1147 261 1155 259 1151 b 279 1127 259 1137 267 1127 l 438 1127 b 474 1144 451 1127 465 1133 l 488 1162 b 465 1209 502 1181 488 1209 b 442 1198 456 1209 447 1206 l 431 1185 l 359 1185 l 464 1319 z "},"":{"ha":1069,"x_min":0,"x_max":0,"o":"m 901 1040 l 755 1040 b 726 1011 739 1040 726 1027 l 726 403 b 657 216 726 313 703 251 b 646 192 650 210 646 202 b 675 163 646 176 660 163 b 692 169 681 163 687 165 b 784 403 744 209 784 279 l 784 982 l 872 982 l 872 403 b 564 44 872 276 831 59 l 564 153 b 535 181 564 169 551 181 b 343 403 405 181 343 256 l 343 1011 b 314 1040 343 1027 330 1040 l 168 1040 b 139 1011 152 1040 139 1027 l 139 403 b 379 10 139 215 216 68 b 418 38 398 3 418 17 b 399 65 418 49 410 60 b 197 403 233 124 197 281 l 197 982 l 285 982 l 285 403 b 506 124 285 183 414 130 l 506 15 b 535 -15 506 -1 519 -15 b 930 403 805 -15 930 164 l 930 1011 b 901 1040 930 1027 917 1040 z m 593 1144 b 628 1127 601 1133 615 1127 l 788 1127 b 808 1147 799 1127 808 1137 b 803 1159 808 1151 806 1156 l 635 1371 b 613 1382 630 1378 622 1382 b 590 1335 588 1382 574 1354 l 708 1185 l 635 1185 l 493 1365 b 458 1382 484 1376 471 1382 l 453 1382 b 417 1365 439 1382 426 1376 l 255 1159 b 250 1147 252 1155 250 1151 b 270 1127 250 1137 258 1127 l 428 1127 b 465 1144 442 1127 456 1133 l 478 1162 b 456 1209 493 1181 479 1209 b 433 1198 447 1209 438 1206 l 422 1185 l 350 1185 l 455 1319 z "},"":{"ha":1088,"x_min":0,"x_max":0,"o":"m 699 1029 b 660 1001 681 1036 660 1022 b 680 974 660 990 668 978 b 942 521 860 909 942 714 b 544 44 942 283 819 44 b 145 521 268 44 145 283 b 515 997 145 749 260 980 l 515 888 b 544 860 515 872 528 860 b 797 521 728 860 797 667 b 544 181 797 375 729 181 b 291 521 358 181 291 375 b 415 820 291 625 326 756 b 427 843 422 826 427 834 b 398 873 427 860 413 873 b 381 867 392 873 386 871 b 233 521 280 794 233 654 b 544 123 233 329 330 123 b 855 521 758 123 855 329 b 573 917 855 703 766 899 l 573 1026 b 544 1056 573 1042 560 1056 b 87 521 252 1056 87 813 b 544 -15 87 229 251 -15 b 1001 521 835 -15 1001 229 b 699 1029 1001 755 894 958 z m 602 1144 b 638 1127 610 1133 624 1127 l 797 1127 b 817 1147 808 1127 817 1137 b 813 1159 817 1151 815 1156 l 644 1371 b 622 1382 639 1378 631 1382 b 599 1335 597 1382 583 1354 l 717 1185 l 644 1185 l 502 1365 b 467 1382 493 1376 480 1382 l 462 1382 b 426 1365 448 1382 435 1376 l 264 1159 b 259 1147 261 1155 259 1151 b 279 1127 259 1137 267 1127 l 438 1127 b 474 1144 451 1127 465 1133 l 488 1162 b 465 1209 502 1181 488 1209 b 442 1198 456 1209 447 1206 l 431 1185 l 359 1185 l 464 1319 z "},"":{"ha":1029,"x_min":0,"x_max":0,"o":"m 585 1040 l 442 1040 b 401 1012 424 1040 408 1029 l 190 428 b 212 397 184 413 195 397 l 666 397 b 688 428 683 397 694 413 l 534 853 b 514 867 531 862 522 867 b 494 853 506 867 497 863 l 392 573 b 419 534 385 554 399 534 b 447 553 431 534 442 542 l 514 738 l 617 455 l 261 455 l 453 982 l 575 982 l 911 58 l 822 58 l 739 289 b 698 317 733 306 717 317 l 179 317 b 138 289 160 317 144 306 l 45 32 b 67 0 40 17 51 0 l 215 0 b 256 28 234 0 250 12 l 297 141 b 269 180 304 160 290 180 b 242 161 258 180 247 172 l 205 58 l 117 58 l 190 259 l 688 259 l 771 28 b 812 0 777 12 793 0 l 960 0 b 983 32 977 0 988 17 l 626 1012 b 585 1040 620 1029 604 1040 z m 573 1144 b 608 1127 581 1133 594 1127 l 767 1127 b 788 1147 779 1127 788 1137 b 783 1159 788 1151 786 1156 l 615 1371 b 592 1382 610 1378 601 1382 b 569 1335 568 1382 554 1354 l 688 1185 l 615 1185 l 473 1365 b 438 1382 464 1376 451 1382 l 433 1382 b 397 1365 419 1382 406 1376 l 235 1159 b 230 1147 232 1155 230 1151 b 250 1127 230 1137 238 1127 l 408 1127 b 444 1144 422 1127 435 1133 l 458 1162 b 435 1209 473 1181 459 1209 b 413 1198 427 1209 418 1206 l 402 1185 l 330 1185 l 435 1319 z "},"":{"ha":1478,"x_min":0,"x_max":0,"o":"m 1344 196 l 965 196 l 965 449 l 1319 449 b 1348 478 1335 449 1348 462 l 1348 615 b 1319 644 1348 631 1335 644 l 810 644 b 544 918 774 879 634 918 b 233 521 329 918 233 712 b 544 123 233 329 330 123 b 818 478 740 123 818 304 b 789 507 818 494 805 507 b 760 479 773 507 761 499 b 544 181 757 341 710 181 b 291 521 358 181 291 374 b 544 860 291 667 358 860 b 756 613 692 860 741 738 b 786 586 758 598 771 586 l 1290 586 l 1290 507 l 935 507 b 906 478 919 507 906 494 l 906 167 b 935 138 906 151 919 138 l 1315 138 l 1315 58 l 819 58 l 819 126 b 799 146 819 138 809 146 b 785 140 794 146 789 144 b 544 44 724 75 642 44 b 145 521 268 44 145 283 b 544 997 145 758 268 997 b 785 901 642 997 724 966 b 799 895 789 897 794 895 b 819 915 809 895 819 903 l 819 982 l 1306 982 l 1306 903 l 935 903 b 906 874 919 903 906 890 l 906 752 b 935 723 906 736 919 723 b 965 752 951 723 965 736 l 965 844 l 1335 844 b 1364 874 1351 844 1364 858 l 1364 1011 b 1335 1040 1364 1027 1351 1040 l 790 1040 b 760 1011 774 1040 760 1027 l 760 997 b 544 1056 702 1034 630 1056 b 87 521 251 1056 87 813 b 544 -15 87 229 251 -15 b 760 44 630 -15 702 7 l 760 29 b 790 0 760 13 774 0 l 1344 0 b 1374 29 1360 0 1374 13 l 1374 167 b 1344 196 1374 183 1360 196 z "},"":{"ha":1393,"x_min":0,"x_max":0,"o":"m 874 196 l 874 340 b 845 369 874 356 861 369 b 816 340 829 369 816 356 l 816 167 b 845 138 816 151 829 138 l 1231 138 l 1231 58 l 728 58 l 728 340 b 699 369 728 356 715 369 l 368 369 b 328 342 351 369 335 359 l 214 58 l 122 58 l 495 982 l 1221 982 l 1221 903 l 845 903 b 816 874 829 903 816 890 l 816 615 b 845 586 816 599 829 586 l 1205 586 l 1205 507 l 456 507 l 592 844 l 670 844 l 670 615 b 699 586 670 599 683 586 b 728 615 715 586 728 599 l 728 874 b 699 903 728 890 715 903 l 582 903 b 542 876 565 903 549 892 l 383 481 b 405 449 377 465 388 449 l 1234 449 b 1263 478 1250 449 1263 462 l 1263 615 b 1234 644 1263 631 1250 644 l 874 644 l 874 844 l 1250 844 b 1279 874 1266 844 1279 858 l 1279 1011 b 1250 1040 1279 1027 1266 1040 l 485 1040 b 445 1013 468 1040 452 1030 l 49 33 b 70 0 42 17 53 0 l 224 0 b 264 27 241 0 257 10 l 378 311 l 670 311 l 670 29 b 699 0 670 13 683 0 l 1260 0 b 1289 29 1276 0 1289 13 l 1289 167 b 1260 196 1289 183 1276 196 z "},"":{"ha":1029,"x_min":0,"x_max":0,"o":"m 585 1040 l 442 1040 b 401 1012 424 1040 408 1029 l 190 428 b 212 397 184 413 195 397 l 666 397 b 688 428 683 397 694 413 l 534 853 b 514 867 531 862 522 867 b 494 853 506 867 497 863 l 392 573 b 419 534 385 554 399 534 b 447 553 431 534 442 542 l 514 738 l 617 455 l 261 455 l 453 982 l 575 982 l 911 58 l 822 58 l 739 289 b 698 317 733 306 717 317 l 179 317 b 138 289 160 317 144 306 l 45 32 b 67 0 40 17 51 0 l 215 0 b 256 28 234 0 250 12 l 297 141 b 269 180 304 160 290 180 b 242 161 258 180 247 172 l 205 58 l 117 58 l 190 259 l 688 259 l 771 28 b 812 0 777 12 793 0 l 960 0 b 983 32 977 0 988 17 l 626 1012 b 585 1040 620 1029 604 1040 z m 662 1128 b 683 1149 674 1128 683 1138 b 679 1162 683 1153 682 1158 l 533 1369 b 508 1382 527 1377 518 1382 b 479 1353 492 1382 479 1368 b 485 1336 479 1347 481 1341 l 591 1186 l 520 1186 l 390 1369 b 366 1382 385 1377 376 1382 b 337 1353 349 1382 337 1368 b 342 1336 337 1347 339 1341 l 475 1149 b 515 1128 484 1135 499 1128 z "},"":{"ha":517,"x_min":0,"x_max":0,"o":"m 331 844 b 360 874 347 844 360 858 l 360 1011 b 331 1040 360 1027 347 1040 l 185 1040 b 156 1011 169 1040 156 1027 b 185 982 156 995 169 982 l 302 982 l 302 903 l 185 903 b 156 874 169 903 156 890 l 156 29 b 185 0 156 13 169 0 l 331 0 b 360 29 347 0 360 13 l 360 736 b 331 765 360 752 347 765 b 302 736 315 765 302 752 l 302 58 l 215 58 l 215 844 z m 405 1128 b 426 1149 417 1128 426 1138 b 422 1162 426 1153 425 1158 l 276 1369 b 251 1382 270 1377 261 1382 b 222 1353 235 1382 222 1368 b 228 1336 222 1347 224 1341 l 334 1186 l 263 1186 l 133 1369 b 109 1382 128 1377 119 1382 b 80 1353 92 1382 80 1368 b 85 1336 80 1347 82 1341 l 218 1149 b 258 1128 227 1135 242 1128 z "},"":{"ha":1088,"x_min":0,"x_max":0,"o":"m 699 1029 b 660 1001 681 1036 660 1022 b 680 974 660 990 668 978 b 942 521 860 909 942 714 b 544 44 942 283 819 44 b 145 521 268 44 145 283 b 515 997 145 749 260 980 l 515 888 b 544 860 515 872 528 860 b 797 521 728 860 797 667 b 544 181 797 375 729 181 b 291 521 358 181 291 375 b 415 820 291 625 326 756 b 427 843 422 826 427 834 b 398 873 427 860 413 873 b 381 867 392 873 386 871 b 233 521 280 794 233 654 b 544 123 233 329 330 123 b 855 521 758 123 855 329 b 573 917 855 703 766 899 l 573 1026 b 544 1056 573 1042 560 1056 b 87 521 252 1056 87 813 b 544 -15 87 229 251 -15 b 1001 521 835 -15 1001 229 b 699 1029 1001 755 894 958 z m 622 1128 b 644 1149 635 1128 644 1138 b 640 1162 644 1153 642 1158 l 493 1369 b 469 1382 488 1377 478 1382 b 440 1353 452 1382 440 1368 b 445 1336 440 1347 442 1341 l 551 1186 l 481 1186 l 351 1369 b 326 1382 345 1377 336 1382 b 297 1353 310 1382 297 1368 b 303 1336 297 1347 299 1341 l 435 1149 b 476 1128 444 1135 460 1128 z "},"":{"ha":803,"x_min":0,"x_max":0,"o":"m 722 196 l 234 196 l 234 494 b 203 517 234 510 219 522 l 110 489 l 110 559 l 203 588 b 234 629 222 594 234 610 l 234 982 l 322 982 l 322 656 b 352 633 322 640 338 628 l 481 673 l 481 603 l 352 563 b 322 522 334 558 322 541 l 322 303 b 351 274 322 288 335 274 b 380 303 367 274 380 288 l 380 510 l 509 551 b 540 592 527 556 540 573 l 540 719 b 509 742 540 735 524 747 l 380 703 l 380 1011 b 351 1040 380 1028 367 1040 l 205 1040 b 176 1011 189 1040 176 1028 l 176 640 l 83 612 b 52 570 65 606 52 590 l 52 442 b 83 419 52 426 67 415 l 176 448 l 176 167 b 205 138 176 151 189 138 l 693 138 l 693 58 l 205 58 b 176 29 189 58 176 46 b 205 0 176 13 189 0 l 722 0 b 751 29 739 0 751 13 l 751 167 b 722 196 751 183 739 196 z "},"":{"ha":763,"x_min":0,"x_max":0,"o":"m 133 556 l 600 556 l 600 485 l 133 485 b 104 456 117 485 104 472 b 133 426 104 440 117 426 l 629 426 b 658 456 646 426 658 440 l 658 585 b 629 615 658 601 646 615 l 133 615 b 104 585 117 615 104 601 b 133 556 104 569 117 556 z "},"":{"ha":928,"x_min":0,"x_max":0,"o":"m 864 113 l 797 242 b 759 252 790 256 772 260 b 548 181 696 213 628 181 b 300 414 401 181 326 290 b 272 437 297 427 286 437 b 243 402 253 437 240 420 b 548 123 274 251 372 123 b 760 185 631 123 701 151 l 799 110 b 586 46 731 73 664 53 b 565 15 571 44 561 30 b 578 -94 576 -20 582 -58 b 413 -240 569 -183 503 -240 b 327 -235 373 -240 347 -238 l 337 -178 b 406 -184 356 -181 377 -184 b 520 -78 472 -184 520 -144 b 498 25 520 -40 509 -7 b 453 53 490 48 472 49 b 145 511 236 103 145 303 l 145 516 l 263 516 b 291 544 278 516 291 528 b 534 860 296 703 383 860 b 730 794 622 860 669 835 b 767 803 742 785 759 790 l 838 930 b 829 967 844 943 841 959 b 530 1056 744 1026 652 1056 b 106 690 302 1056 156 890 b 134 653 101 671 115 653 b 163 675 148 653 160 663 b 530 997 206 851 331 997 b 773 934 625 997 701 978 l 733 862 b 534 918 676 897 622 918 b 234 574 353 918 249 748 l 116 574 b 87 547 101 574 87 563 l 87 511 b 447 -5 87 253 215 42 b 462 -76 456 -32 463 -57 b 406 -126 462 -108 446 -126 b 319 -115 367 -126 343 -121 b 285 -138 303 -112 288 -122 l 265 -254 b 288 -287 262 -269 272 -285 b 413 -299 312 -293 346 -299 b 637 -101 531 -299 624 -221 b 631 -8 640 -72 638 -40 b 853 74 717 5 788 35 b 864 113 865 83 871 99 z "},"":{"ha":1029,"x_min":0,"x_max":0,"o":"m 622 1024 b 673 1141 653 1051 673 1095 b 515 1299 673 1228 602 1299 b 356 1141 427 1299 356 1228 b 407 1024 356 1095 376 1053 l 190 428 b 213 397 185 413 196 397 l 667 397 b 689 428 683 397 694 413 l 535 852 b 515 867 531 862 523 867 b 494 852 506 867 498 862 l 392 573 b 420 534 385 554 400 534 b 447 553 432 534 443 542 l 515 738 l 617 455 l 262 455 l 469 1024 b 471 1034 470 1028 471 1031 b 458 1058 471 1044 466 1053 b 415 1141 432 1076 415 1106 b 515 1241 415 1196 460 1241 b 615 1141 570 1241 615 1196 b 572 1058 615 1106 598 1076 b 558 1034 563 1053 558 1044 b 560 1024 558 1031 559 1027 l 912 58 l 824 58 l 740 289 b 699 317 733 306 717 317 l 181 317 b 140 289 162 317 146 306 l 46 32 b 68 0 40 16 51 0 l 217 0 b 258 28 235 0 251 11 l 299 141 b 271 180 306 160 291 180 b 244 161 259 180 248 172 l 206 58 l 117 58 l 191 259 l 688 259 l 772 28 b 813 0 778 11 794 0 l 961 0 b 983 32 978 0 989 16 z "},"":{"ha":1029,"x_min":0,"x_max":0,"o":"m 585 1040 l 442 1040 b 401 1012 424 1040 408 1029 l 190 428 b 212 397 184 413 195 397 l 666 397 b 688 428 683 397 694 413 l 534 853 b 514 867 531 862 522 867 b 494 853 506 867 497 863 l 392 573 b 419 534 385 554 399 534 b 447 553 431 534 442 542 l 514 738 l 617 455 l 261 455 l 453 982 l 575 982 l 911 58 l 822 58 l 739 289 b 698 317 733 306 717 317 l 179 317 b 138 289 160 317 144 306 l 45 32 b 67 0 40 17 51 0 l 215 0 b 256 28 234 0 250 12 l 297 141 b 269 180 304 160 290 180 b 242 161 258 180 247 172 l 205 58 l 117 58 l 190 259 l 688 259 l 771 28 b 812 0 777 12 793 0 l 960 0 b 983 32 977 0 988 17 l 626 1012 b 585 1040 620 1029 604 1040 z m 662 1128 b 683 1149 674 1128 683 1138 b 679 1162 683 1153 682 1158 l 533 1369 b 508 1382 527 1377 518 1382 b 479 1353 492 1382 479 1368 b 485 1336 479 1347 481 1341 l 591 1186 l 520 1186 l 390 1369 b 366 1382 385 1377 376 1382 b 337 1353 349 1382 337 1368 b 342 1336 337 1347 339 1341 l 475 1149 b 515 1128 484 1135 499 1128 z "},"":{"ha":517,"x_min":0,"x_max":0,"o":"m 331 844 b 360 874 347 844 360 858 l 360 1011 b 331 1040 360 1027 347 1040 l 185 1040 b 156 1011 169 1040 156 1027 b 185 982 156 995 169 982 l 302 982 l 302 903 l 185 903 b 156 874 169 903 156 890 l 156 29 b 185 0 156 13 169 0 l 331 0 b 360 29 347 0 360 13 l 360 736 b 331 765 360 752 347 765 b 302 736 315 765 302 752 l 302 58 l 215 58 l 215 844 z m 317 1144 b 353 1127 326 1133 339 1127 l 512 1127 b 532 1147 524 1127 532 1137 b 528 1159 532 1151 531 1156 l 360 1371 b 337 1382 354 1378 346 1382 b 314 1335 313 1382 299 1354 l 432 1185 l 359 1185 l 217 1365 b 182 1382 208 1376 195 1382 l 177 1382 b 141 1365 163 1382 150 1376 l -21 1159 b -26 1147 -24 1155 -26 1151 b -6 1127 -26 1137 -17 1127 l 153 1127 b 189 1144 167 1127 180 1133 l 203 1162 b 180 1209 217 1181 203 1209 b 157 1198 172 1209 163 1206 l 147 1185 l 74 1185 l 179 1319 z "},"":{"ha":1088,"x_min":0,"x_max":0,"o":"m 1036 1000 l 931 1088 b 913 1094 925 1092 919 1094 b 889 1084 903 1094 894 1091 l 799 976 b 699 1028 768 998 735 1015 b 660 1001 681 1035 660 1022 b 680 974 660 989 668 978 b 785 913 719 960 755 939 b 803 906 790 908 797 906 b 824 916 811 906 819 909 l 915 1025 l 976 974 l 874 853 b 865 829 869 846 866 838 b 871 810 865 823 867 816 b 942 520 919 726 942 622 b 544 44 942 283 819 44 b 301 127 443 44 363 75 b 284 133 297 131 290 133 b 263 124 276 133 268 130 l 172 15 l 111 66 l 213 188 b 222 211 219 194 222 201 b 217 230 222 218 220 224 b 145 520 168 314 145 417 b 515 997 145 749 260 979 l 515 888 b 544 860 515 872 528 860 b 797 520 728 860 797 666 b 544 181 797 374 728 181 b 291 520 358 181 291 374 b 415 819 291 625 326 755 b 427 842 422 824 427 833 b 398 872 427 860 413 872 b 381 866 392 872 385 870 b 233 520 280 793 233 653 b 544 123 233 328 330 123 b 855 520 757 123 855 328 b 573 917 855 703 766 899 l 573 1026 b 544 1056 573 1042 560 1056 b 87 520 252 1056 87 812 b 159 214 87 407 112 301 l 48 81 b 41 62 43 76 41 69 b 51 40 41 54 44 46 l 156 -49 b 175 -55 162 -53 168 -55 b 197 -45 183 -55 192 -51 l 288 63 b 544 -15 356 14 443 -15 b 1001 520 835 -15 1001 228 b 928 826 1001 633 976 739 l 1040 958 b 1047 978 1044 964 1047 971 b 1036 1000 1047 985 1043 994 z "},"":{"ha":1088,"x_min":0,"x_max":0,"o":"m 699 1029 b 660 1001 681 1036 660 1022 b 680 974 660 990 668 978 b 942 521 860 909 942 714 b 544 44 942 283 819 44 b 145 521 268 44 145 283 b 515 997 145 749 260 980 l 515 888 b 544 860 515 872 528 860 b 797 521 728 860 797 667 b 544 181 797 375 729 181 b 291 521 358 181 291 375 b 415 820 291 625 326 756 b 427 843 422 826 427 834 b 398 873 427 860 413 873 b 381 867 392 873 386 871 b 233 521 280 794 233 654 b 544 123 233 329 330 123 b 855 521 758 123 855 329 b 573 917 855 703 766 899 l 573 1026 b 544 1056 573 1042 560 1056 b 87 521 252 1056 87 813 b 544 -15 87 229 251 -15 b 1001 521 835 -15 1001 229 b 699 1029 1001 755 894 958 z m 622 1128 b 644 1149 635 1128 644 1138 b 640 1162 644 1153 642 1158 l 493 1369 b 469 1382 488 1377 478 1382 b 440 1353 452 1382 440 1368 b 445 1336 440 1347 442 1341 l 551 1186 l 481 1186 l 351 1369 b 326 1382 345 1377 336 1382 b 297 1353 310 1382 297 1368 b 303 1336 297 1347 299 1341 l 435 1149 b 476 1128 444 1135 460 1128 z "},"":{"ha":517,"x_min":0,"x_max":0,"o":"m 331 844 b 360 874 347 844 360 858 l 360 1011 b 331 1040 360 1027 347 1040 l 185 1040 b 156 1011 169 1040 156 1027 b 185 982 156 995 169 982 l 302 982 l 302 903 l 185 903 b 156 874 169 903 156 890 l 156 29 b 185 0 156 13 169 0 l 331 0 b 360 29 347 0 360 13 l 360 736 b 331 765 360 752 347 765 b 302 736 315 765 302 752 l 302 58 l 215 58 l 215 844 z m 405 1128 b 426 1149 417 1128 426 1138 b 422 1162 426 1153 425 1158 l 276 1369 b 251 1382 270 1377 261 1382 b 222 1353 235 1382 222 1368 b 228 1336 222 1347 224 1341 l 334 1186 l 263 1186 l 133 1369 b 109 1382 128 1377 119 1382 b 80 1353 92 1382 80 1368 b 85 1336 80 1347 82 1341 l 218 1149 b 258 1128 227 1135 242 1128 z "},"":{"ha":1069,"x_min":0,"x_max":0,"o":"m 901 1040 l 755 1040 b 726 1011 739 1040 726 1027 l 726 403 b 657 216 726 313 703 251 b 646 192 650 210 646 202 b 675 163 646 176 660 163 b 692 169 681 163 687 165 b 784 403 744 209 784 279 l 784 982 l 872 982 l 872 403 b 564 44 872 276 831 59 l 564 153 b 535 181 564 169 551 181 b 343 403 405 181 343 256 l 343 1011 b 314 1040 343 1027 330 1040 l 168 1040 b 139 1011 152 1040 139 1027 l 139 403 b 379 10 139 215 216 68 b 418 38 398 3 418 17 b 399 65 418 49 410 60 b 197 403 233 124 197 281 l 197 982 l 285 982 l 285 403 b 506 124 285 183 414 130 l 506 15 b 535 -15 506 -1 519 -15 b 930 403 805 -15 930 164 l 930 1011 b 901 1040 930 1027 917 1040 z m 625 1128 b 647 1149 638 1128 647 1138 b 642 1162 647 1153 645 1158 l 496 1369 b 472 1382 490 1377 481 1382 b 442 1353 455 1382 442 1368 b 448 1336 442 1347 444 1341 l 554 1186 l 483 1186 l 353 1369 b 329 1382 348 1377 339 1382 b 300 1353 313 1382 300 1368 b 306 1336 300 1347 302 1341 l 438 1149 b 478 1128 447 1135 463 1128 z "},"":{"ha":928,"x_min":0,"x_max":0,"o":"m 472 903 l 343 903 l 343 1011 b 314 1040 343 1027 330 1040 l 168 1040 b 139 1011 152 1040 139 1027 l 139 331 b 168 301 139 315 152 301 l 481 301 b 695 535 613 301 695 391 b 491 766 695 673 613 766 l 314 766 b 285 737 298 766 285 753 l 285 468 b 314 439 285 452 298 439 b 343 468 330 439 343 452 l 343 708 l 491 708 b 637 535 587 708 637 633 b 481 360 637 449 601 360 l 197 360 l 197 982 l 285 982 l 285 874 b 314 845 285 858 298 845 l 472 845 b 711 751 577 845 658 813 b 783 535 757 697 783 621 b 497 222 783 379 694 222 l 314 222 b 285 193 298 222 285 209 l 285 58 l 197 58 l 197 193 b 168 222 197 209 184 222 b 139 193 152 222 139 209 l 139 29 b 168 0 139 13 152 0 l 314 0 b 343 29 330 0 343 13 l 343 164 l 497 164 b 841 535 720 164 841 336 b 472 903 841 718 737 903 z "},"":{"ha":1074,"x_min":0,"x_max":0,"o":"m 522 1040 l 223 1040 b 194 1011 207 1040 194 1027 b 223 982 194 995 207 982 l 522 982 b 928 521 802 982 928 783 b 512 58 928 240 765 58 l 252 58 l 252 478 b 223 508 252 494 239 508 l 110 508 l 110 581 l 223 581 b 252 610 239 581 252 594 l 252 844 l 522 844 b 783 521 687 844 783 730 b 521 196 783 326 680 196 l 398 196 l 398 449 l 523 449 b 552 478 539 449 552 463 l 552 610 b 523 639 552 626 539 639 l 398 639 l 398 736 b 369 765 398 752 385 765 b 340 736 353 765 340 752 l 340 610 b 369 581 340 594 353 581 l 494 581 l 494 508 l 369 508 b 340 478 353 508 340 494 l 340 167 b 369 138 340 151 353 138 l 521 138 b 841 521 713 138 841 292 b 522 903 841 760 722 903 l 223 903 b 194 874 207 903 194 890 l 194 639 l 81 639 b 52 610 65 639 52 626 l 52 478 b 81 449 52 463 65 449 l 194 449 l 194 29 b 223 0 194 13 207 0 l 512 0 b 987 521 796 0 987 208 b 522 1040 987 855 801 1040 z "},"":{"ha":1074,"x_min":0,"x_max":0,"o":"m 522 1040 l 223 1040 b 194 1011 207 1040 194 1027 b 223 982 194 995 207 982 l 522 982 b 928 521 802 982 928 783 b 512 58 928 240 765 58 l 252 58 l 252 478 b 223 508 252 494 239 508 l 110 508 l 110 581 l 223 581 b 252 610 239 581 252 594 l 252 844 l 522 844 b 783 521 687 844 783 730 b 521 196 783 326 680 196 l 398 196 l 398 449 l 523 449 b 552 478 539 449 552 463 l 552 610 b 523 639 552 626 539 639 l 398 639 l 398 736 b 369 765 398 752 385 765 b 340 736 353 765 340 752 l 340 610 b 369 581 340 594 353 581 l 494 581 l 494 508 l 369 508 b 340 478 353 508 340 494 l 340 167 b 369 138 340 151 353 138 l 521 138 b 841 521 713 138 841 292 b 522 903 841 760 722 903 l 223 903 b 194 874 207 903 194 890 l 194 639 l 81 639 b 52 610 65 639 52 626 l 52 478 b 81 449 52 463 65 449 l 194 449 l 194 29 b 223 0 194 13 207 0 l 512 0 b 987 521 796 0 987 208 b 522 1040 987 855 801 1040 z "},"":{"ha":935,"x_min":0,"x_max":0,"o":"m 115 507 b 88 478 99 507 87 494 b 543 -15 98 206 240 -15 b 860 79 684 -15 785 32 b 870 118 874 88 878 105 l 801 245 b 764 255 794 258 777 263 b 534 181 696 215 622 181 b 315 349 417 181 346 254 b 287 369 310 361 299 369 b 258 331 267 369 252 350 b 534 123 301 201 401 123 b 765 188 624 123 700 153 l 806 115 b 543 44 739 76 656 44 b 148 449 292 44 167 215 l 602 449 b 631 478 618 449 631 462 l 631 615 b 602 644 631 631 618 644 l 155 644 b 533 997 193 849 313 997 b 772 933 635 997 703 974 l 732 861 b 524 918 681 890 615 918 b 288 767 415 918 338 860 b 313 724 277 747 292 724 b 339 739 324 724 334 730 b 524 860 379 813 434 860 b 730 794 617 860 682 825 b 766 803 742 785 759 790 l 837 930 b 827 968 844 943 840 960 b 533 1056 740 1024 658 1056 b 92 616 276 1056 125 874 b 118 586 90 600 102 586 l 573 586 l 573 507 z "},"":{"ha":517,"x_min":0,"x_max":0,"o":"m 331 844 b 360 874 347 844 360 858 l 360 1011 b 331 1040 360 1027 347 1040 l 185 1040 b 156 1011 169 1040 156 1027 b 185 982 156 995 169 982 l 302 982 l 302 903 l 185 903 b 156 874 169 903 156 890 l 156 29 b 185 0 156 13 169 0 l 331 0 b 360 29 347 0 360 13 l 360 736 b 331 765 360 752 347 765 b 302 736 315 765 302 752 l 302 58 l 215 58 l 215 844 z m 376 1158 b 367 1178 376 1165 373 1172 b 355 1211 360 1186 355 1198 b 403 1260 355 1238 377 1260 b 453 1211 431 1260 453 1238 b 440 1178 453 1198 448 1186 b 432 1158 435 1172 432 1165 b 461 1128 432 1142 444 1128 b 511 1211 494 1128 511 1185 b 403 1318 511 1270 463 1318 b 297 1211 344 1318 297 1270 b 347 1128 297 1185 313 1128 b 376 1158 363 1128 376 1142 z m 85 1158 b 76 1178 85 1165 82 1172 b 64 1211 69 1186 64 1198 b 113 1260 64 1238 86 1260 b 162 1211 140 1260 162 1238 b 149 1178 162 1198 157 1186 b 141 1158 144 1172 141 1165 b 170 1128 141 1142 153 1128 b 220 1211 203 1128 220 1185 b 113 1318 220 1270 172 1318 b 6 1211 53 1318 6 1270 b 56 1128 6 1185 22 1128 b 85 1158 72 1128 85 1142 z "},"":{"ha":517,"x_min":0,"x_max":0,"o":"m 376 1158 b 367 1178 376 1165 373 1172 b 355 1211 360 1186 355 1198 b 403 1260 355 1238 377 1260 b 453 1211 431 1260 453 1238 b 440 1178 453 1198 448 1186 b 432 1158 435 1172 432 1165 b 461 1128 432 1142 444 1128 b 511 1211 494 1128 511 1185 b 403 1318 511 1270 463 1318 b 297 1211 344 1318 297 1270 b 347 1128 297 1185 313 1128 b 376 1158 363 1128 376 1142 z m 85 1158 b 76 1178 85 1165 82 1172 b 64 1211 69 1186 64 1198 b 113 1260 64 1238 86 1260 b 162 1211 140 1260 162 1238 b 149 1178 162 1198 157 1186 b 141 1158 144 1172 141 1165 b 170 1128 141 1142 153 1128 b 220 1211 203 1128 220 1185 b 113 1318 220 1270 172 1318 b 6 1211 53 1318 6 1270 b 56 1128 6 1185 22 1128 b 85 1158 72 1128 85 1142 z m 331 844 b 360 874 347 844 360 858 l 360 1011 b 331 1040 360 1027 347 1040 l 185 1040 b 156 1011 169 1040 156 1027 b 185 982 156 995 169 982 l 302 982 l 302 903 l 185 903 b 156 874 169 903 156 890 l 156 29 b 185 0 156 13 169 0 l 331 0 b 360 29 347 0 360 13 l 360 736 b 331 765 360 752 347 765 b 302 736 315 765 302 752 l 302 58 l 215 58 l 215 844 z "},"":{"ha":1106,"x_min":0,"x_max":0,"o":"m 185 197 b 69 81 121 197 69 145 b 102 1 69 50 82 22 b 123 -8 108 -5 115 -8 b 152 22 139 -8 152 6 b 144 42 152 29 149 36 b 128 81 134 52 128 66 b 185 138 128 113 153 138 b 241 81 216 138 241 113 b 225 42 241 66 235 52 b 217 22 220 37 217 29 b 246 -8 217 6 230 -8 b 267 1 253 -8 261 -5 b 299 81 287 22 299 50 b 185 197 299 145 248 197 z m 553 197 b 438 81 490 197 438 145 b 471 1 438 50 451 22 b 492 -8 476 -5 484 -8 b 521 22 508 -8 521 6 b 513 42 521 29 518 36 b 497 81 503 52 497 66 b 553 138 497 113 522 138 b 610 81 585 138 610 113 b 594 42 610 66 603 52 b 585 22 589 37 585 29 b 615 -8 585 6 599 -8 b 635 1 622 -8 630 -5 b 668 81 656 22 668 50 b 553 197 668 145 617 197 z m 922 197 b 807 81 858 197 807 145 b 840 1 807 50 819 22 b 860 -8 845 -5 853 -8 b 890 22 876 -8 890 6 b 881 42 890 29 887 36 b 865 81 872 52 865 66 b 922 138 865 113 891 138 b 978 81 953 138 978 113 b 963 42 978 66 972 52 b 954 22 958 37 954 29 b 983 -8 954 6 967 -8 b 1004 1 991 -8 999 -5 b 1037 81 1024 22 1037 50 b 922 197 1037 145 985 197 z "},"":{"ha":936,"x_min":0,"x_max":0,"o":"m 356 196 l 817 869 b 820 881 819 873 820 877 b 799 903 820 892 811 903 l 188 903 l 188 982 l 791 982 b 820 1011 807 982 820 995 b 791 1040 820 1027 807 1040 l 159 1040 b 130 1011 143 1040 130 1027 l 130 874 b 159 844 130 858 143 844 l 729 844 l 269 172 b 287 138 259 157 269 138 l 791 138 l 791 58 l 145 58 l 145 138 l 544 720 b 520 766 557 740 544 766 b 496 753 510 766 501 761 l 97 172 b 87 138 90 161 87 150 l 87 29 b 116 0 87 13 100 0 l 820 0 b 849 29 836 0 849 13 l 849 167 b 820 196 849 183 836 196 z m 394 1190 l 290 1324 l 362 1324 l 372 1311 b 394 1300 378 1303 386 1300 b 417 1347 419 1300 433 1328 l 403 1365 b 368 1382 395 1376 382 1382 l 209 1382 b 190 1363 197 1382 190 1372 b 194 1350 190 1358 191 1354 l 356 1144 b 392 1127 365 1133 378 1127 l 397 1127 b 432 1144 410 1127 424 1133 l 574 1324 l 647 1324 l 528 1174 b 551 1127 514 1155 527 1127 b 574 1138 560 1127 569 1131 l 742 1350 b 747 1363 745 1353 747 1358 b 727 1382 747 1372 739 1382 l 567 1382 b 532 1365 553 1382 540 1376 z "},"":{"ha":936,"x_min":0,"x_max":0,"o":"m 394 1190 l 290 1324 l 362 1324 l 372 1311 b 394 1300 378 1303 386 1300 b 417 1347 419 1300 433 1328 l 403 1365 b 368 1382 395 1376 382 1382 l 209 1382 b 190 1363 197 1382 190 1372 b 194 1350 190 1358 191 1354 l 356 1144 b 392 1127 365 1133 378 1127 l 397 1127 b 432 1144 410 1127 424 1133 l 574 1324 l 647 1324 l 528 1174 b 551 1127 514 1155 527 1127 b 574 1138 560 1127 569 1131 l 742 1350 b 747 1363 745 1353 747 1358 b 727 1382 747 1372 739 1382 l 567 1382 b 532 1365 553 1382 540 1376 z m 356 196 l 817 869 b 820 881 819 873 820 877 b 799 903 820 892 811 903 l 188 903 l 188 982 l 791 982 b 820 1011 807 982 820 995 b 791 1040 820 1027 807 1040 l 159 1040 b 130 1011 143 1040 130 1027 l 130 874 b 159 844 130 858 143 844 l 729 844 l 269 172 b 287 138 259 157 269 138 l 791 138 l 791 58 l 145 58 l 145 138 l 544 720 b 520 766 557 740 544 766 b 496 753 510 766 501 761 l 97 172 b 87 138 90 161 87 150 l 87 29 b 116 0 87 13 100 0 l 820 0 b 849 29 836 0 849 13 l 849 167 b 820 196 849 183 836 196 z "},"":{"ha":873,"x_min":0,"x_max":0,"o":"m 494 638 b 512 612 494 627 501 617 b 728 292 661 543 728 442 b 407 44 728 106 569 44 b 117 110 304 44 215 64 l 147 190 b 407 123 242 145 330 123 b 640 292 610 123 640 229 b 433 561 640 458 530 509 b 290 744 358 602 290 637 b 447 860 290 817 344 860 b 662 806 520 860 588 841 b 673 803 665 804 669 803 b 699 822 684 803 695 810 l 749 957 b 734 993 754 971 749 985 b 447 1056 656 1032 585 1056 b 86 743 258 1056 86 952 b 287 415 86 593 158 483 b 300 412 291 413 296 412 b 329 442 318 412 329 427 b 314 467 329 451 324 461 b 144 743 217 517 144 603 b 447 997 144 912 281 997 b 685 952 565 997 623 981 l 656 872 b 447 918 581 903 515 918 b 232 744 293 918 232 833 b 404 510 232 608 317 557 b 582 292 492 463 582 426 b 407 181 582 215 519 181 b 143 256 322 181 230 213 b 131 259 139 258 135 259 b 104 241 119 259 108 253 l 53 106 b 68 69 48 92 55 76 b 407 -15 166 20 272 -15 b 786 292 627 -15 786 90 b 536 665 786 474 699 590 b 494 638 516 674 494 659 z m 372 1190 l 267 1324 l 339 1324 l 349 1311 b 372 1300 355 1303 364 1300 b 395 1347 396 1300 410 1328 l 381 1365 b 345 1382 372 1376 359 1382 l 187 1382 b 167 1363 175 1382 167 1372 b 172 1350 167 1358 169 1354 l 333 1144 b 369 1127 342 1133 356 1127 l 374 1127 b 410 1144 388 1127 401 1133 l 551 1324 l 624 1324 l 506 1174 b 529 1127 491 1155 505 1127 b 552 1138 538 1127 547 1131 l 720 1350 b 724 1363 723 1353 724 1358 b 704 1382 724 1372 716 1382 l 545 1382 b 509 1365 531 1382 518 1376 z "},"":{"ha":873,"x_min":0,"x_max":0,"o":"m 372 1190 l 267 1324 l 339 1324 l 349 1311 b 372 1300 355 1303 364 1300 b 395 1347 396 1300 410 1328 l 381 1365 b 345 1382 372 1376 359 1382 l 187 1382 b 167 1363 175 1382 167 1372 b 172 1350 167 1358 169 1354 l 333 1144 b 369 1127 342 1133 356 1127 l 374 1127 b 410 1144 388 1127 401 1133 l 551 1324 l 624 1324 l 506 1174 b 529 1127 491 1155 505 1127 b 552 1138 538 1127 547 1131 l 720 1350 b 724 1363 723 1353 724 1358 b 704 1382 724 1372 716 1382 l 545 1382 b 509 1365 531 1382 518 1376 z m 494 638 b 512 612 494 627 501 617 b 728 292 661 543 728 442 b 407 44 728 106 569 44 b 117 110 304 44 215 64 l 147 190 b 407 123 242 145 330 123 b 640 292 610 123 640 229 b 433 561 640 458 530 509 b 290 744 358 602 290 637 b 447 860 290 817 344 860 b 662 806 520 860 588 841 b 673 803 665 804 669 803 b 699 822 684 803 695 810 l 749 957 b 734 993 754 971 749 985 b 447 1056 656 1032 585 1056 b 86 743 258 1056 86 952 b 287 415 86 593 158 483 b 300 412 291 413 296 412 b 329 442 318 412 329 427 b 314 467 329 451 324 461 b 144 743 217 517 144 603 b 447 997 144 912 281 997 b 685 952 565 997 623 981 l 656 872 b 447 918 581 903 515 918 b 232 744 293 918 232 833 b 404 510 232 608 317 557 b 582 292 492 463 582 426 b 407 181 582 215 519 181 b 143 256 322 181 230 213 b 131 259 139 258 135 259 b 104 241 119 259 108 253 l 53 106 b 68 69 48 92 55 76 b 407 -15 166 20 272 -15 b 786 292 627 -15 786 90 b 536 665 786 474 699 590 b 494 638 516 674 494 659 z "},"":{"ha":887,"x_min":0,"x_max":0,"o":"m 753 196 b 783 167 770 196 783 183 l 783 29 b 753 0 783 13 770 0 l 168 0 b 139 29 152 0 139 13 l 139 1011 b 168 1040 139 1027 152 1040 l 744 1040 b 773 1011 760 1040 773 1027 l 773 874 b 744 844 773 858 760 844 l 343 844 l 343 752 b 314 723 343 736 331 723 b 285 752 298 723 285 736 l 285 874 b 314 903 285 890 298 903 l 715 903 l 715 982 l 197 982 l 197 58 l 724 58 l 724 138 l 314 138 b 285 167 298 138 285 151 l 285 615 b 314 644 285 631 298 644 l 728 644 b 757 615 744 644 757 631 l 757 477 b 728 448 757 461 744 448 l 460 448 b 431 477 444 448 431 461 b 460 506 431 493 444 506 l 699 506 l 699 585 l 343 585 l 343 196 z m 580 1158 b 572 1178 580 1165 577 1172 b 559 1211 564 1186 559 1198 b 608 1260 559 1238 581 1260 b 657 1211 635 1260 657 1238 b 644 1178 657 1198 652 1186 b 636 1158 639 1172 636 1165 b 665 1128 636 1142 649 1128 b 715 1211 699 1128 715 1185 b 608 1318 715 1270 667 1318 b 501 1211 549 1318 501 1270 b 551 1128 501 1185 518 1128 b 580 1158 567 1128 580 1142 z m 291 1158 b 283 1178 291 1165 288 1172 b 270 1211 275 1186 270 1198 b 319 1260 270 1238 292 1260 b 368 1211 346 1260 368 1238 b 355 1178 368 1198 363 1186 b 347 1158 350 1172 347 1165 b 376 1128 347 1142 360 1128 b 426 1211 410 1128 426 1185 b 319 1318 426 1270 378 1318 b 212 1211 260 1318 212 1270 b 262 1128 212 1185 228 1128 b 291 1158 278 1128 291 1142 z "},"":{"ha":887,"x_min":0,"x_max":0,"o":"m 753 196 b 783 167 770 196 783 183 l 783 29 b 753 0 783 13 770 0 l 168 0 b 139 29 152 0 139 13 l 139 1011 b 168 1040 139 1027 152 1040 l 744 1040 b 773 1011 760 1040 773 1027 l 773 874 b 744 844 773 858 760 844 l 343 844 l 343 752 b 314 723 343 736 331 723 b 285 752 298 723 285 736 l 285 874 b 314 903 285 890 298 903 l 715 903 l 715 982 l 197 982 l 197 58 l 724 58 l 724 138 l 314 138 b 285 167 298 138 285 151 l 285 615 b 314 644 285 631 298 644 l 728 644 b 757 615 744 644 757 631 l 757 477 b 728 448 757 461 744 448 l 460 448 b 431 477 444 448 431 461 b 460 506 431 493 444 506 l 699 506 l 699 585 l 343 585 l 343 196 z m 580 1158 b 572 1178 580 1165 577 1172 b 559 1211 564 1186 559 1198 b 608 1260 559 1238 581 1260 b 657 1211 635 1260 657 1238 b 644 1178 657 1198 652 1186 b 636 1158 639 1172 636 1165 b 665 1128 636 1142 649 1128 b 715 1211 699 1128 715 1185 b 608 1318 715 1270 667 1318 b 501 1211 549 1318 501 1270 b 551 1128 501 1185 518 1128 b 580 1158 567 1128 580 1142 z m 291 1158 b 283 1178 291 1165 288 1172 b 270 1211 275 1186 270 1198 b 319 1260 270 1238 292 1260 b 368 1211 346 1260 368 1238 b 355 1178 368 1198 363 1186 b 347 1158 350 1172 347 1165 b 376 1128 347 1142 360 1128 b 426 1211 410 1128 426 1185 b 319 1318 426 1270 378 1318 b 212 1211 260 1318 212 1270 b 262 1128 212 1185 228 1128 b 291 1158 278 1128 291 1142 z "},"":{"ha":887,"x_min":0,"x_max":0,"o":"m 753 196 b 783 167 770 196 783 183 l 783 29 b 753 0 783 13 770 0 l 168 0 b 139 29 152 0 139 13 l 139 1011 b 168 1040 139 1027 152 1040 l 744 1040 b 773 1011 760 1040 773 1027 l 773 874 b 744 844 773 858 760 844 l 343 844 l 343 752 b 314 723 343 736 331 723 b 285 752 298 723 285 736 l 285 874 b 314 903 285 890 298 903 l 715 903 l 715 982 l 197 982 l 197 58 l 724 58 l 724 138 l 314 138 b 285 167 298 138 285 151 l 285 615 b 314 644 285 631 298 644 l 728 644 b 757 615 744 644 757 631 l 757 477 b 728 448 757 461 744 448 l 460 448 b 431 477 444 448 431 461 b 460 506 431 493 444 506 l 699 506 l 699 585 l 343 585 l 343 196 z m 521 1144 b 556 1127 529 1133 542 1127 l 715 1127 b 735 1147 727 1127 735 1137 b 731 1159 735 1151 734 1156 l 563 1371 b 540 1382 558 1378 549 1382 b 517 1335 516 1382 502 1354 l 635 1185 l 563 1185 l 421 1365 b 385 1382 412 1376 399 1382 l 381 1382 b 344 1365 367 1382 353 1376 l 183 1159 b 178 1147 180 1155 178 1151 b 198 1127 178 1137 186 1127 l 356 1127 b 392 1144 370 1127 383 1133 l 406 1162 b 383 1209 421 1181 407 1209 b 360 1198 375 1209 366 1206 l 350 1185 l 278 1185 l 383 1319 z "},"":{"ha":887,"x_min":0,"x_max":0,"o":"m 753 196 b 783 167 770 196 783 183 l 783 29 b 753 0 783 13 770 0 l 168 0 b 139 29 152 0 139 13 l 139 1011 b 168 1040 139 1027 152 1040 l 744 1040 b 773 1011 760 1040 773 1027 l 773 874 b 744 844 773 858 760 844 l 343 844 l 343 752 b 314 723 343 736 331 723 b 285 752 298 723 285 736 l 285 874 b 314 903 285 890 298 903 l 715 903 l 715 982 l 197 982 l 197 58 l 724 58 l 724 138 l 314 138 b 285 167 298 138 285 151 l 285 615 b 314 644 285 631 298 644 l 728 644 b 757 615 744 644 757 631 l 757 477 b 728 448 757 461 744 448 l 460 448 b 431 477 444 448 431 461 b 460 506 431 493 444 506 l 699 506 l 699 585 l 343 585 l 343 196 z m 521 1144 b 556 1127 529 1133 542 1127 l 715 1127 b 735 1147 727 1127 735 1137 b 731 1159 735 1151 734 1156 l 563 1371 b 540 1382 558 1378 549 1382 b 517 1335 516 1382 502 1354 l 635 1185 l 563 1185 l 421 1365 b 385 1382 412 1376 399 1382 l 381 1382 b 344 1365 367 1382 353 1376 l 183 1159 b 178 1147 180 1155 178 1151 b 198 1127 178 1137 186 1127 l 356 1127 b 392 1144 370 1127 383 1133 l 406 1162 b 383 1209 421 1181 407 1209 b 360 1198 375 1209 366 1206 l 350 1185 l 278 1185 l 383 1319 z "},"":{"ha":887,"x_min":0,"x_max":0,"o":"m 753 196 b 783 167 770 196 783 183 l 783 29 b 753 0 783 13 770 0 l 168 0 b 139 29 152 0 139 13 l 139 1011 b 168 1040 139 1027 152 1040 l 744 1040 b 773 1011 760 1040 773 1027 l 773 874 b 744 844 773 858 760 844 l 343 844 l 343 752 b 314 723 343 736 331 723 b 285 752 298 723 285 736 l 285 874 b 314 903 285 890 298 903 l 715 903 l 715 982 l 197 982 l 197 58 l 724 58 l 724 138 l 314 138 b 285 167 298 138 285 151 l 285 615 b 314 644 285 631 298 644 l 728 644 b 757 615 744 644 757 631 l 757 477 b 728 448 757 461 744 448 l 460 448 b 431 477 444 448 431 461 b 460 506 431 493 444 506 l 699 506 l 699 585 l 343 585 l 343 196 z m 355 1128 l 501 1128 b 542 1149 517 1128 533 1135 l 674 1336 b 678 1353 677 1342 678 1347 b 650 1382 678 1368 667 1382 b 626 1370 641 1382 632 1378 l 497 1186 l 426 1186 l 532 1336 b 538 1353 535 1342 538 1347 b 508 1382 538 1368 525 1382 b 484 1369 499 1382 490 1378 l 338 1162 b 333 1149 334 1158 333 1153 b 355 1128 333 1138 342 1128 z "},"":{"ha":887,"x_min":0,"x_max":0,"o":"m 753 196 b 783 167 770 196 783 183 l 783 29 b 753 0 783 13 770 0 l 168 0 b 139 29 152 0 139 13 l 139 1011 b 168 1040 139 1027 152 1040 l 744 1040 b 773 1011 760 1040 773 1027 l 773 874 b 744 844 773 858 760 844 l 343 844 l 343 752 b 314 723 343 736 331 723 b 285 752 298 723 285 736 l 285 874 b 314 903 285 890 298 903 l 715 903 l 715 982 l 197 982 l 197 58 l 724 58 l 724 138 l 314 138 b 285 167 298 138 285 151 l 285 615 b 314 644 285 631 298 644 l 728 644 b 757 615 744 644 757 631 l 757 477 b 728 448 757 461 744 448 l 460 448 b 431 477 444 448 431 461 b 460 506 431 493 444 506 l 699 506 l 699 585 l 343 585 l 343 196 z m 355 1128 l 501 1128 b 542 1149 517 1128 533 1135 l 674 1336 b 678 1353 677 1342 678 1347 b 650 1382 678 1368 667 1382 b 626 1370 641 1382 632 1378 l 497 1186 l 426 1186 l 532 1336 b 538 1353 535 1342 538 1347 b 508 1382 538 1368 525 1382 b 484 1369 499 1382 490 1378 l 338 1162 b 333 1149 334 1158 333 1153 b 355 1128 333 1138 342 1128 z "},"":{"ha":887,"x_min":0,"x_max":0,"o":"m 753 196 b 783 167 770 196 783 183 l 783 29 b 753 0 783 13 770 0 l 168 0 b 139 29 152 0 139 13 l 139 1011 b 168 1040 139 1027 152 1040 l 744 1040 b 773 1011 760 1040 773 1027 l 773 874 b 744 844 773 858 760 844 l 343 844 l 343 752 b 314 723 343 736 331 723 b 285 752 298 723 285 736 l 285 874 b 314 903 285 890 298 903 l 715 903 l 715 982 l 197 982 l 197 58 l 724 58 l 724 138 l 314 138 b 285 167 298 138 285 151 l 285 615 b 314 644 285 631 298 644 l 728 644 b 757 615 744 644 757 631 l 757 477 b 728 448 757 461 744 448 l 460 448 b 431 477 444 448 431 461 b 460 506 431 493 444 506 l 699 506 l 699 585 l 343 585 l 343 196 z m 576 1128 b 597 1149 588 1128 597 1138 b 593 1162 597 1153 596 1158 l 447 1369 b 422 1382 441 1377 432 1382 b 393 1353 406 1382 393 1368 b 399 1336 393 1347 395 1341 l 505 1186 l 434 1186 l 304 1369 b 280 1382 299 1377 290 1382 b 251 1353 263 1382 251 1368 b 256 1336 251 1347 253 1341 l 389 1149 b 429 1128 398 1135 413 1128 z "},"":{"ha":887,"x_min":0,"x_max":0,"o":"m 753 196 b 783 167 770 196 783 183 l 783 29 b 753 0 783 13 770 0 l 168 0 b 139 29 152 0 139 13 l 139 1011 b 168 1040 139 1027 152 1040 l 744 1040 b 773 1011 760 1040 773 1027 l 773 874 b 744 844 773 858 760 844 l 343 844 l 343 752 b 314 723 343 736 331 723 b 285 752 298 723 285 736 l 285 874 b 314 903 285 890 298 903 l 715 903 l 715 982 l 197 982 l 197 58 l 724 58 l 724 138 l 314 138 b 285 167 298 138 285 151 l 285 615 b 314 644 285 631 298 644 l 728 644 b 757 615 744 644 757 631 l 757 477 b 728 448 757 461 744 448 l 460 448 b 431 477 444 448 431 461 b 460 506 431 493 444 506 l 699 506 l 699 585 l 343 585 l 343 196 z m 576 1128 b 597 1149 588 1128 597 1138 b 593 1162 597 1153 596 1158 l 447 1369 b 422 1382 441 1377 432 1382 b 393 1353 406 1382 393 1368 b 399 1336 393 1347 395 1341 l 505 1186 l 434 1186 l 304 1369 b 280 1382 299 1377 290 1382 b 251 1353 263 1382 251 1368 b 256 1336 251 1347 253 1341 l 389 1149 b 429 1128 398 1135 413 1128 z "},"":{"ha":1107,"x_min":0,"x_max":0,"o":"m 793 1040 b 764 1011 776 1040 764 1027 l 764 359 l 372 1025 b 347 1040 367 1034 358 1040 b 321 996 324 1040 309 1016 l 783 210 b 801 200 788 203 794 200 b 822 221 812 200 822 208 l 822 982 l 910 982 l 910 58 l 776 58 l 207 1023 b 176 1040 200 1033 189 1040 l 168 1040 b 139 1011 151 1040 139 1027 l 139 29 b 168 0 139 13 151 0 l 314 0 b 343 29 330 0 343 13 l 343 501 b 314 531 343 517 330 531 b 285 502 298 531 285 518 l 285 58 l 197 58 l 197 924 l 728 23 b 769 0 737 8 752 0 l 939 0 b 968 29 955 0 968 13 l 968 1011 b 939 1040 968 1027 955 1040 z m 324 1229 b 465 1276 363 1259 412 1276 b 546 1259 485 1276 515 1269 b 638 1236 577 1249 605 1236 b 730 1265 671 1236 703 1247 l 784 1232 b 638 1181 745 1199 694 1181 b 545 1201 601 1181 575 1188 b 465 1220 520 1210 494 1220 b 378 1195 433 1220 403 1211 b 357 1178 378 1195 369 1190 b 347 1157 350 1173 347 1165 b 376 1128 347 1141 360 1128 b 395 1135 383 1128 390 1130 b 465 1162 413 1151 438 1162 b 551 1136 491 1162 519 1147 b 638 1122 578 1126 609 1122 b 858 1224 722 1122 804 1157 b 863 1239 862 1228 863 1234 b 851 1260 863 1247 859 1256 l 747 1322 b 728 1327 741 1326 735 1327 b 705 1319 720 1327 712 1324 b 638 1294 688 1304 664 1294 b 565 1315 613 1294 591 1306 b 465 1334 533 1325 497 1334 b 250 1238 383 1334 302 1301 b 244 1219 246 1232 244 1226 b 273 1190 244 1203 256 1190 b 296 1201 281 1190 290 1194 b 324 1229 311 1220 323 1228 z "},"":{"ha":1107,"x_min":0,"x_max":0,"o":"m 324 1229 b 465 1276 363 1259 412 1276 b 546 1259 485 1276 515 1269 b 638 1236 577 1249 605 1236 b 730 1265 671 1236 703 1247 l 784 1232 b 638 1181 745 1199 694 1181 b 545 1201 601 1181 575 1188 b 465 1220 520 1210 494 1220 b 378 1195 433 1220 403 1211 b 357 1178 378 1195 369 1190 b 347 1157 350 1173 347 1165 b 376 1128 347 1141 360 1128 b 395 1135 383 1128 390 1130 b 465 1162 413 1151 438 1162 b 551 1136 491 1162 519 1147 b 638 1122 578 1126 609 1122 b 858 1224 722 1122 804 1157 b 863 1239 862 1228 863 1234 b 851 1260 863 1247 859 1256 l 747 1322 b 728 1327 741 1326 735 1327 b 705 1319 720 1327 712 1324 b 638 1294 688 1304 664 1294 b 565 1315 613 1294 591 1306 b 465 1334 533 1325 497 1334 b 250 1238 383 1334 302 1301 b 244 1219 246 1232 244 1226 b 273 1190 244 1203 256 1190 b 296 1201 281 1190 290 1194 b 324 1229 311 1220 323 1228 z m 939 1040 l 793 1040 b 764 1011 776 1040 764 1027 l 764 359 l 372 1025 b 347 1040 367 1034 358 1040 b 321 996 324 1040 309 1016 l 783 210 b 801 200 788 203 794 200 b 822 221 812 200 822 208 l 822 982 l 910 982 l 910 58 l 776 58 l 207 1023 b 176 1040 200 1033 189 1040 l 168 1040 b 139 1011 151 1040 139 1027 l 139 29 b 168 0 139 13 151 0 l 314 0 b 343 29 330 0 343 13 l 343 501 b 314 531 343 517 330 531 b 285 502 298 531 285 518 l 285 58 l 197 58 l 197 924 l 728 23 b 769 0 737 8 752 0 l 939 0 b 968 29 955 0 968 13 l 968 1011 b 939 1040 968 1027 955 1040 z "},"":{"ha":517,"x_min":0,"x_max":0,"o":"m 331 844 b 360 874 347 844 360 858 l 360 1011 b 331 1040 360 1027 347 1040 l 185 1040 b 156 1011 169 1040 156 1027 b 185 982 156 995 169 982 l 302 982 l 302 903 l 185 903 b 156 874 169 903 156 890 l 156 29 b 185 0 156 13 169 0 l 331 0 b 360 29 347 0 360 13 l 360 736 b 331 765 360 752 347 765 b 302 736 315 765 302 752 l 302 58 l 215 58 l 215 844 z m 107 1128 l 253 1128 b 294 1149 269 1128 285 1135 l 426 1336 b 431 1353 429 1342 431 1347 b 402 1382 431 1368 419 1382 b 378 1370 393 1382 384 1378 l 249 1186 l 178 1186 l 284 1336 b 290 1353 288 1342 290 1347 b 260 1382 290 1368 277 1382 b 236 1369 251 1382 242 1378 l 90 1162 b 85 1149 86 1158 85 1153 b 107 1128 85 1138 94 1128 z "}}}
